<?xml version="1.0" encoding="UTF-8" standalone="no"?><svg xmlns="http://www.w3.org/2000/svg" xmlns:xlink="http://www.w3.org/1999/xlink" contentScriptType="application/ecmascript" contentStyleType="text/css" height="310px" preserveAspectRatio="none" style="width:250px;height:310px;" version="1.1" viewBox="0 0 250 310" width="250px" zoomAndPan="magnify"><defs><filter height="300%" id="fhn920117gv3q" width="300%" x="-1" y="-1"><feGaussianBlur result="blurOut" stdDeviation="2.0"/><feColorMatrix in="blurOut" result="blurOut2" type="matrix" values="0 0 0 0 0 0 0 0 0 0 0 0 0 0 0 0 0 0 .4 0"/><feOffset dx="4.0" dy="4.0" in="blurOut2" result="blurOut3"/><feBlend in="SourceGraphic" in2="blurOut3" mode="normal"/></filter></defs><g><!--MD5=[b7f44e7cad61e6c59cb00d03cd3ccdfb]
cluster idmtools--><polygon fill="#FFFFFF" filter="url(#fhn920117gv3q)" points="40,24,118,24,125,46.2969,210,46.2969,210,149,40,149,40,24" style="stroke: #000000; stroke-width: 1.5;"/><line style="stroke: #000000; stroke-width: 1.5;" x1="40" x2="125" y1="46.2969" y2="46.2969"/><text fill="#000000" font-family="sans-serif" font-size="14" font-weight="bold" lengthAdjust="spacingAndGlyphs" textLength="72" x="44" y="38.9951">idmtools</text><!--MD5=[829daeeb29700f335104dbe61342437e]
cluster emodpy--><polygon fill="#FFFFFF" filter="url(#fhn920117gv3q)" points="22,173,91,173,98,195.2969,228,195.2969,228,298,22,298,22,173" style="stroke: #000000; stroke-width: 1.5;"/><line style="stroke: #000000; stroke-width: 1.5;" x1="22" x2="98" y1="195.2969" y2="195.2969"/><text fill="#000000" font-family="sans-serif" font-size="14" font-weight="bold" lengthAdjust="spacingAndGlyphs" textLength="63" x="26" y="187.9951">emodpy</text><!--MD5=[af4c9b49fd16eccd3264a9805d9a5fe6]
class TaskSpecification--><rect fill="#FEFECE" filter="url(#fhn920117gv3q)" height="73.6094" id="TaskSpecification" style="stroke: #A80036; stroke-width: 1.5;" width="138" x="56" y="59"/><ellipse cx="71.45" cy="75" fill="#ADD1B2" rx="11" ry="11" style="stroke: #A80036; stroke-width: 1.0;"/><path d="M73.7938,70.6719 C72.8563,70.2344 72.2625,70.0938 71.3875,70.0938 C68.7625,70.0938 66.7625,72.1719 66.7625,74.8906 L66.7625,76.0156 C66.7625,78.5938 68.8719,80.4844 71.7625,80.4844 C72.9813,80.4844 74.1375,80.1875 74.8875,79.6406 C75.4656,79.2344 75.7938,78.7813 75.7938,78.3906 C75.7938,77.9375 75.4031,77.5469 74.9344,77.5469 C74.7156,77.5469 74.5125,77.625 74.325,77.8125 C73.8719,78.2969 73.8719,78.2969 73.6844,78.3906 C73.2625,78.6563 72.575,78.7813 71.8094,78.7813 C69.7625,78.7813 68.4656,77.6875 68.4656,75.9844 L68.4656,74.8906 C68.4656,73.1094 69.7156,71.7969 71.45,71.7969 C72.0281,71.7969 72.6375,71.9531 73.1063,72.2031 C73.5906,72.4844 73.7625,72.7031 73.8563,73.1094 C73.9188,73.5156 73.95,73.6406 74.0906,73.7656 C74.2313,73.9063 74.4656,74.0156 74.6844,74.0156 C74.95,74.0156 75.2156,73.875 75.3875,73.6563 C75.4969,73.5 75.5281,73.3125 75.5281,72.8906 L75.5281,71.4688 C75.5281,71.0313 75.5125,70.9063 75.4188,70.75 C75.2625,70.4844 74.9813,70.3438 74.6844,70.3438 C74.3875,70.3438 74.1844,70.4375 73.9656,70.75 L73.7938,70.6719 Z "/><text fill="#000000" font-family="sans-serif" font-size="12" lengthAdjust="spacingAndGlyphs" textLength="105" x="85.55" y="79.1543">TaskSpecification</text><line style="stroke: #A80036; stroke-width: 1.5;" x1="57" x2="193" y1="91" y2="91"/><line style="stroke: #A80036; stroke-width: 1.5;" x1="57" x2="193" y1="99" y2="99"/><text fill="#000000" font-family="sans-serif" font-size="11" font-style="italic" lengthAdjust="spacingAndGlyphs" textLength="126" x="62" y="113.2104">Type[ITask] get_type()</text><text fill="#000000" font-family="sans-serif" font-size="11" font-style="italic" lengthAdjust="spacingAndGlyphs" textLength="59" x="62" y="126.0151">ITask get()</text><!--MD5=[ae4aab417d08a512635d6d0e9bf3c4b9]
class EMODTaskSpecification--><rect fill="#FEFECE" filter="url(#fhn920117gv3q)" height="73.6094" id="EMODTaskSpecification" style="stroke: #A80036; stroke-width: 1.5;" width="173" x="38.5" y="208"/><ellipse cx="53.5" cy="224" fill="#ADD1B2" rx="11" ry="11" style="stroke: #A80036; stroke-width: 1.0;"/><path d="M55.8438,219.6719 C54.9063,219.2344 54.3125,219.0938 53.4375,219.0938 C50.8125,219.0938 48.8125,221.1719 48.8125,223.8906 L48.8125,225.0156 C48.8125,227.5938 50.9219,229.4844 53.8125,229.4844 C55.0313,229.4844 56.1875,229.1875 56.9375,228.6406 C57.5156,228.2344 57.8438,227.7813 57.8438,227.3906 C57.8438,226.9375 57.4531,226.5469 56.9844,226.5469 C56.7656,226.5469 56.5625,226.625 56.375,226.8125 C55.9219,227.2969 55.9219,227.2969 55.7344,227.3906 C55.3125,227.6563 54.625,227.7813 53.8594,227.7813 C51.8125,227.7813 50.5156,226.6875 50.5156,224.9844 L50.5156,223.8906 C50.5156,222.1094 51.7656,220.7969 53.5,220.7969 C54.0781,220.7969 54.6875,220.9531 55.1563,221.2031 C55.6406,221.4844 55.8125,221.7031 55.9063,222.1094 C55.9688,222.5156 56,222.6406 56.1406,222.7656 C56.2813,222.9063 56.5156,223.0156 56.7344,223.0156 C57,223.0156 57.2656,222.875 57.4375,222.6563 C57.5469,222.5 57.5781,222.3125 57.5781,221.8906 L57.5781,220.4688 C57.5781,220.0313 57.5625,219.9063 57.4688,219.75 C57.3125,219.4844 57.0313,219.3438 56.7344,219.3438 C56.4375,219.3438 56.2344,219.4375 56.0156,219.75 L55.8438,219.6719 Z "/><text fill="#000000" font-family="sans-serif" font-size="12" lengthAdjust="spacingAndGlyphs" textLength="141" x="67.5" y="228.1543">EMODTaskSpecification</text><line style="stroke: #A80036; stroke-width: 1.5;" x1="39.5" x2="210.5" y1="240" y2="240"/><text fill="#000000" font-family="sans-serif" font-size="11" font-style="italic" lengthAdjust="spacingAndGlyphs" textLength="95" x="44.5" y="254.2104">Type[EMODTask]</text><line style="stroke: #A80036; stroke-width: 1.5;" x1="39.5" x2="210.5" y1="260.8047" y2="260.8047"/><text fill="#000000" font-family="sans-serif" font-size="11" font-style="italic" lengthAdjust="spacingAndGlyphs" textLength="127" x="44.5" y="275.0151">TaskSpecification get()</text><!--MD5=[7149f4143931c5ae9acbf550a86816b4]
reverse link TaskSpecification to EMODTaskSpecification--><path d="M125,138.492 C125,160.325 125,186.839 125,207.826 " fill="none" id="TaskSpecification&lt;-EMODTaskSpecification" style="stroke: #A80036; stroke-width: 1.0;"/><polygon fill="#A80036" points="125,133.337,121,142.337,125,138.337,129,142.337,125,133.337" style="stroke: #A80036; stroke-width: 1.0;"/><!--MD5=[8f2aaea3f1d27d0444677f4e10b34dbc]
@startuml
package "idmtools" {
    class TaskSpecification {
        {abstract} Type[ITask] get_type()
        {abstract} ITask get()
    }
}

package "emodpy"{
    class EMODTaskSpecification{
        {abstract} Type[EMODTask]
        {abstract} TaskSpecification get()
    }
}

TaskSpecification <- - EMODTaskSpecification
@enduml

PlantUML version 1.2020.11(Sat May 30 10:13:43 UTC 2020)
(GPL source distribution)
Java Runtime: Java(TM) SE Runtime Environment
JVM: Java HotSpot(TM) 64-Bit Server VM
Default Encoding: UTF-8
Language: en
Country: US
--></g></svg>