<?xml version="1.0" encoding="UTF-8" standalone="no"?><svg xmlns="http://www.w3.org/2000/svg" xmlns:xlink="http://www.w3.org/1999/xlink" contentScriptType="application/ecmascript" contentStyleType="text/css" height="371px" preserveAspectRatio="none" style="width:539px;height:371px;" version="1.1" viewBox="0 0 539 371" width="539px" zoomAndPan="magnify"><defs><filter height="300%" id="f1j0t09v6sc2jd" width="300%" x="-1" y="-1"><feGaussianBlur result="blurOut" stdDeviation="2.0"/><feColorMatrix in="blurOut" result="blurOut2" type="matrix" values="0 0 0 0 0 0 0 0 0 0 0 0 0 0 0 0 0 0 .4 0"/><feOffset dx="4.0" dy="4.0" in="blurOut2" result="blurOut3"/><feBlend in="SourceGraphic" in2="blurOut3" mode="normal"/></filter></defs><g><!--MD5=[272379cf1f80536b6294ad33393ecec2]
cluster registry--><polygon fill="#FFFFFF" filter="url(#f1j0t09v6sc2jd)" points="172,6,291,6,298,28.2969,301,28.2969,301,75,172,75,172,6" style="stroke: #000000; stroke-width: 1.5;"/><line style="stroke: #000000; stroke-width: 1.5;" x1="172" x2="298" y1="28.2969" y2="28.2969"/><text fill="#000000" font-family="sans-serif" font-size="14" font-weight="bold" lengthAdjust="spacingAndGlyphs" textLength="113" x="176" y="20.9951">idmtools-core</text><!--MD5=[a60570e4b426f702ccbb0d459e3b9417]
cluster models--><polygon fill="#FFFFFF" filter="url(#f1j0t09v6sc2jd)" points="16,124,158,124,165,146.2969,517,146.2969,517,359,16,359,16,124" style="stroke: #000000; stroke-width: 1.5;"/><line style="stroke: #000000; stroke-width: 1.5;" x1="16" x2="165" y1="146.2969" y2="146.2969"/><text fill="#000000" font-family="sans-serif" font-size="14" font-weight="bold" lengthAdjust="spacingAndGlyphs" textLength="136" x="20" y="138.9951">idmtools-models</text><!--MD5=[bd16e8f691229aaacf324dd8d35a0b42]
entity TasksAPI--><ellipse cx="236" cy="50" fill="#FEFECE" filter="url(#f1j0t09v6sc2jd)" rx="8" ry="8" style="stroke: #A80036; stroke-width: 2.0;"/><text fill="#000000" font-family="sans-serif" font-size="14" lengthAdjust="spacingAndGlyphs" textLength="63" x="204.5" y="79.9951">TasksAPI</text><!--MD5=[71314f0abb86b1f8c65830bf18b7985f]
entity PythonTask--><rect fill="#FEFECE" filter="url(#f1j0t09v6sc2jd)" height="46.2969" style="stroke: #A80036; stroke-width: 1.5;" width="124" x="282" y="159"/><rect fill="#FEFECE" height="10" style="stroke: #A80036; stroke-width: 1.5;" width="15" x="386" y="164"/><rect fill="#FEFECE" height="2" style="stroke: #A80036; stroke-width: 1.5;" width="4" x="384" y="166"/><rect fill="#FEFECE" height="2" style="stroke: #A80036; stroke-width: 1.5;" width="4" x="384" y="170"/><text fill="#000000" font-family="sans-serif" font-size="14" lengthAdjust="spacingAndGlyphs" textLength="84" x="297" y="191.9951">PythonTask</text><!--MD5=[78c005af211dc881a9bcb46c6a9dd527]
entity JSONConfiguredPythonTask--><rect fill="#FEFECE" filter="url(#f1j0t09v6sc2jd)" height="46.2969" style="stroke: #A80036; stroke-width: 1.5;" width="237" x="263.5" y="297"/><rect fill="#FEFECE" height="10" style="stroke: #A80036; stroke-width: 1.5;" width="15" x="480.5" y="302"/><rect fill="#FEFECE" height="2" style="stroke: #A80036; stroke-width: 1.5;" width="4" x="478.5" y="304"/><rect fill="#FEFECE" height="2" style="stroke: #A80036; stroke-width: 1.5;" width="4" x="478.5" y="308"/><text fill="#000000" font-family="sans-serif" font-size="14" lengthAdjust="spacingAndGlyphs" textLength="197" x="278.5" y="329.9951">JSONConfiguredPythonTask</text><!--MD5=[654b3c96b9447c29b93065952dd9ce04]
entity RTask--><rect fill="#FEFECE" filter="url(#f1j0t09v6sc2jd)" height="46.2969" style="stroke: #A80036; stroke-width: 1.5;" width="83" x="87.5" y="159"/><rect fill="#FEFECE" height="10" style="stroke: #A80036; stroke-width: 1.5;" width="15" x="150.5" y="164"/><rect fill="#FEFECE" height="2" style="stroke: #A80036; stroke-width: 1.5;" width="4" x="148.5" y="166"/><rect fill="#FEFECE" height="2" style="stroke: #A80036; stroke-width: 1.5;" width="4" x="148.5" y="170"/><text fill="#000000" font-family="sans-serif" font-size="14" lengthAdjust="spacingAndGlyphs" textLength="43" x="102.5" y="191.9951">RTask</text><!--MD5=[b4bd6cb385b6f98b72f9a9fa094964b3]
entity JSONConfiguredRTask--><rect fill="#FEFECE" filter="url(#f1j0t09v6sc2jd)" height="46.2969" style="stroke: #A80036; stroke-width: 1.5;" width="196" x="32" y="297"/><rect fill="#FEFECE" height="10" style="stroke: #A80036; stroke-width: 1.5;" width="15" x="208" y="302"/><rect fill="#FEFECE" height="2" style="stroke: #A80036; stroke-width: 1.5;" width="4" x="206" y="304"/><rect fill="#FEFECE" height="2" style="stroke: #A80036; stroke-width: 1.5;" width="4" x="206" y="308"/><text fill="#000000" font-family="sans-serif" font-size="14" lengthAdjust="spacingAndGlyphs" textLength="156" x="47" y="329.9951">JSONConfiguredRTask</text><!--MD5=[95de2c953c602095bacd8574af0913ba]
reverse link PythonTask to JSONConfiguredPythonTask--><path d="M351.565,210.073 C358.675,235.522 369.189,273.15 375.813,296.856 " fill="none" id="PythonTask&lt;-JSONConfiguredPythonTask" style="stroke: #A80036; stroke-width: 1.0;"/><polygon fill="#A80036" points="350.19,205.153,348.7598,214.8975,351.5357,209.9685,356.4646,212.7444,350.19,205.153" style="stroke: #A80036; stroke-width: 1.0;"/><text fill="#000000" font-family="sans-serif" font-size="13" lengthAdjust="spacingAndGlyphs" textLength="155" x="367" y="248.0669">Adds JSON configuration</text><text fill="#000000" font-family="sans-serif" font-size="13" lengthAdjust="spacingAndGlyphs" textLength="115" x="389" y="263.1997">file to PythonTask</text><!--MD5=[6f4f8ee5d6445d94d82fc2fcc35c7619]
reverse link RTask to JSONConfiguredRTask--><path d="M129.201,210.392 C129.388,235.836 129.664,273.249 129.837,296.856 " fill="none" id="RTask&lt;-JSONConfiguredRTask" style="stroke: #A80036; stroke-width: 1.0;"/><polygon fill="#A80036" points="129.163,205.153,125.23,214.1825,129.2001,210.1529,133.2297,214.123,129.163,205.153" style="stroke: #A80036; stroke-width: 1.0;"/><text fill="#000000" font-family="sans-serif" font-size="13" lengthAdjust="spacingAndGlyphs" textLength="155" x="131" y="248.0669">Adds JSON configuration</text><text fill="#000000" font-family="sans-serif" font-size="13" lengthAdjust="spacingAndGlyphs" textLength="115" x="153" y="263.1997">file to PythonTask</text><!--MD5=[5689266f3ad8e1df2f0671935df3472d]
reverse link TasksAPI to PythonTask--><path d="M250.113,56.065 C265.447,62.205 289.784,73.9 305,91 C322.433,110.591 333.005,139.181 338.662,158.853 " fill="none" id="TasksAPI&lt;-PythonTask" style="stroke: #A80036; stroke-width: 1.0;"/><polygon fill="#A80036" points="245.285,54.196,252.235,61.1743,249.9481,56.0004,255.122,53.7134,245.285,54.196" style="stroke: #A80036; stroke-width: 1.0;"/><text fill="#000000" font-family="sans-serif" font-size="13" lengthAdjust="spacingAndGlyphs" textLength="210" x="317" y="104.0669">Implements Python-based Tasks</text><!--MD5=[bea4353e7b40c4a64aa4adee3ce89cd0]
reverse link TasksAPI to RTask--><path d="M221.637,51.282 C197.007,52.636 147.224,59.368 125,91 C111.153,110.708 115.413,139.274 121.006,158.909 " fill="none" id="TasksAPI&lt;-RTask" style="stroke: #A80036; stroke-width: 1.0;"/><polygon fill="#A80036" points="226.771,51.059,217.6047,47.4563,221.7758,51.2776,217.9545,55.4487,226.771,51.059" style="stroke: #A80036; stroke-width: 1.0;"/><text fill="#000000" font-family="sans-serif" font-size="13" lengthAdjust="spacingAndGlyphs" textLength="174" x="126" y="104.0669">Implements R-based Tasks</text><!--MD5=[c11a10cd9f52321765298d160d9e9c87]
@startuml
package "idmtools-core" as registry {
    () "TasksAPI" as TasksAPI
}

package "idmtools-models" as models {
    [PythonTask]
    [JSONConfiguredPythonTask]
    [RTask]
    [JSONConfiguredRTask]
    PythonTask <- - JSONConfiguredPythonTask: Adds JSON configuration\n file to PythonTask
    RTask <- - JSONConfiguredRTask: Adds JSON configuration\n file to PythonTask
}

TasksAPI <- - PythonTask: Implements Python-based Tasks
TasksAPI <- RTask : Implements R-based Tasks
@enduml

PlantUML version 1.2020.16beta3(Unknown compile time)
(GPL source distribution)
Java Runtime: Java(TM) SE Runtime Environment
JVM: Java HotSpot(TM) 64-Bit Server VM
Default Encoding: UTF-8
Language: en
Country: US
--></g></svg>