<?xml version="1.0" encoding="UTF-8" standalone="no"?><svg xmlns="http://www.w3.org/2000/svg" xmlns:xlink="http://www.w3.org/1999/xlink" contentScriptType="application/ecmascript" contentStyleType="text/css" height="369px" preserveAspectRatio="none" style="width:512px;height:369px;" version="1.1" viewBox="0 0 512 369" width="512px" zoomAndPan="magnify"><defs><filter height="300%" id="f1j0t09v6sc2jd" width="300%" x="-1" y="-1"><feGaussianBlur result="blurOut" stdDeviation="2.0"/><feColorMatrix in="blurOut" result="blurOut2" type="matrix" values="0 0 0 0 0 0 0 0 0 0 0 0 0 0 0 0 0 0 .4 0"/><feOffset dx="4.0" dy="4.0" in="blurOut2" result="blurOut3"/><feBlend in="SourceGraphic" in2="blurOut3" mode="normal"/></filter></defs><g><!--MD5=[272379cf1f80536b6294ad33393ecec2]
cluster registry--><polygon fill="#FFFFFF" filter="url(#f1j0t09v6sc2jd)" points="157,24,276,24,283,46.2969,286,46.2969,286,93,157,93,157,24" style="stroke: #000000; stroke-width: 1.5;"/><line style="stroke: #000000; stroke-width: 1.5;" x1="157" x2="283" y1="46.2969" y2="46.2969"/><text fill="#000000" font-family="sans-serif" font-size="14" font-weight="bold" lengthAdjust="spacingAndGlyphs" textLength="113" x="161" y="38.9951">idmtools-core</text><!--MD5=[a60570e4b426f702ccbb0d459e3b9417]
cluster models--><polygon fill="#FFFFFF" filter="url(#f1j0t09v6sc2jd)" points="22,142,164,142,171,164.2969,483,164.2969,483,357,22,357,22,142" style="stroke: #000000; stroke-width: 1.5;"/><line style="stroke: #000000; stroke-width: 1.5;" x1="22" x2="171" y1="164.2969" y2="164.2969"/><text fill="#000000" font-family="sans-serif" font-size="14" font-weight="bold" lengthAdjust="spacingAndGlyphs" textLength="136" x="26" y="156.9951">idmtools-models</text><!--MD5=[bd16e8f691229aaacf324dd8d35a0b42]
entity TasksAPI--><ellipse cx="209" cy="68" fill="#FEFECE" filter="url(#f1j0t09v6sc2jd)" rx="8" ry="8" style="stroke: #A80036; stroke-width: 2.0;"/><text fill="#000000" font-family="sans-serif" font-size="14" lengthAdjust="spacingAndGlyphs" textLength="63" x="177.5" y="97.9951">TasksAPI</text><!--MD5=[71314f0abb86b1f8c65830bf18b7985f]
entity PythonTask--><rect fill="#FEFECE" filter="url(#f1j0t09v6sc2jd)" height="36.2969" style="stroke: #A80036; stroke-width: 1.5;" width="104" x="260" y="177"/><rect fill="#FEFECE" height="5" style="stroke: #A80036; stroke-width: 1.5;" width="10" x="255" y="182"/><rect fill="#FEFECE" height="5" style="stroke: #A80036; stroke-width: 1.5;" width="10" x="255" y="203.2969"/><text fill="#000000" font-family="sans-serif" font-size="14" lengthAdjust="spacingAndGlyphs" textLength="84" x="270" y="199.9951">PythonTask</text><!--MD5=[78c005af211dc881a9bcb46c6a9dd527]
entity JSONConfiguredPythonTask--><rect fill="#FEFECE" filter="url(#f1j0t09v6sc2jd)" height="36.2969" style="stroke: #A80036; stroke-width: 1.5;" width="217" x="249.5" y="305"/><rect fill="#FEFECE" height="5" style="stroke: #A80036; stroke-width: 1.5;" width="10" x="244.5" y="310"/><rect fill="#FEFECE" height="5" style="stroke: #A80036; stroke-width: 1.5;" width="10" x="244.5" y="331.2969"/><text fill="#000000" font-family="sans-serif" font-size="14" lengthAdjust="spacingAndGlyphs" textLength="197" x="259.5" y="327.9951">JSONConfiguredPythonTask</text><!--MD5=[654b3c96b9447c29b93065952dd9ce04]
entity RTask--><rect fill="#FEFECE" filter="url(#f1j0t09v6sc2jd)" height="36.2969" style="stroke: #A80036; stroke-width: 1.5;" width="63" x="71.5" y="177"/><rect fill="#FEFECE" height="5" style="stroke: #A80036; stroke-width: 1.5;" width="10" x="66.5" y="182"/><rect fill="#FEFECE" height="5" style="stroke: #A80036; stroke-width: 1.5;" width="10" x="66.5" y="203.2969"/><text fill="#000000" font-family="sans-serif" font-size="14" lengthAdjust="spacingAndGlyphs" textLength="43" x="81.5" y="199.9951">RTask</text><!--MD5=[b4bd6cb385b6f98b72f9a9fa094964b3]
entity JSONConfiguredRTask--><rect fill="#FEFECE" filter="url(#f1j0t09v6sc2jd)" height="36.2969" style="stroke: #A80036; stroke-width: 1.5;" width="176" x="38" y="305"/><rect fill="#FEFECE" height="5" style="stroke: #A80036; stroke-width: 1.5;" width="10" x="33" y="310"/><rect fill="#FEFECE" height="5" style="stroke: #A80036; stroke-width: 1.5;" width="10" x="33" y="331.2969"/><text fill="#000000" font-family="sans-serif" font-size="14" lengthAdjust="spacingAndGlyphs" textLength="156" x="48" y="327.9951">JSONConfiguredRTask</text><!--MD5=[95de2c953c602095bacd8574af0913ba]
reverse link PythonTask to JSONConfiguredPythonTask--><path d="M320.031,217.998 C329.068,242.752 343.557,282.4375 351.776,304.9528 " fill="none" id="PythonTask&lt;-JSONConfiguredPythonTask" style="stroke: #A80036; stroke-width: 1.0;"/><polygon fill="#A80036" points="318.3,213.256,317.6316,223.0822,320.0159,217.9523,325.1458,220.3366,318.3,213.256" style="stroke: #A80036; stroke-width: 1.0;"/><text fill="#000000" font-family="sans-serif" font-size="13" lengthAdjust="spacingAndGlyphs" textLength="155" x="341" y="256.0669">Adds JSON configuration</text><text fill="#000000" font-family="sans-serif" font-size="13" lengthAdjust="spacingAndGlyphs" textLength="115" x="363" y="271.1997">file to PythonTask</text><!--MD5=[6f4f8ee5d6445d94d82fc2fcc35c7619]
reverse link RTask to JSONConfiguredRTask--><path d="M103.5519,218.291 C104.2909,234.232 106.01,256.119 110,275 C112.138,285.12 115.788,296.0797 119.062,304.8682 " fill="none" id="RTask&lt;-JSONConfiguredRTask" style="stroke: #A80036; stroke-width: 1.0;"/><polygon fill="#A80036" points="103.337,213.126,99.7133,222.284,103.5441,218.1217,107.7064,221.9526,103.337,213.126" style="stroke: #A80036; stroke-width: 1.0;"/><text fill="#000000" font-family="sans-serif" font-size="13" lengthAdjust="spacingAndGlyphs" textLength="155" x="111" y="256.0669">Adds JSON configuration</text><text fill="#000000" font-family="sans-serif" font-size="13" lengthAdjust="spacingAndGlyphs" textLength="115" x="133" y="271.1997">file to PythonTask</text><!--MD5=[5689266f3ad8e1df2f0671935df3472d]
reverse link TasksAPI to PythonTask--><path d="M223.205,73.984 C238.62,80.053 263.028,91.685 278,109 C295.153,128.837 304.319,158.414 308.668,176.934 " fill="none" id="TasksAPI&lt;-PythonTask" style="stroke: #A80036; stroke-width: 1.0;"/><polygon fill="#A80036" points="218.349,72.139,225.3418,79.0744,223.0231,73.9146,228.1829,71.5959,218.349,72.139" style="stroke: #A80036; stroke-width: 1.0;"/><text fill="#000000" font-family="sans-serif" font-size="13" lengthAdjust="spacingAndGlyphs" textLength="210" x="290" y="122.0669">Implements Python-based Tasks</text><!--MD5=[bea4353e7b40c4a64aa4adee3ce89cd0]
reverse link TasksAPI to RTask--><path d="M194.513,69.084 C169.158,70.11 117.23,76.325 94,109 C79.8126,128.956 87.6524,158.498 95.0188,176.979 " fill="none" id="TasksAPI&lt;-RTask" style="stroke: #A80036; stroke-width: 1.0;"/><polygon fill="#A80036" points="199.786,68.93,190.6733,65.1939,194.7881,69.0757,190.9064,73.1906,199.786,68.93" style="stroke: #A80036; stroke-width: 1.0;"/><text fill="#000000" font-family="sans-serif" font-size="13" lengthAdjust="spacingAndGlyphs" textLength="174" x="95" y="122.0669">Implements R-based Tasks</text><!--MD5=[8dbe98823bf1ad996a36515663750705]
@startuml
package "idmtools-core" as registry {
    () "TasksAPI" as TasksAPI
}

package "idmtools-models" as models {
    [PythonTask]
    [JSONConfiguredPythonTask]
    [RTask]
    [JSONConfiguredRTask]
    PythonTask <- - JSONConfiguredPythonTask: Adds JSON configuration\n file to PythonTask
    RTask <- - JSONConfiguredRTask: Adds JSON configuration\n file to PythonTask
}

TasksAPI <- - PythonTask: Implements Python-based Tasks
TasksAPI <- RTask : Implements R-based Tasks
@enduml

PlantUML version 1.2020.11(Sat May 30 10:13:43 UTC 2020)
(GPL source distribution)
Java Runtime: Java(TM) SE Runtime Environment
JVM: Java HotSpot(TM) 64-Bit Server VM
Default Encoding: UTF-8
Language: en
Country: US
--></g></svg>