<?xml version="1.0" encoding="UTF-8" standalone="no"?><svg xmlns="http://www.w3.org/2000/svg" xmlns:xlink="http://www.w3.org/1999/xlink" contentScriptType="application/ecmascript" contentStyleType="text/css" height="260px" preserveAspectRatio="none" style="width:700px;height:260px;" version="1.1" viewBox="0 0 700 260" width="700px" zoomAndPan="magnify"><defs><filter height="300%" id="f1otlmqchdgrtn" width="300%" x="-1" y="-1"><feGaussianBlur result="blurOut" stdDeviation="2.0"/><feColorMatrix in="blurOut" result="blurOut2" type="matrix" values="0 0 0 0 0 0 0 0 0 0 0 0 0 0 0 0 0 0 .4 0"/><feOffset dx="4.0" dy="4.0" in="blurOut2" result="blurOut3"/><feBlend in="SourceGraphic" in2="blurOut3" mode="normal"/></filter></defs><g><!--MD5=[e3a89b72019d8d69b73b0a9ebb84eda6]
cluster cli--><polygon fill="#FFFFFF" filter="url(#f1otlmqchdgrtn)" points="22,35,125,35,132,57.2969,149,57.2969,149,122,22,122,22,35" style="stroke: #000000; stroke-width: 1.5;"/><line style="stroke: #000000; stroke-width: 1.5;" x1="22" x2="132" y1="57.2969" y2="57.2969"/><text fill="#000000" font-family="sans-serif" font-size="14" font-weight="bold" lengthAdjust="spacingAndGlyphs" textLength="97" x="26" y="49.9951">idmtools-cli</text><!--MD5=[272379cf1f80536b6294ad33393ecec2]
cluster registry--><polygon fill="#FFFFFF" filter="url(#f1otlmqchdgrtn)" points="516,24,635,24,642,46.2969,650,46.2969,650,133,516,133,516,24" style="stroke: #000000; stroke-width: 1.5;"/><line style="stroke: #000000; stroke-width: 1.5;" x1="516" x2="642" y1="46.2969" y2="46.2969"/><text fill="#000000" font-family="sans-serif" font-size="14" font-weight="bold" lengthAdjust="spacingAndGlyphs" textLength="113" x="520" y="38.9951">idmtools-core</text><!--MD5=[8a509646a725e4b29ac3346bf48b9d0c]
cluster local--><polygon fill="#FFFFFF" filter="url(#f1otlmqchdgrtn)" points="281,35,482,35,489,57.2969,492,57.2969,492,248,281,248,281,35" style="stroke: #000000; stroke-width: 1.5;"/><line style="stroke: #000000; stroke-width: 1.5;" x1="281" x2="489" y1="57.2969" y2="57.2969"/><text fill="#000000" font-family="sans-serif" font-size="14" font-weight="bold" lengthAdjust="spacingAndGlyphs" textLength="195" x="285" y="49.9951">idmtools-platform-local</text><!--MD5=[df6a39b053164d23cc3ecae9c3484a54]
entity CLI--><rect fill="#FEFECE" filter="url(#f1otlmqchdgrtn)" height="36.2969" style="stroke: #A80036; stroke-width: 1.5;" width="42" x="38" y="70"/><rect fill="#FEFECE" height="5" style="stroke: #A80036; stroke-width: 1.5;" width="10" x="33" y="75"/><rect fill="#FEFECE" height="5" style="stroke: #A80036; stroke-width: 1.5;" width="10" x="33" y="96.2969"/><text fill="#000000" font-family="sans-serif" font-size="14" lengthAdjust="spacingAndGlyphs" textLength="22" x="48" y="92.9951">CLI</text><!--MD5=[2d9774aa1acd34f2b66b18a2301fe88b]
entity cli_api--><ellipse cx="124" cy="88" fill="#FEFECE" filter="url(#f1otlmqchdgrtn)" rx="8" ry="8" style="stroke: #A80036; stroke-width: 2.0;"/><text fill="#000000" font-family="sans-serif" font-size="14" lengthAdjust="spacingAndGlyphs" textLength="49" x="99.5" y="117.9951">CLI API</text><!--MD5=[5df59aa2065c15f87b95d8b2badd43a6]
entity PlatformAPI--><ellipse cx="583" cy="88" fill="#FEFECE" filter="url(#f1otlmqchdgrtn)" rx="8" ry="8" style="stroke: #A80036; stroke-width: 2.0;"/><text fill="#000000" font-family="sans-serif" font-size="14" lengthAdjust="spacingAndGlyphs" textLength="86" x="540" y="117.9951">PlatformAPI</text><!--MD5=[55f6dbe904984446c2e17a5a2235035a]
entity LocalPlatform--><rect fill="#FEFECE" filter="url(#f1otlmqchdgrtn)" height="36.2969" style="stroke: #A80036; stroke-width: 1.5;" width="120" x="345" y="196"/><rect fill="#FEFECE" height="5" style="stroke: #A80036; stroke-width: 1.5;" width="10" x="340" y="201"/><rect fill="#FEFECE" height="5" style="stroke: #A80036; stroke-width: 1.5;" width="10" x="340" y="222.2969"/><text fill="#000000" font-family="sans-serif" font-size="14" lengthAdjust="spacingAndGlyphs" textLength="100" x="355" y="218.9951">LocalPlatform</text><!--MD5=[b0df9fe075fb6157eb6b7601b8c8f7b9]
entity LocalPlatformCLI--><rect fill="#FEFECE" filter="url(#f1otlmqchdgrtn)" height="36.2969" style="stroke: #A80036; stroke-width: 1.5;" width="142" x="334" y="70"/><rect fill="#FEFECE" height="5" style="stroke: #A80036; stroke-width: 1.5;" width="10" x="329" y="75"/><rect fill="#FEFECE" height="5" style="stroke: #A80036; stroke-width: 1.5;" width="10" x="329" y="96.2969"/><text fill="#000000" font-family="sans-serif" font-size="14" lengthAdjust="spacingAndGlyphs" textLength="122" x="344" y="92.9951">LocalPlatformCLI</text><!--MD5=[626a1111791783c1cd0901f34a1556fa]
link PlatformAPI to LocalPlatform--><path d="M569.506,98.401 C540.666,118.491 472.493,165.9827 433.562,193.1028 " fill="none" id="PlatformAPI-LocalPlatform" style="stroke: #A80036; stroke-width: 1.0;"/><polygon fill="#A80036" points="429.426,195.9839,439.0975,194.123,433.5291,193.1265,434.5256,187.5581,429.426,195.9839" style="stroke: #A80036; stroke-width: 1.0;"/><polygon fill="#A80036" points="573.928,95.32,564.2569,97.183,569.8255,98.1783,568.8302,103.7469,573.928,95.32" style="stroke: #A80036; stroke-width: 1.0;"/><text fill="#000000" font-family="sans-serif" font-size="13" lengthAdjust="spacingAndGlyphs" textLength="193" x="495" y="162.0669">LocalPlatform Implementation</text><!--MD5=[78de9c51578464c19ef48d8ebb8f7e18]
link cli_api to LocalPlatformCLI--><path d="M138.19,88 C172.657,88 262.799,88 328.802,88 " fill="none" id="cli_api-LocalPlatformCLI" style="stroke: #A80036; stroke-width: 1.0; stroke-dasharray: 7.0,7.0;"/><polygon fill="#A80036" points="333.91,88,324.91,84,328.91,88,324.91,92,333.91,88" style="stroke: #A80036; stroke-width: 1.0;"/><polygon fill="#A80036" points="133.031,88,142.031,92,138.031,88,142.031,84,133.031,88" style="stroke: #A80036; stroke-width: 1.0;"/><text fill="#000000" font-family="sans-serif" font-size="13" lengthAdjust="spacingAndGlyphs" textLength="164" x="151.5" y="81.0669">idmtools local commands</text><!--MD5=[658114fe877839abac81fa0ed0d92059]
link LocalPlatformCLI to LocalPlatform--><path d="M394.954,111.197 C391.352,133.673 391.349,168.2396 394.944,190.7387 " fill="none" id="LocalPlatformCLI-LocalPlatform" style="stroke: #A80036; stroke-width: 1.0;"/><polygon fill="#A80036" points="395.878,195.9048,398.2128,186.3367,394.9884,190.9846,390.3405,187.7601,395.878,195.9048" style="stroke: #A80036; stroke-width: 1.0;"/><polygon fill="#A80036" points="395.848,106.242,390.3125,114.3881,394.9596,111.1624,398.1852,115.8095,395.848,106.242" style="stroke: #A80036; stroke-width: 1.0;"/><!--MD5=[94581a2f3320fb544f94d1cc60a0e352]
link LocalPlatform to LocalPlatformCLI--><!--MD5=[8841f522b68f94ee4c76d4f55df61cf5]
@startuml
package "idmtools-cli" as cli {
    [CLI]
    () "CLI API" as cli_api
}

package "idmtools-core" as registry {
    () "PlatformAPI" as PlatformAPI
}

package "idmtools-platform-local" as local {
    [LocalPlatform]
    [LocalPlatformCLI]
}

PlatformAPI <-down-> LocalPlatform : LocalPlatform Implementation
cli_api <.> LocalPlatformCLI : idmtools local commands
LocalPlatformCLI <- -> LocalPlatform
LocalPlatform -[hidden]- LocalPlatformCLI
@enduml

PlantUML version 1.2020.10(Sun May 17 09:48:49 UTC 2020)
(GPL source distribution)
Java Runtime: Java(TM) SE Runtime Environment
JVM: Java HotSpot(TM) 64-Bit Server VM
Operating System: Linux
Default Encoding: UTF-8
Language: en
Country: US
--></g></svg>