<?xml version="1.0" encoding="UTF-8" standalone="no"?><svg xmlns="http://www.w3.org/2000/svg" xmlns:xlink="http://www.w3.org/1999/xlink" contentScriptType="application/ecmascript" contentStyleType="text/css" height="306px" preserveAspectRatio="none" style="width:846px;height:306px;" version="1.1" viewBox="0 0 846 306" width="846px" zoomAndPan="magnify"><defs><filter height="300%" id="f10xip8qwks1hd" width="300%" x="-1" y="-1"><feGaussianBlur result="blurOut" stdDeviation="2.0"/><feColorMatrix in="blurOut" result="blurOut2" type="matrix" values="0 0 0 0 0 0 0 0 0 0 0 0 0 0 0 0 0 0 .4 0"/><feOffset dx="4.0" dy="4.0" in="blurOut2" result="blurOut3"/><feBlend in="SourceGraphic" in2="blurOut3" mode="normal"/></filter></defs><g><!--MD5=[18e0cda30f73ac5722c6ca9bf3c84e2e]
entity idmtools--><rect fill="#FEFECE" filter="url(#f10xip8qwks1hd)" height="36.2969" style="stroke: #A80036; stroke-width: 1.5;" width="83" x="433.5" y="133"/><rect fill="#FEFECE" height="5" style="stroke: #A80036; stroke-width: 1.5;" width="10" x="428.5" y="138"/><rect fill="#FEFECE" height="5" style="stroke: #A80036; stroke-width: 1.5;" width="10" x="428.5" y="159.2969"/><text fill="#000000" font-family="sans-serif" font-size="14" lengthAdjust="spacingAndGlyphs" textLength="63" x="443.5" y="155.9951">idmtools</text><path d="M552,108 L552,147 L516.82,151 L552,155 L552,193.6641 A0,0 0 0 0 552,193.6641 L802,193.6641 A0,0 0 0 0 802,193.6641 L802,118 L792,108 L552,108 A0,0 0 0 0 552,108 " fill="#FBFB77" filter="url(#f10xip8qwks1hd)" style="stroke: #A80036; stroke-width: 1.0;"/><path d="M792,108 L792,118 L802,118 L792,108 " fill="#FBFB77" style="stroke: #A80036; stroke-width: 1.0;"/><text fill="#000000" font-family="sans-serif" font-size="13" lengthAdjust="spacingAndGlyphs" textLength="216" x="558" y="125.0669">Provides Plugin Infrastructure and</text><text fill="#000000" font-family="sans-serif" font-size="13" lengthAdjust="spacingAndGlyphs" textLength="203" x="558" y="140.1997">common APIS like Experiments,</text><text fill="#000000" font-family="sans-serif" font-size="13" lengthAdjust="spacingAndGlyphs" textLength="202" x="558" y="155.3325">Simulations, Suites, Workitems,</text><text fill="#000000" font-family="sans-serif" font-size="13" lengthAdjust="spacingAndGlyphs" textLength="228" x="558" y="170.4653">Tasks, and Platforms. Also contains</text><text fill="#000000" font-family="sans-serif" font-size="13" lengthAdjust="spacingAndGlyphs" textLength="229" x="558" y="185.5981">tools for building Simulations in bulk</text><!--MD5=[d81fc142acf7a269b9935adf33a44c7d]
entity idmtools-cli--><rect fill="#FEFECE" filter="url(#f10xip8qwks1hd)" height="36.2969" style="stroke: #A80036; stroke-width: 1.5;" width="105" x="343.5" y="10"/><rect fill="#FEFECE" height="5" style="stroke: #A80036; stroke-width: 1.5;" width="10" x="338.5" y="15"/><rect fill="#FEFECE" height="5" style="stroke: #A80036; stroke-width: 1.5;" width="10" x="338.5" y="36.2969"/><text fill="#000000" font-family="sans-serif" font-size="14" lengthAdjust="spacingAndGlyphs" textLength="85" x="353.5" y="32.9951">idmtools-cli</text><path d="M161.5,8 L161.5,48.2656 A0,0 0 0 0 161.5,48.2656 L308.5,48.2656 A0,0 0 0 0 308.5,48.2656 L308.5,32 L343.413,28 L308.5,24 L308.5,18 L298.5,8 L161.5,8 A0,0 0 0 0 161.5,8 " fill="#FBFB77" filter="url(#f10xip8qwks1hd)" style="stroke: #A80036; stroke-width: 1.0;"/><path d="M298.5,8 L298.5,18 L308.5,18 L298.5,8 " fill="#FBFB77" style="stroke: #A80036; stroke-width: 1.0;"/><text fill="#000000" font-family="sans-serif" font-size="13" lengthAdjust="spacingAndGlyphs" textLength="125" x="167.5" y="25.0669">Provides the CLI for</text><text fill="#000000" font-family="sans-serif" font-size="13" lengthAdjust="spacingAndGlyphs" textLength="126" x="167.5" y="40.1997">idmtools. (Optional)</text><!--MD5=[48de66e59a328d9225ceb0bd55c9bb29]
entity idmtools-models--><rect fill="#FEFECE" filter="url(#f10xip8qwks1hd)" height="36.2969" style="stroke: #A80036; stroke-width: 1.5;" width="141" x="483.5" y="10"/><rect fill="#FEFECE" height="5" style="stroke: #A80036; stroke-width: 1.5;" width="10" x="478.5" y="15"/><rect fill="#FEFECE" height="5" style="stroke: #A80036; stroke-width: 1.5;" width="10" x="478.5" y="36.2969"/><text fill="#000000" font-family="sans-serif" font-size="14" lengthAdjust="spacingAndGlyphs" textLength="121" x="493.5" y="32.9951">idmtools-models</text><path d="M659.5,8 L659.5,24 L624.867,28 L659.5,32 L659.5,48.2656 A0,0 0 0 0 659.5,48.2656 L834.5,48.2656 A0,0 0 0 0 834.5,48.2656 L834.5,18 L824.5,8 L659.5,8 A0,0 0 0 0 659.5,8 " fill="#FBFB77" filter="url(#f10xip8qwks1hd)" style="stroke: #A80036; stroke-width: 1.0;"/><path d="M824.5,8 L824.5,18 L834.5,18 L824.5,8 " fill="#FBFB77" style="stroke: #A80036; stroke-width: 1.0;"/><text fill="#000000" font-family="sans-serif" font-size="13" lengthAdjust="spacingAndGlyphs" textLength="154" x="665.5" y="25.0669">Provides common tasks</text><text fill="#000000" font-family="sans-serif" font-size="13" lengthAdjust="spacingAndGlyphs" textLength="108" x="669.5" y="40.1997">for Python and R</text><!--MD5=[9c745974f04ed06c06fcc37d0b8ce56f]
entity idmtools-platform-comps--><rect fill="#FEFECE" filter="url(#f10xip8qwks1hd)" height="36.2969" style="stroke: #A80036; stroke-width: 1.5;" width="207" x="191.5" y="133"/><rect fill="#FEFECE" height="5" style="stroke: #A80036; stroke-width: 1.5;" width="10" x="186.5" y="138"/><rect fill="#FEFECE" height="5" style="stroke: #A80036; stroke-width: 1.5;" width="10" x="186.5" y="159.2969"/><text fill="#000000" font-family="sans-serif" font-size="14" lengthAdjust="spacingAndGlyphs" textLength="187" x="201.5" y="155.9951">idmtools-platform-comps</text><path d="M6,131 L6,171.2656 A0,0 0 0 0 6,171.2656 L156,171.2656 A0,0 0 0 0 156,171.2656 L156,155 L191.468,151 L156,147 L156,141 L146,131 L6,131 A0,0 0 0 0 6,131 " fill="#FBFB77" filter="url(#f10xip8qwks1hd)" style="stroke: #A80036; stroke-width: 1.0;"/><path d="M146,131 L146,141 L156,141 L146,131 " fill="#FBFB77" style="stroke: #A80036; stroke-width: 1.0;"/><text fill="#000000" font-family="sans-serif" font-size="13" lengthAdjust="spacingAndGlyphs" textLength="114" x="12" y="148.0669">Provides ability to</text><text fill="#000000" font-family="sans-serif" font-size="13" lengthAdjust="spacingAndGlyphs" textLength="129" x="12" y="163.1997">interact with COMPS</text><!--MD5=[5b99558ca566e47ac8017019bc5bd800]
entity idmtools-platform-local--><rect fill="#FEFECE" filter="url(#f10xip8qwks1hd)" height="36.2969" style="stroke: #A80036; stroke-width: 1.5;" width="192" x="379" y="256"/><rect fill="#FEFECE" height="5" style="stroke: #A80036; stroke-width: 1.5;" width="10" x="374" y="261"/><rect fill="#FEFECE" height="5" style="stroke: #A80036; stroke-width: 1.5;" width="10" x="374" y="282.2969"/><text fill="#000000" font-family="sans-serif" font-size="14" lengthAdjust="spacingAndGlyphs" textLength="172" x="389" y="278.9951">idmtools-platform-local</text><path d="M124.5,254 L124.5,294.2656 A0,0 0 0 0 124.5,294.2656 L343.5,294.2656 A0,0 0 0 0 343.5,294.2656 L343.5,278 L378.814,274 L343.5,270 L343.5,264 L333.5,254 L124.5,254 A0,0 0 0 0 124.5,254 " fill="#FBFB77" filter="url(#f10xip8qwks1hd)" style="stroke: #A80036; stroke-width: 1.0;"/><path d="M333.5,254 L333.5,264 L343.5,264 L333.5,254 " fill="#FBFB77" style="stroke: #A80036; stroke-width: 1.0;"/><text fill="#000000" font-family="sans-serif" font-size="13" lengthAdjust="spacingAndGlyphs" textLength="139" x="130.5" y="271.0669">Provides ability to run</text><text fill="#000000" font-family="sans-serif" font-size="13" lengthAdjust="spacingAndGlyphs" textLength="198" x="130.5" y="286.1997">locally using Docker containers</text><!--MD5=[f3e4c595aabc74860a442666101b744f]
link idmtools-cli to idmtools--><path d="M407.151,46.08 C421.245,67.667 445.517,104.842 460.888,128.385 " fill="none" id="idmtools-cli-&gt;idmtools" style="stroke: #A80036; stroke-width: 1.0;"/><polygon fill="#A80036" points="463.65,132.615,462.0806,122.892,460.9172,128.4279,455.3813,127.2645,463.65,132.615" style="stroke: #A80036; stroke-width: 1.0;"/><!--MD5=[8aa5f3bcec73aaf41ac40fe3f9c475da]
link idmtools-models to idmtools--><path d="M542.849,46.08 C528.755,67.667 504.483,104.842 489.112,128.385 " fill="none" id="idmtools-models-&gt;idmtools" style="stroke: #A80036; stroke-width: 1.0;"/><polygon fill="#A80036" points="486.35,132.615,494.6187,127.2645,489.0828,128.4279,487.9194,122.892,486.35,132.615" style="stroke: #A80036; stroke-width: 1.0;"/><!--MD5=[12601bca6d00bb52d45f7b5f74140434]
link idmtools-platform-comps to idmtools--><path d="M398.711,151 C408.523,151 418.336,151 428.148,151 " fill="none" id="idmtools-platform-comps-&gt;idmtools" style="stroke: #A80036; stroke-width: 1.0;"/><polygon fill="#A80036" points="433.279,151,424.279,147,428.279,151,424.279,155,433.279,151" style="stroke: #A80036; stroke-width: 1.0;"/><!--MD5=[237ff08c58a06a7ec220f3d1c714d5ad]
reverse link idmtools to idmtools-platform-local--><path d="M475,174.165 C475,197.6223 475,234.1532 475,255.6154 " fill="none" id="idmtools&lt;-idmtools-platform-local" style="stroke: #A80036; stroke-width: 1.0;"/><polygon fill="#A80036" points="475,169.08,471,178.08,475,174.08,479,178.08,475,169.08" style="stroke: #A80036; stroke-width: 1.0;"/><!--MD5=[51309e9ab50278a23fdf3aa7f57d63e4]
@startuml
[idmtools]
note right of idmtools
Provides Plugin Infrastructure and
common APIS like Experiments,
Simulations, Suites, Workitems,
Tasks, and Platforms. Also contains
tools for building Simulations in bulk
end note
[idmtools-cli]
note left of [idmtools-cli]
    Provides the CLI for
    idmtools. (Optional)
end note
[idmtools-models]
note right of [idmtools-models]
    Provides common tasks
     for Python and R
end note
[idmtools-platform-comps]
note left of [idmtools-platform-comps]
    Provides ability to
    interact with COMPS
end note
[idmtools-platform-local]
note left of [idmtools-platform-local]
    Provides ability to run
    locally using Docker containers
end note

[idmtools-cli] - -> [idmtools]
[idmtools-models] - -> [idmtools]
[idmtools-platform-comps] -> idmtools
[idmtools-platform-local] -up-> idmtools
@enduml

PlantUML version 1.2020.11beta3(Unknown compile time)
(GPL source distribution)
Java Runtime: Java(TM) SE Runtime Environment
JVM: Java HotSpot(TM) 64-Bit Server VM
Default Encoding: UTF-8
Language: en
Country: US
--></g></svg>