<?xml version="1.0" encoding="UTF-8" standalone="no"?><svg xmlns="http://www.w3.org/2000/svg" xmlns:xlink="http://www.w3.org/1999/xlink" contentScriptType="application/ecmascript" contentStyleType="text/css" height="281px" preserveAspectRatio="none" style="width:148px;height:281px;" version="1.1" viewBox="0 0 148 281" width="148px" zoomAndPan="magnify"><defs><filter height="300%" id="f1xb368jde018k" width="300%" x="-1" y="-1"><feGaussianBlur result="blurOut" stdDeviation="2.0"/><feColorMatrix in="blurOut" result="blurOut2" type="matrix" values="0 0 0 0 0 0 0 0 0 0 0 0 0 0 0 0 0 0 .4 0"/><feOffset dx="4.0" dy="4.0" in="blurOut2" result="blurOut3"/><feBlend in="SourceGraphic" in2="blurOut3" mode="normal"/></filter></defs><g><!--MD5=[733ae57ad73ddca760861ab983f10ac6]
class IAnalyzer--><rect fill="#FEFECE" filter="url(#f1xb368jde018k)" height="48" id="IAnalyzer" style="stroke: #A80036; stroke-width: 1.5;" width="87" x="28" y="6"/><ellipse cx="43" cy="22" fill="#A9DCDF" rx="11" ry="11" style="stroke: #A80036; stroke-width: 1.0;"/><path d="M45.0781,23.8125 L45.4688,24.7969 L45.0781,24.7969 C44.625,24.7969 44.5156,24.8125 44.3594,24.9219 C44.1094,25.0781 43.9531,25.3594 43.9531,25.6563 C43.9531,25.9219 44.0938,26.1719 44.3125,26.3281 C44.4531,26.4531 44.6563,26.5 45.0781,26.5 L47.4375,26.5 C47.7969,26.5 48.0156,26.4688 48.1563,26.375 C48.4063,26.2344 48.5625,25.9375 48.5625,25.6563 C48.5625,25.375 48.4219,25.125 48.2031,24.9688 C48.0313,24.8281 47.875,24.7969 47.4063,24.7969 L44.0156,16.5938 L40.3438,16.5938 C39.8906,16.5938 39.7656,16.6094 39.6094,16.7031 C39.3594,16.875 39.2031,17.1563 39.2031,17.4375 C39.2031,17.7188 39.3438,17.9688 39.5625,18.1406 C39.7344,18.25 39.9063,18.2813 40.3438,18.2813 L41.4219,18.2813 L38.7813,24.7969 C38.3594,24.7969 38.2031,24.8125 38.0469,24.9219 C37.7969,25.0781 37.6406,25.3594 37.6406,25.6563 C37.6406,26.2188 38.0156,26.5 38.7656,26.5 L41.0313,26.5 C41.3906,26.5 41.6094,26.4688 41.7344,26.375 C42,26.2344 42.1406,25.9375 42.1406,25.6563 C42.1406,25.375 42.0156,25.125 41.7969,24.9531 C41.625,24.8281 41.4844,24.7969 41.0313,24.7969 L40.6406,24.7969 L41.0313,23.8125 L45.0781,23.8125 Z M44.375,22.1094 L41.7031,22.1094 L43.0469,18.8438 L44.375,22.1094 Z "/><text fill="#000000" font-family="sans-serif" font-size="12" font-style="italic" lengthAdjust="spacingAndGlyphs" textLength="55" x="57" y="26.1543">IAnalyzer</text><line style="stroke: #A80036; stroke-width: 1.5;" x1="29" x2="114" y1="38" y2="38"/><line style="stroke: #A80036; stroke-width: 1.5;" x1="29" x2="114" y1="46" y2="46"/><!--MD5=[0f6d9d47ca6e8beb0f87b5151c1dad25]
class Analyzers--><rect fill="#FEFECE" filter="url(#f1xb368jde018k)" height="48" id="Analyzers" style="stroke: #A80036; stroke-width: 1.5;" width="91" x="26" y="114"/><ellipse cx="41" cy="130" fill="#ADD1B2" rx="11" ry="11" style="stroke: #A80036; stroke-width: 1.0;"/><path d="M43.3438,125.6719 C42.4063,125.2344 41.8125,125.0938 40.9375,125.0938 C38.3125,125.0938 36.3125,127.1719 36.3125,129.8906 L36.3125,131.0156 C36.3125,133.5938 38.4219,135.4844 41.3125,135.4844 C42.5313,135.4844 43.6875,135.1875 44.4375,134.6406 C45.0156,134.2344 45.3438,133.7813 45.3438,133.3906 C45.3438,132.9375 44.9531,132.5469 44.4844,132.5469 C44.2656,132.5469 44.0625,132.625 43.875,132.8125 C43.4219,133.2969 43.4219,133.2969 43.2344,133.3906 C42.8125,133.6563 42.125,133.7813 41.3594,133.7813 C39.3125,133.7813 38.0156,132.6875 38.0156,130.9844 L38.0156,129.8906 C38.0156,128.1094 39.2656,126.7969 41,126.7969 C41.5781,126.7969 42.1875,126.9531 42.6563,127.2031 C43.1406,127.4844 43.3125,127.7031 43.4063,128.1094 C43.4688,128.5156 43.5,128.6406 43.6406,128.7656 C43.7813,128.9063 44.0156,129.0156 44.2344,129.0156 C44.5,129.0156 44.7656,128.875 44.9375,128.6563 C45.0469,128.5 45.0781,128.3125 45.0781,127.8906 L45.0781,126.4688 C45.0781,126.0313 45.0625,125.9063 44.9688,125.75 C44.8125,125.4844 44.5313,125.3438 44.2344,125.3438 C43.9375,125.3438 43.7344,125.4375 43.5156,125.75 L43.3438,125.6719 Z "/><text fill="#000000" font-family="sans-serif" font-size="12" lengthAdjust="spacingAndGlyphs" textLength="59" x="55" y="134.1543">Analyzers</text><line style="stroke: #A80036; stroke-width: 1.5;" x1="27" x2="116" y1="146" y2="146"/><line style="stroke: #A80036; stroke-width: 1.5;" x1="27" x2="116" y1="154" y2="154"/><!--MD5=[7b39174e62fbc42083969b7083bb2aa3]
class AnalyzeManager--><rect fill="#FEFECE" filter="url(#f1xb368jde018k)" height="48" id="AnalyzeManager" style="stroke: #A80036; stroke-width: 1.5;" width="131" x="6" y="222"/><ellipse cx="21" cy="238" fill="#ADD1B2" rx="11" ry="11" style="stroke: #A80036; stroke-width: 1.0;"/><path d="M23.3438,233.6719 C22.4063,233.2344 21.8125,233.0938 20.9375,233.0938 C18.3125,233.0938 16.3125,235.1719 16.3125,237.8906 L16.3125,239.0156 C16.3125,241.5938 18.4219,243.4844 21.3125,243.4844 C22.5313,243.4844 23.6875,243.1875 24.4375,242.6406 C25.0156,242.2344 25.3438,241.7813 25.3438,241.3906 C25.3438,240.9375 24.9531,240.5469 24.4844,240.5469 C24.2656,240.5469 24.0625,240.625 23.875,240.8125 C23.4219,241.2969 23.4219,241.2969 23.2344,241.3906 C22.8125,241.6563 22.125,241.7813 21.3594,241.7813 C19.3125,241.7813 18.0156,240.6875 18.0156,238.9844 L18.0156,237.8906 C18.0156,236.1094 19.2656,234.7969 21,234.7969 C21.5781,234.7969 22.1875,234.9531 22.6563,235.2031 C23.1406,235.4844 23.3125,235.7031 23.4063,236.1094 C23.4688,236.5156 23.5,236.6406 23.6406,236.7656 C23.7813,236.9063 24.0156,237.0156 24.2344,237.0156 C24.5,237.0156 24.7656,236.875 24.9375,236.6563 C25.0469,236.5 25.0781,236.3125 25.0781,235.8906 L25.0781,234.4688 C25.0781,234.0313 25.0625,233.9063 24.9688,233.75 C24.8125,233.4844 24.5313,233.3438 24.2344,233.3438 C23.9375,233.3438 23.7344,233.4375 23.5156,233.75 L23.3438,233.6719 Z "/><text fill="#000000" font-family="sans-serif" font-size="12" lengthAdjust="spacingAndGlyphs" textLength="99" x="35" y="242.1543">AnalyzeManager</text><line style="stroke: #A80036; stroke-width: 1.5;" x1="7" x2="136" y1="254" y2="254"/><line style="stroke: #A80036; stroke-width: 1.5;" x1="7" x2="136" y1="262" y2="262"/><!--MD5=[ea88932d48c55f5cf89060b3f9d460a6]
reverse link IAnalyzer to Analyzers--><path d="M71.5,74.024 C71.5,87.579 71.5,102.038 71.5,113.678 " fill="none" id="IAnalyzer&lt;-Analyzers" style="stroke: #A80036; stroke-width: 1.0;"/><polygon fill="none" points="64.5001,74,71.5,54,78.5001,74,64.5001,74" style="stroke: #A80036; stroke-width: 1.0;"/><!--MD5=[2416977da3d93036374e4636f0e8419d]
reverse link Analyzers to AnalyzeManager--><path d="M71.5,175.3383 C71.5,190.6813 71.5,208.098 71.5,221.6784 " fill="none" id="Analyzers&lt;-AnalyzeManager" style="stroke: #A80036; stroke-width: 1.0;"/><polygon fill="#A80036" points="71.5,162,67.5,168,71.5,174,75.5,168,71.5,162" style="stroke: #A80036; stroke-width: 1.0;"/><!--MD5=[d758ee5e1fc5236341b3864ad163b390]
@startuml
abstract class IAnalyzer        
IAnalyzer <|- - Analyzers
Analyzers *- - AnalyzeManager
@enduml

PlantUML version 1.2020.12(Sat Jun 06 10:54:15 UTC 2020)
(GPL source distribution)
Java Runtime: Java(TM) SE Runtime Environment
JVM: Java HotSpot(TM) 64-Bit Server VM
Default Encoding: UTF-8
Language: en
Country: US
--></g></svg>