<?xml version="1.0" encoding="UTF-8" standalone="no"?><svg xmlns="http://www.w3.org/2000/svg" xmlns:xlink="http://www.w3.org/1999/xlink" contentScriptType="application/ecmascript" contentStyleType="text/css" height="328px" preserveAspectRatio="none" style="width:637px;height:328px;" version="1.1" viewBox="0 0 637 328" width="637px" zoomAndPan="magnify"><defs><filter height="300%" id="f19tyge2xayoon" width="300%" x="-1" y="-1"><feGaussianBlur result="blurOut" stdDeviation="2.0"/><feColorMatrix in="blurOut" result="blurOut2" type="matrix" values="0 0 0 0 0 0 0 0 0 0 0 0 0 0 0 0 0 0 .4 0"/><feOffset dx="4.0" dy="4.0" in="blurOut2" result="blurOut3"/><feBlend in="SourceGraphic" in2="blurOut3" mode="normal"/></filter></defs><g><!--MD5=[b7f44e7cad61e6c59cb00d03cd3ccdfb]
cluster idmtools--><polygon fill="#FFFFFF" filter="url(#f19tyge2xayoon)" points="16,6,94,6,101,28.2969,381,28.2969,381,316,16,316,16,6" style="stroke: #000000; stroke-width: 1.5;"/><line style="stroke: #000000; stroke-width: 1.5;" x1="16" x2="101" y1="28.2969" y2="28.2969"/><text fill="#000000" font-family="sans-serif" font-size="14" font-weight="bold" lengthAdjust="spacingAndGlyphs" textLength="72" x="20" y="20.9951">idmtools</text><!--MD5=[e3a89b72019d8d69b73b0a9ebb84eda6]
cluster cli--><polygon fill="#FFFFFF" filter="url(#f19tyge2xayoon)" points="405,191,430,191,437,213.2969,615,213.2969,615,316,405,316,405,191" style="stroke: #000000; stroke-width: 1.5;"/><line style="stroke: #000000; stroke-width: 1.5;" x1="405" x2="437" y1="213.2969" y2="213.2969"/><text fill="#000000" font-family="sans-serif" font-size="14" font-weight="bold" lengthAdjust="spacingAndGlyphs" textLength="19" x="409" y="205.9951">cli</text><!--MD5=[f08d0d4416d5e2e082482f9bb79a820d]
class PluginSpecification--><rect codeLine="2" fill="#FEFECE" filter="url(#f19tyge2xayoon)" height="124.8281" id="PluginSpecification" style="stroke: #A80036; stroke-width: 1.5;" width="325" x="39.5" y="41"/><ellipse cx="142.25" cy="57" fill="#ADD1B2" rx="11" ry="11" style="stroke: #A80036; stroke-width: 1.0;"/><path d="M144.5938,52.6719 C143.6563,52.2344 143.0625,52.0938 142.1875,52.0938 C139.5625,52.0938 137.5625,54.1719 137.5625,56.8906 L137.5625,58.0156 C137.5625,60.5938 139.6719,62.4844 142.5625,62.4844 C143.7813,62.4844 144.9375,62.1875 145.6875,61.6406 C146.2656,61.2344 146.5938,60.7813 146.5938,60.3906 C146.5938,59.9375 146.2031,59.5469 145.7344,59.5469 C145.5156,59.5469 145.3125,59.625 145.125,59.8125 C144.6719,60.2969 144.6719,60.2969 144.4844,60.3906 C144.0625,60.6563 143.375,60.7813 142.6094,60.7813 C140.5625,60.7813 139.2656,59.6875 139.2656,57.9844 L139.2656,56.8906 C139.2656,55.1094 140.5156,53.7969 142.25,53.7969 C142.8281,53.7969 143.4375,53.9531 143.9063,54.2031 C144.3906,54.4844 144.5625,54.7031 144.6563,55.1094 C144.7188,55.5156 144.75,55.6406 144.8906,55.7656 C145.0313,55.9063 145.2656,56.0156 145.4844,56.0156 C145.75,56.0156 146.0156,55.875 146.1875,55.6563 C146.2969,55.5 146.3281,55.3125 146.3281,54.8906 L146.3281,53.4688 C146.3281,53.0313 146.3125,52.9063 146.2188,52.75 C146.0625,52.4844 145.7813,52.3438 145.4844,52.3438 C145.1875,52.3438 144.9844,52.4375 144.7656,52.75 L144.5938,52.6719 Z "/><text fill="#000000" font-family="sans-serif" font-size="12" lengthAdjust="spacingAndGlyphs" textLength="111" x="162.75" y="61.1543">PluginSpecification</text><line style="stroke: #A80036; stroke-width: 1.5;" x1="40.5" x2="363.5" y1="73" y2="73"/><line style="stroke: #A80036; stroke-width: 1.5;" x1="40.5" x2="363.5" y1="81" y2="81"/><text fill="#000000" font-family="sans-serif" font-size="11" lengthAdjust="spacingAndGlyphs" textLength="127" x="45.5" y="95.2104">str get_name(strip_all)</text><text fill="#000000" font-family="sans-serif" font-size="11" font-style="italic" lengthAdjust="spacingAndGlyphs" textLength="113" x="45.5" y="108.0151">str get_description()</text><text fill="#000000" font-family="sans-serif" font-size="11" lengthAdjust="spacingAndGlyphs" textLength="260" x="45.5" y="120.8198">List[ProjectTemplate] get_project_templates()</text><text fill="#000000" font-family="sans-serif" font-size="11" lengthAdjust="spacingAndGlyphs" textLength="155" x="45.5" y="133.6245">List[str] get_example_urls()</text><text fill="#000000" font-family="sans-serif" font-size="11" lengthAdjust="spacingAndGlyphs" textLength="153" x="45.5" y="146.4292">Dict[str, str] get_help_urls()</text><text fill="#000000" font-family="sans-serif" font-size="11" lengthAdjust="spacingAndGlyphs" text-decoration="underline" textLength="313" x="45.5" y="159.2339">get_version_url(version, repo_base_url, nightly_branch)</text><!--MD5=[af4c9b49fd16eccd3264a9805d9a5fe6]
class TaskSpecification--><rect codeLine="11" fill="#FEFECE" filter="url(#f19tyge2xayoon)" height="73.6094" id="TaskSpecification" style="stroke: #A80036; stroke-width: 1.5;" width="138" x="32" y="226"/><ellipse cx="47.45" cy="242" fill="#ADD1B2" rx="11" ry="11" style="stroke: #A80036; stroke-width: 1.0;"/><path d="M49.7938,237.6719 C48.8563,237.2344 48.2625,237.0938 47.3875,237.0938 C44.7625,237.0938 42.7625,239.1719 42.7625,241.8906 L42.7625,243.0156 C42.7625,245.5938 44.8719,247.4844 47.7625,247.4844 C48.9813,247.4844 50.1375,247.1875 50.8875,246.6406 C51.4656,246.2344 51.7938,245.7813 51.7938,245.3906 C51.7938,244.9375 51.4031,244.5469 50.9344,244.5469 C50.7156,244.5469 50.5125,244.625 50.325,244.8125 C49.8719,245.2969 49.8719,245.2969 49.6844,245.3906 C49.2625,245.6563 48.575,245.7813 47.8094,245.7813 C45.7625,245.7813 44.4656,244.6875 44.4656,242.9844 L44.4656,241.8906 C44.4656,240.1094 45.7156,238.7969 47.45,238.7969 C48.0281,238.7969 48.6375,238.9531 49.1063,239.2031 C49.5906,239.4844 49.7625,239.7031 49.8563,240.1094 C49.9188,240.5156 49.95,240.6406 50.0906,240.7656 C50.2313,240.9063 50.4656,241.0156 50.6844,241.0156 C50.95,241.0156 51.2156,240.875 51.3875,240.6563 C51.4969,240.5 51.5281,240.3125 51.5281,239.8906 L51.5281,238.4688 C51.5281,238.0313 51.5125,237.9063 51.4188,237.75 C51.2625,237.4844 50.9813,237.3438 50.6844,237.3438 C50.3875,237.3438 50.1844,237.4375 49.9656,237.75 L49.7938,237.6719 Z "/><text fill="#000000" font-family="sans-serif" font-size="12" lengthAdjust="spacingAndGlyphs" textLength="105" x="61.55" y="246.1543">TaskSpecification</text><line style="stroke: #A80036; stroke-width: 1.5;" x1="33" x2="169" y1="258" y2="258"/><line style="stroke: #A80036; stroke-width: 1.5;" x1="33" x2="169" y1="266" y2="266"/><text fill="#000000" font-family="sans-serif" font-size="11" font-style="italic" lengthAdjust="spacingAndGlyphs" textLength="126" x="38" y="280.2104">Type[ITask] get_type()</text><text fill="#000000" font-family="sans-serif" font-size="11" font-style="italic" lengthAdjust="spacingAndGlyphs" textLength="59" x="38" y="293.0151">ITask get()</text><!--MD5=[b78fffa2c6df6e647eec27b61ded662c]
class PlatformSpecification--><rect codeLine="16" fill="#FEFECE" filter="url(#f19tyge2xayoon)" height="73.6094" id="PlatformSpecification" style="stroke: #A80036; stroke-width: 1.5;" width="160" x="205" y="226"/><ellipse cx="221.35" cy="242" fill="#ADD1B2" rx="11" ry="11" style="stroke: #A80036; stroke-width: 1.0;"/><path d="M223.6938,237.6719 C222.7563,237.2344 222.1625,237.0938 221.2875,237.0938 C218.6625,237.0938 216.6625,239.1719 216.6625,241.8906 L216.6625,243.0156 C216.6625,245.5938 218.7719,247.4844 221.6625,247.4844 C222.8813,247.4844 224.0375,247.1875 224.7875,246.6406 C225.3656,246.2344 225.6938,245.7813 225.6938,245.3906 C225.6938,244.9375 225.3031,244.5469 224.8344,244.5469 C224.6156,244.5469 224.4125,244.625 224.225,244.8125 C223.7719,245.2969 223.7719,245.2969 223.5844,245.3906 C223.1625,245.6563 222.475,245.7813 221.7094,245.7813 C219.6625,245.7813 218.3656,244.6875 218.3656,242.9844 L218.3656,241.8906 C218.3656,240.1094 219.6156,238.7969 221.35,238.7969 C221.9281,238.7969 222.5375,238.9531 223.0063,239.2031 C223.4906,239.4844 223.6625,239.7031 223.7563,240.1094 C223.8188,240.5156 223.85,240.6406 223.9906,240.7656 C224.1313,240.9063 224.3656,241.0156 224.5844,241.0156 C224.85,241.0156 225.1156,240.875 225.2875,240.6563 C225.3969,240.5 225.4281,240.3125 225.4281,239.8906 L225.4281,238.4688 C225.4281,238.0313 225.4125,237.9063 225.3188,237.75 C225.1625,237.4844 224.8813,237.3438 224.5844,237.3438 C224.2875,237.3438 224.0844,237.4375 223.8656,237.75 L223.6938,237.6719 Z "/><text fill="#000000" font-family="sans-serif" font-size="12" lengthAdjust="spacingAndGlyphs" textLength="125" x="235.65" y="246.1543">PlatformSpecification</text><line style="stroke: #A80036; stroke-width: 1.5;" x1="206" x2="364" y1="258" y2="258"/><line style="stroke: #A80036; stroke-width: 1.5;" x1="206" x2="364" y1="266" y2="266"/><text fill="#000000" font-family="sans-serif" font-size="11" font-style="italic" lengthAdjust="spacingAndGlyphs" textLength="148" x="211" y="280.2104">Type[IPlatform] get_type()</text><text fill="#000000" font-family="sans-serif" font-size="11" font-style="italic" lengthAdjust="spacingAndGlyphs" textLength="81" x="211" y="293.0151">IPlatform get()</text><!--MD5=[32d82f69d25a1b61a7a752188f87424a]
class PlatformCLISpecification--><rect codeLine="23" fill="#FEFECE" filter="url(#f19tyge2xayoon)" height="73.6094" id="PlatformCLISpecification" style="stroke: #A80036; stroke-width: 1.5;" width="177" x="421.5" y="226"/><ellipse cx="437.85" cy="242" fill="#ADD1B2" rx="11" ry="11" style="stroke: #A80036; stroke-width: 1.0;"/><path d="M440.1938,237.6719 C439.2563,237.2344 438.6625,237.0938 437.7875,237.0938 C435.1625,237.0938 433.1625,239.1719 433.1625,241.8906 L433.1625,243.0156 C433.1625,245.5938 435.2719,247.4844 438.1625,247.4844 C439.3813,247.4844 440.5375,247.1875 441.2875,246.6406 C441.8656,246.2344 442.1938,245.7813 442.1938,245.3906 C442.1938,244.9375 441.8031,244.5469 441.3344,244.5469 C441.1156,244.5469 440.9125,244.625 440.725,244.8125 C440.2719,245.2969 440.2719,245.2969 440.0844,245.3906 C439.6625,245.6563 438.975,245.7813 438.2094,245.7813 C436.1625,245.7813 434.8656,244.6875 434.8656,242.9844 L434.8656,241.8906 C434.8656,240.1094 436.1156,238.7969 437.85,238.7969 C438.4281,238.7969 439.0375,238.9531 439.5063,239.2031 C439.9906,239.4844 440.1625,239.7031 440.2563,240.1094 C440.3188,240.5156 440.35,240.6406 440.4906,240.7656 C440.6313,240.9063 440.8656,241.0156 441.0844,241.0156 C441.35,241.0156 441.6156,240.875 441.7875,240.6563 C441.8969,240.5 441.9281,240.3125 441.9281,239.8906 L441.9281,238.4688 C441.9281,238.0313 441.9125,237.9063 441.8188,237.75 C441.6625,237.4844 441.3813,237.3438 441.0844,237.3438 C440.7875,237.3438 440.5844,237.4375 440.3656,237.75 L440.1938,237.6719 Z "/><text fill="#000000" font-family="sans-serif" font-size="12" lengthAdjust="spacingAndGlyphs" textLength="142" x="452.15" y="246.1543">PlatformCLISpecification</text><line style="stroke: #A80036; stroke-width: 1.5;" x1="422.5" x2="597.5" y1="258" y2="258"/><line style="stroke: #A80036; stroke-width: 1.5;" x1="422.5" x2="597.5" y1="266" y2="266"/><text fill="#000000" font-family="sans-serif" font-size="11" font-style="italic" lengthAdjust="spacingAndGlyphs" textLength="165" x="427.5" y="280.2104">Type[IPlatformCLI] get_type()</text><text fill="#000000" font-family="sans-serif" font-size="11" font-style="italic" lengthAdjust="spacingAndGlyphs" textLength="95" x="427.5" y="293.0151">PlatformCLI get()</text><!--MD5=[74a10c1222990e3566b70a1cebae1e7f]
reverse link PluginSpecification to TaskSpecification--><path codeLine="29" d="M159.631,170.571 C147.494,189.497 134.714,209.427 124.194,225.831 " fill="none" id="PluginSpecification&lt;-TaskSpecification" style="stroke: #A80036; stroke-width: 1.0;"/><polygon fill="#A80036" points="162.372,166.296,154.1455,171.7112,159.6721,170.5044,160.8789,176.031,162.372,166.296" style="stroke: #A80036; stroke-width: 1.0;"/><!--MD5=[a158dc61fff3fd0ccaf5bfb4f6314ee5]
reverse link PluginSpecification to PlatformSpecification--><path codeLine="30" d="M237.07,171.048 C246.969,189.832 257.367,209.564 265.939,225.831 " fill="none" id="PluginSpecification&lt;-PlatformSpecification" style="stroke: #A80036; stroke-width: 1.0;"/><polygon fill="#A80036" points="234.566,166.296,235.2205,176.1231,236.8959,170.72,242.2989,172.3953,234.566,166.296" style="stroke: #A80036; stroke-width: 1.0;"/><!--MD5=[c67bd048594d97d323229ef145ab476d]
reverse link PluginSpecification to PlatformCLISpecification--><path codeLine="31" d="M351.533,168.239 C361.578,173.084 371.48,178.027 381,183 C405.79,195.95 432.28,211.797 454.765,225.891 " fill="none" id="PluginSpecification&lt;-PlatformCLISpecification" style="stroke: #A80036; stroke-width: 1.0;"/><polygon fill="#A80036" points="346.909,166.02,353.2935,173.5192,351.4171,168.1826,356.7537,166.3063,346.909,166.02" style="stroke: #A80036; stroke-width: 1.0;"/><!--MD5=[fba0d72e2f55ede114bdde1f97d6353d]
@startuml
package "idmtools" {
    class PluginSpecification {
        str get_name(strip_all)
        {abstract} str get_description()
        List[ProjectTemplate] get_project_templates()
        List[str] get_example_urls()
        Dict[str, str] get_help_urls()
        {static} get_version_url(version, repo_base_url, nightly_branch)
    }

    class TaskSpecification {
        {abstract} Type[ITask] get_type()
        {abstract} ITask get()
    }

    class PlatformSpecification {
        {abstract} Type[IPlatform] get_type()
        {abstract} IPlatform get()
    }
}

package "cli"{
    class PlatformCLISpecification {
        {abstract} Type[IPlatformCLI] get_type()
        {abstract} PlatformCLI get()
    }
}

PluginSpecification <- - TaskSpecification
PluginSpecification <- - PlatformSpecification
PluginSpecification <- - PlatformCLISpecification
@enduml

PlantUML version 1.2020.16beta3(Unknown compile time)
(GPL source distribution)
Java Runtime: Java(TM) SE Runtime Environment
JVM: Java HotSpot(TM) 64-Bit Server VM
Default Encoding: UTF-8
Language: en
Country: US
--></g></svg>