<?xml version="1.0" encoding="UTF-8" standalone="no"?><svg xmlns="http://www.w3.org/2000/svg" xmlns:xlink="http://www.w3.org/1999/xlink" contentScriptType="application/ecmascript" contentStyleType="text/css" height="366px" preserveAspectRatio="none" style="width:787px;height:366px;" version="1.1" viewBox="0 0 787 366" width="787px" zoomAndPan="magnify"><defs><filter height="300%" id="ftx9cc6et4uug" width="300%" x="-1" y="-1"><feGaussianBlur result="blurOut" stdDeviation="2.0"/><feColorMatrix in="blurOut" result="blurOut2" type="matrix" values="0 0 0 0 0 0 0 0 0 0 0 0 0 0 0 0 0 0 .4 0"/><feOffset dx="4.0" dy="4.0" in="blurOut2" result="blurOut3"/><feBlend in="SourceGraphic" in2="blurOut3" mode="normal"/></filter></defs><g><!--MD5=[dbc60304b862515ffa2e16e2f9684eb5]
cluster Workers Container--><polygon fill="#FFFFFF" filter="url(#ftx9cc6et4uug)" points="147,34,157,24,485,24,485,173,475,183,147,183,147,34" style="stroke: #000000; stroke-width: 1.5;"/><line style="stroke: #000000; stroke-width: 1.5;" x1="475" x2="484" y1="34" y2="25"/><line style="stroke: #000000; stroke-width: 1.5;" x1="147" x2="475" y1="34" y2="34"/><line style="stroke: #000000; stroke-width: 1.5;" x1="475" x2="475" y1="34" y2="183"/><text fill="#000000" font-family="sans-serif" font-size="14" font-weight="bold" lengthAdjust="spacingAndGlyphs" textLength="150" x="237" y="49.9951">Workers Container</text><!--MD5=[2c925a165417bc436a5e1ff5b3108da0]
cluster Python Workers--><rect fill="#FFFFFF" filter="url(#ftx9cc6et4uug)" height="87" style="stroke: #000000; stroke-width: 1.5;" width="245" x="216" y="72"/><text fill="#000000" font-family="sans-serif" font-size="14" font-weight="bold" lengthAdjust="spacingAndGlyphs" textLength="128" x="274.5" y="86.9951">Python Workers</text><!--MD5=[c42ed81cef7fdd2e33758127945b9a5b]
entity UI--><rect fill="#FEFECE" filter="url(#ftx9cc6et4uug)" height="36.2969" style="stroke: #A80036; stroke-width: 1.5;" width="33" x="163.5" y="107"/><rect fill="#FEFECE" height="5" style="stroke: #A80036; stroke-width: 1.5;" width="10" x="158.5" y="112"/><rect fill="#FEFECE" height="5" style="stroke: #A80036; stroke-width: 1.5;" width="10" x="158.5" y="133.2969"/><text fill="#000000" font-family="sans-serif" font-size="14" lengthAdjust="spacingAndGlyphs" textLength="13" x="173.5" y="129.9951">UI</text><!--MD5=[cde18378286e59c32eb7d59844b99053]
entity w2--><rect fill="#FEFECE" filter="url(#ftx9cc6et4uug)" height="36.2969" style="stroke: #000000; stroke-width: 1.5;" width="92" x="353" y="107"/><text fill="#000000" font-family="sans-serif" font-size="14" lengthAdjust="spacingAndGlyphs" textLength="72" x="363" y="129.9951">Worker ...</text><!--MD5=[945bb76cb2232b12ba90c731e52d4c9b]
entity w1--><rect fill="#FEFECE" filter="url(#ftx9cc6et4uug)" height="36.2969" style="stroke: #000000; stroke-width: 1.5;" width="86" x="232" y="107"/><text fill="#000000" font-family="sans-serif" font-size="14" lengthAdjust="spacingAndGlyphs" textLength="66" x="242" y="129.9951">Worker 1</text><!--MD5=[7468467f3b6b392f1d176d828c753b77]
entity db--><path d="M6,318.5 C6,308.5 85,308.5 85,308.5 C85,308.5 164,308.5 164,318.5 L164,343.7969 C164,353.7969 85,353.7969 85,353.7969 C85,353.7969 6,353.7969 6,343.7969 L6,318.5 " fill="#FEFECE" filter="url(#ftx9cc6et4uug)" style="stroke: #000000; stroke-width: 1.5;"/><path d="M6,318.5 C6,328.5 85,328.5 85,328.5 C85,328.5 164,328.5 164,318.5 " fill="none" style="stroke: #000000; stroke-width: 1.5;"/><text fill="#000000" font-family="sans-serif" font-size="14" lengthAdjust="spacingAndGlyphs" textLength="138" x="16" y="345.4951">Postgres Container</text><!--MD5=[de5dc476b5cd49b5a92d294ad2af7d70]
entity redis--><polygon fill="#FEFECE" filter="url(#ftx9cc6et4uug)" points="485,318,495,308,639,308,639,344.2969,629,354.2969,485,354.2969,485,318" style="stroke: #000000; stroke-width: 1.5;"/><line style="stroke: #000000; stroke-width: 1.5;" x1="629" x2="638" y1="318" y2="309"/><line style="stroke: #000000; stroke-width: 1.5;" x1="485" x2="629" y1="318" y2="318"/><line style="stroke: #000000; stroke-width: 1.5;" x1="629" x2="629" y1="318" y2="354.2969"/><text fill="#000000" font-family="sans-serif" font-size="14" lengthAdjust="spacingAndGlyphs" textLength="114" x="500" y="340.9951">Redis Container</text><!--MD5=[7d46d6cd919e02e6168a09ad91eae8b4]
entity u--><polygon fill="#FEFECE" filter="url(#ftx9cc6et4uug)" points="603,107,603,143.2969,757,143.2969,757,117,747,107,603,107" style="stroke: #000000; stroke-width: 1.5;"/><path d="M747,107 L747,117 L757,117 " fill="#FEFECE" style="stroke: #000000; stroke-width: 1.5;"/><text fill="#000000" font-family="sans-serif" font-size="14" lengthAdjust="spacingAndGlyphs" textLength="134" x="613" y="129.9951">User Python Script</text><!--MD5=[7b75a7a1b7794a1794f331c8c5ed7ca8]
link UI to db--><path d="M163.472,130.988 C130.107,142.18 56.6303,172.894 42,230 C35.285,256.2103 49.5304,284.3813 63.3916,304.122 " fill="none" id="UI-&gt;db" style="stroke: #A80036; stroke-width: 1.0;"/><polygon fill="#A80036" points="66.5208,308.4518,64.4912,298.8143,63.5921,304.3993,58.0072,303.5002,66.5208,308.4518" style="stroke: #A80036; stroke-width: 1.0;"/><!--MD5=[8744279f4321fc28516422be32c084cd]
link w1 to db--><path d="M263.856,147.882 C255.666,161.984 243.315,179.726 228,191 C184.196,223.244 149.277,190.392 112,230 C93.402,249.761 87.348,280.9719 85.5118,303.2678 " fill="none" id="w1-db" style="stroke: #A80036; stroke-width: 1.0;"/><polygon fill="#A80036" points="85.1473,308.4477,89.7695,299.7508,85.4984,303.46,81.7892,299.189,85.1473,308.4477" style="stroke: #A80036; stroke-width: 1.0;"/><polygon fill="#A80036" points="266.472,143.254,258.5601,149.1193,264.0109,147.6063,265.5238,153.0571,266.472,143.254" style="stroke: #A80036; stroke-width: 1.0;"/><text fill="#000000" font-family="sans-serif" font-size="13" lengthAdjust="spacingAndGlyphs" textLength="118" x="113" y="243.0669">Get/Update Status</text><!--MD5=[6ebfe7e2048eb548960ef390ccae206a]
link w1 to redis--><path d="M287.397,147.437 C303.644,173.916 334.413,218.896 371,247 C404.615,272.8211 447.498,292.3994 484.112,306.0375 " fill="none" id="w1-redis" style="stroke: #A80036; stroke-width: 1.0;"/><polygon fill="#A80036" points="489.004,307.8385,481.9397,300.9758,484.3118,306.1113,479.1763,308.4834,489.004,307.8385" style="stroke: #A80036; stroke-width: 1.0;"/><polygon fill="#A80036" points="284.725,143.034,285.9753,152.8032,287.3193,147.3083,292.8142,148.6523,284.725,143.034" style="stroke: #A80036; stroke-width: 1.0;"/><text fill="#000000" font-family="sans-serif" font-size="13" lengthAdjust="spacingAndGlyphs" textLength="117" x="372" y="243.0669">Get task/Add Task</text><!--MD5=[8c66cbbe097b59f535a962f48d334d91]
link w2 to db--><path d="M413.173,147.556 C428.445,173.77 447.705,218.086 425,247 C393.787,286.7492 259.568,309.887 169.394,321.2173 " fill="none" id="w2-db" style="stroke: #A80036; stroke-width: 1.0;"/><polygon fill="#A80036" points="164.328,321.8473,173.7529,324.7059,169.2898,321.2302,172.7655,316.767,164.328,321.8473" style="stroke: #A80036; stroke-width: 1.0;"/><polygon fill="#A80036" points="410.572,143.195,411.7471,152.9735,413.1333,147.4891,418.6177,148.8754,410.572,143.195" style="stroke: #A80036; stroke-width: 1.0;"/><!--MD5=[8d8af6b857cc977956b773e275238683]
link w2 to redis--><path d="M422.035,146.516 C437.262,160.593 457.242,180.081 473,199 C501.278,232.952 529.125,275.9 545.939,303.1704 " fill="none" id="w2-redis" style="stroke: #A80036; stroke-width: 1.0;"/><polygon fill="#A80036" points="548.744,307.7411,547.4451,297.9783,546.1285,303.4798,540.627,302.1631,548.744,307.7411" style="stroke: #A80036; stroke-width: 1.0;"/><polygon fill="#A80036" points="418.272,143.057,422.1906,152.0927,421.953,146.4409,427.6048,146.2032,418.272,143.057" style="stroke: #A80036; stroke-width: 1.0;"/><!--MD5=[a87706f323a253f06a44a20792593cb0]
link u to redis--><path d="M670.142,143.042 C649.62,178.521 602.171,260.5521 577.511,303.1835 " fill="none" id="u-&gt;redis" style="stroke: #A80036; stroke-width: 1.0; stroke-dasharray: 7.0,7.0;"/><polygon fill="#A80036" points="574.909,307.6826,582.8784,301.8957,577.413,303.3548,575.9539,297.8893,574.909,307.6826" style="stroke: #A80036; stroke-width: 1.0;"/><text fill="#000000" font-family="sans-serif" font-size="13" lengthAdjust="spacingAndGlyphs" textLength="76" x="620" y="243.0669">Submit task</text><!--MD5=[8fe98daa1549fc04e31ac7dd3244cec5]
reverse link u to redis--><path d="M693.084,147.761 C706.496,173.161 723.037,215.675 705,247 C688.671,275.3586 658.527,294.9194 630.111,307.8945 " fill="none" id="u&lt;-redis" style="stroke: #A80036; stroke-width: 1.0; stroke-dasharray: 7.0,7.0;"/><polygon fill="#A80036" points="690.625,143.224,691.3976,153.0425,693.0078,147.6197,698.4307,149.23,690.625,143.224" style="stroke: #A80036; stroke-width: 1.0;"/><text fill="#000000" font-family="sans-serif" font-size="13" lengthAdjust="spacingAndGlyphs" textLength="63" x="712" y="243.0669">Get result</text><!--MD5=[f96c63d50ebaf06fa9b4b9ad0e8e89f7]
@startuml
database "Postgres Container" as db
node "Redis Container"as redis
node "Workers Container" {
    [UI] -> db
    rectangle "Python Workers" {
        rectangle "Worker ..." as w2
        rectangle "Worker 1" as w1
        w1 <- - -> db : Get/Update Status
        w1 <- - -> redis : Get task/Add Task
        w2 <- - -> db
        w2 <- - -> redis
    }
}
file "User Python Script" as u
u ...> redis : Submit task
u <... redis : Get result
@enduml

PlantUML version 1.2020.10(Sun May 17 09:48:49 UTC 2020)
(GPL source distribution)
Java Runtime: Java(TM) SE Runtime Environment
JVM: Java HotSpot(TM) 64-Bit Server VM
Operating System: Linux
Default Encoding: UTF-8
Language: en
Country: US
--></g></svg>