<?xml version="1.0" encoding="UTF-8" standalone="no"?><svg xmlns="http://www.w3.org/2000/svg" xmlns:xlink="http://www.w3.org/1999/xlink" contentScriptType="application/ecmascript" contentStyleType="text/css" height="252px" preserveAspectRatio="none" style="width:734px;height:252px;" version="1.1" viewBox="0 0 734 252" width="734px" zoomAndPan="magnify"><defs><filter height="300%" id="f1otlmqchdgrtn" width="300%" x="-1" y="-1"><feGaussianBlur result="blurOut" stdDeviation="2.0"/><feColorMatrix in="blurOut" result="blurOut2" type="matrix" values="0 0 0 0 0 0 0 0 0 0 0 0 0 0 0 0 0 0 .4 0"/><feOffset dx="4.0" dy="4.0" in="blurOut2" result="blurOut3"/><feBlend in="SourceGraphic" in2="blurOut3" mode="normal"/></filter></defs><g><!--MD5=[e3a89b72019d8d69b73b0a9ebb84eda6]
cluster cli--><polygon fill="#FFFFFF" filter="url(#f1otlmqchdgrtn)" points="16,12,119,12,126,34.2969,163,34.2969,163,109,16,109,16,12" style="stroke: #000000; stroke-width: 1.5;"/><line style="stroke: #000000; stroke-width: 1.5;" x1="16" x2="126" y1="34.2969" y2="34.2969"/><text fill="#000000" font-family="sans-serif" font-size="14" font-weight="bold" lengthAdjust="spacingAndGlyphs" textLength="97" x="20" y="26.9951">idmtools-cli</text><!--MD5=[272379cf1f80536b6294ad33393ecec2]
cluster registry--><polygon fill="#FFFFFF" filter="url(#f1otlmqchdgrtn)" points="550,6,669,6,676,28.2969,684,28.2969,684,115,550,115,550,6" style="stroke: #000000; stroke-width: 1.5;"/><line style="stroke: #000000; stroke-width: 1.5;" x1="550" x2="676" y1="28.2969" y2="28.2969"/><text fill="#000000" font-family="sans-serif" font-size="14" font-weight="bold" lengthAdjust="spacingAndGlyphs" textLength="113" x="554" y="20.9951">idmtools-core</text><!--MD5=[8a509646a725e4b29ac3346bf48b9d0c]
cluster local--><polygon fill="#FFFFFF" filter="url(#f1otlmqchdgrtn)" points="315,12,516,12,523,34.2969,526,34.2969,526,240,315,240,315,12" style="stroke: #000000; stroke-width: 1.5;"/><line style="stroke: #000000; stroke-width: 1.5;" x1="315" x2="523" y1="34.2969" y2="34.2969"/><text fill="#000000" font-family="sans-serif" font-size="14" font-weight="bold" lengthAdjust="spacingAndGlyphs" textLength="195" x="319" y="26.9951">idmtools-platform-local</text><!--MD5=[df6a39b053164d23cc3ecae9c3484a54]
entity CLI--><rect fill="#FEFECE" filter="url(#f1otlmqchdgrtn)" height="46.2969" style="stroke: #A80036; stroke-width: 1.5;" width="62" x="32" y="47"/><rect fill="#FEFECE" height="10" style="stroke: #A80036; stroke-width: 1.5;" width="15" x="74" y="52"/><rect fill="#FEFECE" height="2" style="stroke: #A80036; stroke-width: 1.5;" width="4" x="72" y="54"/><rect fill="#FEFECE" height="2" style="stroke: #A80036; stroke-width: 1.5;" width="4" x="72" y="58"/><text fill="#000000" font-family="sans-serif" font-size="14" lengthAdjust="spacingAndGlyphs" textLength="22" x="47" y="79.9951">CLI</text><!--MD5=[2d9774aa1acd34f2b66b18a2301fe88b]
entity cli_api--><ellipse cx="138" cy="70" fill="#FEFECE" filter="url(#f1otlmqchdgrtn)" rx="8" ry="8" style="stroke: #A80036; stroke-width: 1.5;"/><text fill="#000000" font-family="sans-serif" font-size="14" lengthAdjust="spacingAndGlyphs" textLength="49" x="113.5" y="99.9951">CLI API</text><!--MD5=[5df59aa2065c15f87b95d8b2badd43a6]
entity PlatformAPI--><ellipse cx="617" cy="70" fill="#FEFECE" filter="url(#f1otlmqchdgrtn)" rx="8" ry="8" style="stroke: #A80036; stroke-width: 1.5;"/><text fill="#000000" font-family="sans-serif" font-size="14" lengthAdjust="spacingAndGlyphs" textLength="86" x="574" y="99.9951">PlatformAPI</text><!--MD5=[55f6dbe904984446c2e17a5a2235035a]
entity LocalPlatform--><rect fill="#FEFECE" filter="url(#f1otlmqchdgrtn)" height="46.2969" style="stroke: #A80036; stroke-width: 1.5;" width="140" x="359" y="178"/><rect fill="#FEFECE" height="10" style="stroke: #A80036; stroke-width: 1.5;" width="15" x="479" y="183"/><rect fill="#FEFECE" height="2" style="stroke: #A80036; stroke-width: 1.5;" width="4" x="477" y="185"/><rect fill="#FEFECE" height="2" style="stroke: #A80036; stroke-width: 1.5;" width="4" x="477" y="189"/><text fill="#000000" font-family="sans-serif" font-size="14" lengthAdjust="spacingAndGlyphs" textLength="100" x="374" y="210.9951">LocalPlatform</text><!--MD5=[b0df9fe075fb6157eb6b7601b8c8f7b9]
entity LocalPlatformCLI--><rect fill="#FEFECE" filter="url(#f1otlmqchdgrtn)" height="46.2969" style="stroke: #A80036; stroke-width: 1.5;" width="162" x="348" y="47"/><rect fill="#FEFECE" height="10" style="stroke: #A80036; stroke-width: 1.5;" width="15" x="490" y="52"/><rect fill="#FEFECE" height="2" style="stroke: #A80036; stroke-width: 1.5;" width="4" x="488" y="54"/><rect fill="#FEFECE" height="2" style="stroke: #A80036; stroke-width: 1.5;" width="4" x="488" y="58"/><text fill="#000000" font-family="sans-serif" font-size="14" lengthAdjust="spacingAndGlyphs" textLength="122" x="363" y="79.9951">LocalPlatformCLI</text><!--MD5=[626a1111791783c1cd0901f34a1556fa]
link PlatformAPI to LocalPlatform--><path d="M603.564,80.22 C575.026,99.802 507.532,146.114 465.325,175.0751 " fill="none" id="PlatformAPI-LocalPlatform" style="stroke: #A80036; stroke-width: 1.0;"/><polygon fill="#A80036" points="461.068,177.9958,470.7522,176.2026,465.191,175.1672,466.2264,169.6059,461.068,177.9958" style="stroke: #A80036; stroke-width: 1.0;"/><polygon fill="#A80036" points="607.932,77.222,598.2482,79.0175,603.8097,80.0516,602.7756,85.6131,607.932,77.222" style="stroke: #A80036; stroke-width: 1.0;"/><text fill="#000000" font-family="sans-serif" font-size="13" lengthAdjust="spacingAndGlyphs" textLength="193" x="529" y="144.0669">LocalPlatform Implementation</text><!--MD5=[78de9c51578464c19ef48d8ebb8f7e18]
link cli_api to LocalPlatformCLI--><path d="M152.121,70 C186.124,70 274.759,70 342.667,70 " fill="none" id="cli_api-LocalPlatformCLI" style="stroke: #A80036; stroke-width: 1.0; stroke-dasharray: 7.0,7.0;"/><polygon fill="#A80036" points="347.931,70,338.931,66,342.931,70,338.931,74,347.931,70" style="stroke: #A80036; stroke-width: 1.0;"/><polygon fill="#A80036" points="147.028,70,156.028,74,152.028,70,156.028,66,147.028,70" style="stroke: #A80036; stroke-width: 1.0;"/><text fill="#000000" font-family="sans-serif" font-size="13" lengthAdjust="spacingAndGlyphs" textLength="164" x="165.5" y="63.0669">idmtools local commands</text><!--MD5=[658114fe877839abac81fa0ed0d92059]
link LocalPlatformCLI to LocalPlatform--><path d="M418.355,98.352 C415.551,120.215 415.548,150.718 418.348,172.5954 " fill="none" id="LocalPlatformCLI-LocalPlatform" style="stroke: #A80036; stroke-width: 1.0;"/><polygon fill="#A80036" points="419.076,177.6818,421.7617,168.2062,418.3682,172.7322,413.8422,169.3387,419.076,177.6818" style="stroke: #A80036; stroke-width: 1.0;"/><polygon fill="#A80036" points="419.098,93.176,413.8583,101.5154,418.3867,98.1251,421.777,102.6535,419.098,93.176" style="stroke: #A80036; stroke-width: 1.0;"/><!--MD5=[94581a2f3320fb544f94d1cc60a0e352]
link LocalPlatform to LocalPlatformCLI--><!--MD5=[80750a94119897f8560fcf6c27969510]
@startuml
package "idmtools-cli" as cli {
    [CLI]
    () "CLI API" as cli_api
}

package "idmtools-core" as registry {
    () "PlatformAPI" as PlatformAPI
}

package "idmtools-platform-local" as local {
    [LocalPlatform]
    [LocalPlatformCLI]
}

PlatformAPI <-down-> LocalPlatform : LocalPlatform Implementation
cli_api <.> LocalPlatformCLI : idmtools local commands
LocalPlatformCLI <- -> LocalPlatform
LocalPlatform -[hidden]- LocalPlatformCLI
@enduml

PlantUML version 1.2020.18beta4(Unknown compile time)
(GPL source distribution)
Java Runtime: Java(TM) SE Runtime Environment
JVM: Java HotSpot(TM) 64-Bit Server VM
Default Encoding: UTF-8
Language: en
Country: US
--></g></svg>