<?xml version="1.0" encoding="UTF-8" standalone="no"?><svg xmlns="http://www.w3.org/2000/svg" xmlns:xlink="http://www.w3.org/1999/xlink" contentScriptType="application/ecmascript" contentStyleType="text/css" height="234px" preserveAspectRatio="none" style="width:298px;height:234px;" version="1.1" viewBox="0 0 298 234" width="298px" zoomAndPan="magnify"><defs><filter height="300%" id="f4o4hn3p3mhtb" width="300%" x="-1" y="-1"><feGaussianBlur result="blurOut" stdDeviation="2.0"/><feColorMatrix in="blurOut" result="blurOut2" type="matrix" values="0 0 0 0 0 0 0 0 0 0 0 0 0 0 0 0 0 0 .4 0"/><feOffset dx="4.0" dy="4.0" in="blurOut2" result="blurOut3"/><feBlend in="SourceGraphic" in2="blurOut3" mode="normal"/></filter></defs><g><!--MD5=[d4286aa1ebee0b6709464de0634d1dbf]
class BaseAnalyzer--><rect codeLine="5" fill="#FEFECE" filter="url(#f4o4hn3p3mhtb)" height="124.8281" id="BaseAnalyzer" style="stroke: #A80036; stroke-width: 1.5;" width="150" x="7" y="91"/><ellipse cx="38.2" cy="107" fill="#ADD1B2" rx="11" ry="11" style="stroke: #A80036; stroke-width: 1.0;"/><path d="M40.5438,102.6719 C39.6063,102.2344 39.0125,102.0938 38.1375,102.0938 C35.5125,102.0938 33.5125,104.1719 33.5125,106.8906 L33.5125,108.0156 C33.5125,110.5938 35.6219,112.4844 38.5125,112.4844 C39.7313,112.4844 40.8875,112.1875 41.6375,111.6406 C42.2156,111.2344 42.5438,110.7813 42.5438,110.3906 C42.5438,109.9375 42.1531,109.5469 41.6844,109.5469 C41.4656,109.5469 41.2625,109.625 41.075,109.8125 C40.6219,110.2969 40.6219,110.2969 40.4344,110.3906 C40.0125,110.6563 39.325,110.7813 38.5594,110.7813 C36.5125,110.7813 35.2156,109.6875 35.2156,107.9844 L35.2156,106.8906 C35.2156,105.1094 36.4656,103.7969 38.2,103.7969 C38.7781,103.7969 39.3875,103.9531 39.8563,104.2031 C40.3406,104.4844 40.5125,104.7031 40.6063,105.1094 C40.6688,105.5156 40.7,105.6406 40.8406,105.7656 C40.9813,105.9063 41.2156,106.0156 41.4344,106.0156 C41.7,106.0156 41.9656,105.875 42.1375,105.6563 C42.2469,105.5 42.2781,105.3125 42.2781,104.8906 L42.2781,103.4688 C42.2781,103.0313 42.2625,102.9063 42.1688,102.75 C42.0125,102.4844 41.7313,102.3438 41.4344,102.3438 C41.1375,102.3438 40.9344,102.4375 40.7156,102.75 L40.5438,102.6719 Z "/><text fill="#000000" font-family="sans-serif" font-size="12" lengthAdjust="spacingAndGlyphs" textLength="82" x="55.8" y="111.1543">BaseAnalyzer</text><line style="stroke: #A80036; stroke-width: 1.5;" x1="8" x2="156" y1="123" y2="123"/><line style="stroke: #A80036; stroke-width: 1.5;" x1="8" x2="156" y1="131" y2="131"/><text fill="#000000" font-family="sans-serif" font-size="11" lengthAdjust="spacingAndGlyphs" textLength="56" x="13" y="145.2104">initialize()</text><text fill="#000000" font-family="sans-serif" font-size="11" lengthAdjust="spacingAndGlyphs" textLength="100" x="13" y="158.0151">per_experiment()</text><text fill="#000000" font-family="sans-serif" font-size="11" lengthAdjust="spacingAndGlyphs" textLength="34" x="13" y="170.8198">filter()</text><text fill="#000000" font-family="sans-serif" font-size="11" lengthAdjust="spacingAndGlyphs" textLength="138" x="13" y="183.6245">select_simulation_data()</text><text fill="#000000" font-family="sans-serif" font-size="11" lengthAdjust="spacingAndGlyphs" textLength="50" x="13" y="196.4292">finalize()</text><text fill="#000000" font-family="sans-serif" font-size="11" lengthAdjust="spacingAndGlyphs" textLength="51" x="13" y="209.2339">destroy()</text><path d="M39,6 L39,31.1328 A0,0 0 0 0 39,31.1328 L78,31.1328 L82,90.949 L86,31.1328 L125,31.1328 A0,0 0 0 0 125,31.1328 L125,16 L115,6 L39,6 A0,0 0 0 0 39,6 " fill="#FBFB77" filter="url(#f4o4hn3p3mhtb)" style="stroke: #A80036; stroke-width: 1.0;"/><path d="M115,6 L115,16 L125,16 L115,6 " fill="#FBFB77" style="stroke: #A80036; stroke-width: 1.0;"/><text fill="#000000" font-family="sans-serif" font-size="13" lengthAdjust="spacingAndGlyphs" textLength="65" x="45" y="23.0669">DTK-Tools</text><!--MD5=[733ae57ad73ddca760861ab983f10ac6]
class IAnalyzer--><rect codeLine="18" fill="#FEFECE" filter="url(#f4o4hn3p3mhtb)" height="124.8281" id="IAnalyzer" style="stroke: #A80036; stroke-width: 1.5;" width="87" x="192.5" y="91"/><ellipse cx="207.5" cy="107" fill="#ADD1B2" rx="11" ry="11" style="stroke: #A80036; stroke-width: 1.0;"/><path d="M209.8438,102.6719 C208.9063,102.2344 208.3125,102.0938 207.4375,102.0938 C204.8125,102.0938 202.8125,104.1719 202.8125,106.8906 L202.8125,108.0156 C202.8125,110.5938 204.9219,112.4844 207.8125,112.4844 C209.0313,112.4844 210.1875,112.1875 210.9375,111.6406 C211.5156,111.2344 211.8438,110.7813 211.8438,110.3906 C211.8438,109.9375 211.4531,109.5469 210.9844,109.5469 C210.7656,109.5469 210.5625,109.625 210.375,109.8125 C209.9219,110.2969 209.9219,110.2969 209.7344,110.3906 C209.3125,110.6563 208.625,110.7813 207.8594,110.7813 C205.8125,110.7813 204.5156,109.6875 204.5156,107.9844 L204.5156,106.8906 C204.5156,105.1094 205.7656,103.7969 207.5,103.7969 C208.0781,103.7969 208.6875,103.9531 209.1563,104.2031 C209.6406,104.4844 209.8125,104.7031 209.9063,105.1094 C209.9688,105.5156 210,105.6406 210.1406,105.7656 C210.2813,105.9063 210.5156,106.0156 210.7344,106.0156 C211,106.0156 211.2656,105.875 211.4375,105.6563 C211.5469,105.5 211.5781,105.3125 211.5781,104.8906 L211.5781,103.4688 C211.5781,103.0313 211.5625,102.9063 211.4688,102.75 C211.3125,102.4844 211.0313,102.3438 210.7344,102.3438 C210.4375,102.3438 210.2344,102.4375 210.0156,102.75 L209.8438,102.6719 Z "/><text fill="#000000" font-family="sans-serif" font-size="12" lengthAdjust="spacingAndGlyphs" textLength="55" x="221.5" y="111.1543">IAnalyzer</text><line style="stroke: #A80036; stroke-width: 1.5;" x1="193.5" x2="278.5" y1="123" y2="123"/><line style="stroke: #A80036; stroke-width: 1.5;" x1="193.5" x2="278.5" y1="131" y2="131"/><text fill="#000000" font-family="sans-serif" font-size="11" lengthAdjust="spacingAndGlyphs" textLength="56" x="198.5" y="145.2104">initialize()</text><text fill="#000000" font-family="sans-serif" font-size="11" lengthAdjust="spacingAndGlyphs" textLength="65" x="198.5" y="158.0151">per_group()</text><text fill="#000000" font-family="sans-serif" font-size="11" lengthAdjust="spacingAndGlyphs" textLength="34" x="198.5" y="170.8198">filter()</text><text fill="#000000" font-family="sans-serif" font-size="11" lengthAdjust="spacingAndGlyphs" textLength="33" x="198.5" y="183.6245">map()</text><text fill="#000000" font-family="sans-serif" font-size="11" lengthAdjust="spacingAndGlyphs" textLength="48" x="198.5" y="196.4292">reduce()</text><text fill="#000000" font-family="sans-serif" font-size="11" lengthAdjust="spacingAndGlyphs" textLength="51" x="198.5" y="209.2339">destroy()</text><path d="M198,6 L198,31.1328 A0,0 0 0 0 198,31.1328 L232,31.1328 L236,90.949 L240,31.1328 L274,31.1328 A0,0 0 0 0 274,31.1328 L274,16 L264,6 L198,6 A0,0 0 0 0 198,6 " fill="#FBFB77" filter="url(#f4o4hn3p3mhtb)" style="stroke: #A80036; stroke-width: 1.0;"/><path d="M264,6 L264,16 L274,16 L264,6 " fill="#FBFB77" style="stroke: #A80036; stroke-width: 1.0;"/><text fill="#000000" font-family="sans-serif" font-size="13" lengthAdjust="spacingAndGlyphs" textLength="55" x="204" y="23.0669">idmtools</text><!--MD5=[ce759e8c2ead738536ae3ed2362a256b]
reverse link BaseAnalyzer to IAnalyzer--><!--MD5=[d7f0dfddd70c7384281ff8a2d070d1b9]
@startuml
note top of BaseAnalyzer
DTK-Tools
end note

class BaseAnalyzer {
    initialize()
    per_experiment()
    filter()
    select_simulation_data()
    finalize()
    destroy()
}

note top of IAnalyzer
idmtools
end note

class IAnalyzer {
    initialize()
    per_group()
    filter()
    map()
    reduce()
    destroy()
}

IAnalyzer -left[hidden]-> BaseAnalyzer
@enduml

PlantUML version 1.2020.17beta5(Unknown compile time)
(GPL source distribution)
Java Runtime: Java(TM) SE Runtime Environment
JVM: Java HotSpot(TM) 64-Bit Server VM
Default Encoding: UTF-8
Language: en
Country: US
--></g></svg>