<?xml version="1.0" encoding="UTF-8" standalone="no"?><svg xmlns="http://www.w3.org/2000/svg" xmlns:xlink="http://www.w3.org/1999/xlink" contentScriptType="application/ecmascript" contentStyleType="text/css" height="228px" preserveAspectRatio="none" style="width:289px;height:228px;" version="1.1" viewBox="0 0 289 228" width="289px" zoomAndPan="magnify"><defs><filter height="300%" id="f10jc7f9npm5sw" width="300%" x="-1" y="-1"><feGaussianBlur result="blurOut" stdDeviation="2.0"/><feColorMatrix in="blurOut" result="blurOut2" type="matrix" values="0 0 0 0 0 0 0 0 0 0 0 0 0 0 0 0 0 0 .4 0"/><feOffset dx="4.0" dy="4.0" in="blurOut2" result="blurOut3"/><feBlend in="SourceGraphic" in2="blurOut3" mode="normal"/></filter></defs><g><!--MD5=[d4286aa1ebee0b6709464de0634d1dbf]
class BaseAnalyzer--><rect fill="#FEFECE" filter="url(#f10jc7f9npm5sw)" height="124.8281" id="BaseAnalyzer" style="stroke: #A80036; stroke-width: 1.5;" width="150" x="6" y="93"/><ellipse cx="37.2" cy="109" fill="#ADD1B2" rx="11" ry="11" style="stroke: #A80036; stroke-width: 1.0;"/><path d="M39.5438,104.6719 C38.6063,104.2344 38.0125,104.0938 37.1375,104.0938 C34.5125,104.0938 32.5125,106.1719 32.5125,108.8906 L32.5125,110.0156 C32.5125,112.5938 34.6219,114.4844 37.5125,114.4844 C38.7313,114.4844 39.8875,114.1875 40.6375,113.6406 C41.2156,113.2344 41.5438,112.7813 41.5438,112.3906 C41.5438,111.9375 41.1531,111.5469 40.6844,111.5469 C40.4656,111.5469 40.2625,111.625 40.075,111.8125 C39.6219,112.2969 39.6219,112.2969 39.4344,112.3906 C39.0125,112.6563 38.325,112.7813 37.5594,112.7813 C35.5125,112.7813 34.2156,111.6875 34.2156,109.9844 L34.2156,108.8906 C34.2156,107.1094 35.4656,105.7969 37.2,105.7969 C37.7781,105.7969 38.3875,105.9531 38.8563,106.2031 C39.3406,106.4844 39.5125,106.7031 39.6063,107.1094 C39.6688,107.5156 39.7,107.6406 39.8406,107.7656 C39.9813,107.9063 40.2156,108.0156 40.4344,108.0156 C40.7,108.0156 40.9656,107.875 41.1375,107.6563 C41.2469,107.5 41.2781,107.3125 41.2781,106.8906 L41.2781,105.4688 C41.2781,105.0313 41.2625,104.9063 41.1688,104.75 C41.0125,104.4844 40.7313,104.3438 40.4344,104.3438 C40.1375,104.3438 39.9344,104.4375 39.7156,104.75 L39.5438,104.6719 Z "/><text fill="#000000" font-family="sans-serif" font-size="12" lengthAdjust="spacingAndGlyphs" textLength="82" x="54.8" y="113.1543">BaseAnalyzer</text><line style="stroke: #A80036; stroke-width: 1.5;" x1="7" x2="155" y1="125" y2="125"/><line style="stroke: #A80036; stroke-width: 1.5;" x1="7" x2="155" y1="133" y2="133"/><text fill="#000000" font-family="sans-serif" font-size="11" lengthAdjust="spacingAndGlyphs" textLength="56" x="12" y="147.2104">initialize()</text><text fill="#000000" font-family="sans-serif" font-size="11" lengthAdjust="spacingAndGlyphs" textLength="100" x="12" y="160.0151">per_experiment()</text><text fill="#000000" font-family="sans-serif" font-size="11" lengthAdjust="spacingAndGlyphs" textLength="34" x="12" y="172.8198">filter()</text><text fill="#000000" font-family="sans-serif" font-size="11" lengthAdjust="spacingAndGlyphs" textLength="138" x="12" y="185.6245">select_simulation_data()</text><text fill="#000000" font-family="sans-serif" font-size="11" lengthAdjust="spacingAndGlyphs" textLength="50" x="12" y="198.4292">finalize()</text><text fill="#000000" font-family="sans-serif" font-size="11" lengthAdjust="spacingAndGlyphs" textLength="51" x="12" y="211.2339">destroy()</text><path d="M38,8 L38,33.1328 A0,0 0 0 0 38,33.1328 L77,33.1328 L81,92.949 L85,33.1328 L124,33.1328 A0,0 0 0 0 124,33.1328 L124,18 L114,8 L38,8 A0,0 0 0 0 38,8 " fill="#FBFB77" filter="url(#f10jc7f9npm5sw)" style="stroke: #A80036; stroke-width: 1.0;"/><path d="M114,8 L114,18 L124,18 L114,8 " fill="#FBFB77" style="stroke: #A80036; stroke-width: 1.0;"/><text fill="#000000" font-family="sans-serif" font-size="13" lengthAdjust="spacingAndGlyphs" textLength="65" x="44" y="25.0669">DTK-Tools</text><!--MD5=[733ae57ad73ddca760861ab983f10ac6]
class IAnalyzer--><rect fill="#FEFECE" filter="url(#f10jc7f9npm5sw)" height="124.8281" id="IAnalyzer" style="stroke: #A80036; stroke-width: 1.5;" width="87" x="191.5" y="93"/><ellipse cx="206.5" cy="109" fill="#ADD1B2" rx="11" ry="11" style="stroke: #A80036; stroke-width: 1.0;"/><path d="M208.8438,104.6719 C207.9063,104.2344 207.3125,104.0938 206.4375,104.0938 C203.8125,104.0938 201.8125,106.1719 201.8125,108.8906 L201.8125,110.0156 C201.8125,112.5938 203.9219,114.4844 206.8125,114.4844 C208.0313,114.4844 209.1875,114.1875 209.9375,113.6406 C210.5156,113.2344 210.8438,112.7813 210.8438,112.3906 C210.8438,111.9375 210.4531,111.5469 209.9844,111.5469 C209.7656,111.5469 209.5625,111.625 209.375,111.8125 C208.9219,112.2969 208.9219,112.2969 208.7344,112.3906 C208.3125,112.6563 207.625,112.7813 206.8594,112.7813 C204.8125,112.7813 203.5156,111.6875 203.5156,109.9844 L203.5156,108.8906 C203.5156,107.1094 204.7656,105.7969 206.5,105.7969 C207.0781,105.7969 207.6875,105.9531 208.1563,106.2031 C208.6406,106.4844 208.8125,106.7031 208.9063,107.1094 C208.9688,107.5156 209,107.6406 209.1406,107.7656 C209.2813,107.9063 209.5156,108.0156 209.7344,108.0156 C210,108.0156 210.2656,107.875 210.4375,107.6563 C210.5469,107.5 210.5781,107.3125 210.5781,106.8906 L210.5781,105.4688 C210.5781,105.0313 210.5625,104.9063 210.4688,104.75 C210.3125,104.4844 210.0313,104.3438 209.7344,104.3438 C209.4375,104.3438 209.2344,104.4375 209.0156,104.75 L208.8438,104.6719 Z "/><text fill="#000000" font-family="sans-serif" font-size="12" lengthAdjust="spacingAndGlyphs" textLength="55" x="220.5" y="113.1543">IAnalyzer</text><line style="stroke: #A80036; stroke-width: 1.5;" x1="192.5" x2="277.5" y1="125" y2="125"/><line style="stroke: #A80036; stroke-width: 1.5;" x1="192.5" x2="277.5" y1="133" y2="133"/><text fill="#000000" font-family="sans-serif" font-size="11" lengthAdjust="spacingAndGlyphs" textLength="56" x="197.5" y="147.2104">initialize()</text><text fill="#000000" font-family="sans-serif" font-size="11" lengthAdjust="spacingAndGlyphs" textLength="65" x="197.5" y="160.0151">per_group()</text><text fill="#000000" font-family="sans-serif" font-size="11" lengthAdjust="spacingAndGlyphs" textLength="34" x="197.5" y="172.8198">filter()</text><text fill="#000000" font-family="sans-serif" font-size="11" lengthAdjust="spacingAndGlyphs" textLength="33" x="197.5" y="185.6245">map()</text><text fill="#000000" font-family="sans-serif" font-size="11" lengthAdjust="spacingAndGlyphs" textLength="48" x="197.5" y="198.4292">reduce()</text><text fill="#000000" font-family="sans-serif" font-size="11" lengthAdjust="spacingAndGlyphs" textLength="51" x="197.5" y="211.2339">destroy()</text><path d="M193.5,8 L193.5,33.1328 A0,0 0 0 0 193.5,33.1328 L231,33.1328 L235,92.949 L239,33.1328 L276.5,33.1328 A0,0 0 0 0 276.5,33.1328 L276.5,18 L266.5,8 L193.5,8 A0,0 0 0 0 193.5,8 " fill="#FBFB77" filter="url(#f10jc7f9npm5sw)" style="stroke: #A80036; stroke-width: 1.0;"/><path d="M266.5,8 L266.5,18 L276.5,18 L266.5,8 " fill="#FBFB77" style="stroke: #A80036; stroke-width: 1.0;"/><text fill="#000000" font-family="sans-serif" font-size="13" lengthAdjust="spacingAndGlyphs" textLength="62" x="199.5" y="25.0669">IDM-Tools</text><!--MD5=[ce759e8c2ead738536ae3ed2362a256b]
reverse link BaseAnalyzer to IAnalyzer--><!--MD5=[a48eb68545788eaab7bc776691fbeb7d]
@startuml
note top of BaseAnalyzer
DTK-Tools
end note

class BaseAnalyzer {
    initialize()
    per_experiment()
    filter()
    select_simulation_data()
    finalize()
    destroy()
}

note top of IAnalyzer
IDM-Tools
end note

class IAnalyzer {
    initialize()
    per_group()
    filter()
    map()
    reduce()
    destroy()
}

IAnalyzer -left[hidden]-> BaseAnalyzer
@enduml

PlantUML version 1.2020.11(Sat May 30 10:13:43 UTC 2020)
(GPL source distribution)
Java Runtime: Java(TM) SE Runtime Environment
JVM: Java HotSpot(TM) 64-Bit Server VM
Default Encoding: UTF-8
Language: en
Country: US
--></g></svg>