<?xml version="1.0" encoding="UTF-8" standalone="no"?><svg xmlns="http://www.w3.org/2000/svg" xmlns:xlink="http://www.w3.org/1999/xlink" contentScriptType="application/ecmascript" contentStyleType="text/css" height="283px" preserveAspectRatio="none" style="width:159px;height:283px;" version="1.1" viewBox="0 0 159 283" width="159px" zoomAndPan="magnify"><defs><filter height="300%" id="f11m0gk1yiame" width="300%" x="-1" y="-1"><feGaussianBlur result="blurOut" stdDeviation="2.0"/><feColorMatrix in="blurOut" result="blurOut2" type="matrix" values="0 0 0 0 0 0 0 0 0 0 0 0 0 0 0 0 0 0 .4 0"/><feOffset dx="4.0" dy="4.0" in="blurOut2" result="blurOut3"/><feBlend in="SourceGraphic" in2="blurOut3" mode="normal"/></filter></defs><g><!--MD5=[733ae57ad73ddca760861ab983f10ac6]
class IAnalyzer--><rect fill="#FEFECE" filter="url(#f11m0gk1yiame)" height="48" id="IAnalyzer" style="stroke: #A80036; stroke-width: 1.5;" width="87" x="33.5" y="8"/><ellipse cx="48.5" cy="24" fill="#A9DCDF" rx="11" ry="11" style="stroke: #A80036; stroke-width: 1.0;"/><path d="M50.5781,25.8125 L50.9688,26.7969 L50.5781,26.7969 C50.125,26.7969 50.0156,26.8125 49.8594,26.9219 C49.6094,27.0781 49.4531,27.3594 49.4531,27.6563 C49.4531,27.9219 49.5938,28.1719 49.8125,28.3281 C49.9531,28.4531 50.1563,28.5 50.5781,28.5 L52.9375,28.5 C53.2969,28.5 53.5156,28.4688 53.6563,28.375 C53.9063,28.2344 54.0625,27.9375 54.0625,27.6563 C54.0625,27.375 53.9219,27.125 53.7031,26.9688 C53.5313,26.8281 53.375,26.7969 52.9063,26.7969 L49.5156,18.5938 L45.8438,18.5938 C45.3906,18.5938 45.2656,18.6094 45.1094,18.7031 C44.8594,18.875 44.7031,19.1563 44.7031,19.4375 C44.7031,19.7188 44.8438,19.9688 45.0625,20.1406 C45.2344,20.25 45.4063,20.2813 45.8438,20.2813 L46.9219,20.2813 L44.2813,26.7969 C43.8594,26.7969 43.7031,26.8125 43.5469,26.9219 C43.2969,27.0781 43.1406,27.3594 43.1406,27.6563 C43.1406,28.2188 43.5156,28.5 44.2656,28.5 L46.5313,28.5 C46.8906,28.5 47.1094,28.4688 47.2344,28.375 C47.5,28.2344 47.6406,27.9375 47.6406,27.6563 C47.6406,27.375 47.5156,27.125 47.2969,26.9531 C47.125,26.8281 46.9844,26.7969 46.5313,26.7969 L46.1406,26.7969 L46.5313,25.8125 L50.5781,25.8125 Z M49.875,24.1094 L47.2031,24.1094 L48.5469,20.8438 L49.875,24.1094 Z "/><text fill="#000000" font-family="sans-serif" font-size="12" font-style="italic" lengthAdjust="spacingAndGlyphs" textLength="55" x="62.5" y="28.1543">IAnalyzer</text><line style="stroke: #A80036; stroke-width: 1.5;" x1="34.5" x2="119.5" y1="40" y2="40"/><line style="stroke: #A80036; stroke-width: 1.5;" x1="34.5" x2="119.5" y1="48" y2="48"/><!--MD5=[bed996c03aef9a8595a20ed4cdb545e6]
class BuiltinAnalyzers--><rect fill="#FEFECE" filter="url(#f11m0gk1yiame)" height="48" id="BuiltinAnalyzers" style="stroke: #A80036; stroke-width: 1.5;" width="126" x="14" y="116"/><ellipse cx="29" cy="132" fill="#ADD1B2" rx="11" ry="11" style="stroke: #A80036; stroke-width: 1.0;"/><path d="M31.3438,127.6719 C30.4063,127.2344 29.8125,127.0938 28.9375,127.0938 C26.3125,127.0938 24.3125,129.1719 24.3125,131.8906 L24.3125,133.0156 C24.3125,135.5938 26.4219,137.4844 29.3125,137.4844 C30.5313,137.4844 31.6875,137.1875 32.4375,136.6406 C33.0156,136.2344 33.3438,135.7813 33.3438,135.3906 C33.3438,134.9375 32.9531,134.5469 32.4844,134.5469 C32.2656,134.5469 32.0625,134.625 31.875,134.8125 C31.4219,135.2969 31.4219,135.2969 31.2344,135.3906 C30.8125,135.6563 30.125,135.7813 29.3594,135.7813 C27.3125,135.7813 26.0156,134.6875 26.0156,132.9844 L26.0156,131.8906 C26.0156,130.1094 27.2656,128.7969 29,128.7969 C29.5781,128.7969 30.1875,128.9531 30.6563,129.2031 C31.1406,129.4844 31.3125,129.7031 31.4063,130.1094 C31.4688,130.5156 31.5,130.6406 31.6406,130.7656 C31.7813,130.9063 32.0156,131.0156 32.2344,131.0156 C32.5,131.0156 32.7656,130.875 32.9375,130.6563 C33.0469,130.5 33.0781,130.3125 33.0781,129.8906 L33.0781,128.4688 C33.0781,128.0313 33.0625,127.9063 32.9688,127.75 C32.8125,127.4844 32.5313,127.3438 32.2344,127.3438 C31.9375,127.3438 31.7344,127.4375 31.5156,127.75 L31.3438,127.6719 Z "/><text fill="#000000" font-family="sans-serif" font-size="12" lengthAdjust="spacingAndGlyphs" textLength="94" x="43" y="136.1543">BuiltinAnalyzers</text><line style="stroke: #A80036; stroke-width: 1.5;" x1="15" x2="139" y1="148" y2="148"/><line style="stroke: #A80036; stroke-width: 1.5;" x1="15" x2="139" y1="156" y2="156"/><!--MD5=[e1fc56966ea621ddfc95130853be6b41]
class ExampleAnalyzers--><rect fill="#FEFECE" filter="url(#f11m0gk1yiame)" height="48" id="ExampleAnalyzers" style="stroke: #A80036; stroke-width: 1.5;" width="142" x="6" y="224"/><ellipse cx="21" cy="240" fill="#ADD1B2" rx="11" ry="11" style="stroke: #A80036; stroke-width: 1.0;"/><path d="M23.3438,235.6719 C22.4063,235.2344 21.8125,235.0938 20.9375,235.0938 C18.3125,235.0938 16.3125,237.1719 16.3125,239.8906 L16.3125,241.0156 C16.3125,243.5938 18.4219,245.4844 21.3125,245.4844 C22.5313,245.4844 23.6875,245.1875 24.4375,244.6406 C25.0156,244.2344 25.3438,243.7813 25.3438,243.3906 C25.3438,242.9375 24.9531,242.5469 24.4844,242.5469 C24.2656,242.5469 24.0625,242.625 23.875,242.8125 C23.4219,243.2969 23.4219,243.2969 23.2344,243.3906 C22.8125,243.6563 22.125,243.7813 21.3594,243.7813 C19.3125,243.7813 18.0156,242.6875 18.0156,240.9844 L18.0156,239.8906 C18.0156,238.1094 19.2656,236.7969 21,236.7969 C21.5781,236.7969 22.1875,236.9531 22.6563,237.2031 C23.1406,237.4844 23.3125,237.7031 23.4063,238.1094 C23.4688,238.5156 23.5,238.6406 23.6406,238.7656 C23.7813,238.9063 24.0156,239.0156 24.2344,239.0156 C24.5,239.0156 24.7656,238.875 24.9375,238.6563 C25.0469,238.5 25.0781,238.3125 25.0781,237.8906 L25.0781,236.4688 C25.0781,236.0313 25.0625,235.9063 24.9688,235.75 C24.8125,235.4844 24.5313,235.3438 24.2344,235.3438 C23.9375,235.3438 23.7344,235.4375 23.5156,235.75 L23.3438,235.6719 Z "/><text fill="#000000" font-family="sans-serif" font-size="12" lengthAdjust="spacingAndGlyphs" textLength="110" x="35" y="244.1543">ExampleAnalyzers</text><line style="stroke: #A80036; stroke-width: 1.5;" x1="7" x2="147" y1="256" y2="256"/><line style="stroke: #A80036; stroke-width: 1.5;" x1="7" x2="147" y1="264" y2="264"/><!--MD5=[b11dbf8c00a8983066f1b3f3115e7fa7]
reverse link IAnalyzer to BuiltinAnalyzers--><path d="M77,76.024 C77,89.579 77,104.038 77,115.678 " fill="none" id="IAnalyzer&lt;-BuiltinAnalyzers" style="stroke: #A80036; stroke-width: 1.0;"/><polygon fill="none" points="70.0001,76,77,56,84.0001,76,70.0001,76" style="stroke: #A80036; stroke-width: 1.0;"/><!--MD5=[c84cec34b406476b162ffda16f4ec8cc]
reverse link BuiltinAnalyzers to ExampleAnalyzers--><path d="M77,184.0236 C77,197.5792 77,212.0381 77,223.6784 " fill="none" id="BuiltinAnalyzers&lt;-ExampleAnalyzers" style="stroke: #A80036; stroke-width: 1.0;"/><polygon fill="none" points="70.0001,184.0005,77,164,84.0001,184.0004,70.0001,184.0005" style="stroke: #A80036; stroke-width: 1.0;"/><!--MD5=[454dc9c38fda7c421e827ec0b3e4f641]
@startuml
abstract class IAnalyzer        
IAnalyzer <|- - BuiltinAnalyzers
BuiltinAnalyzers <|- - ExampleAnalyzers
@enduml

PlantUML version 1.2020.11(Sat May 30 10:13:43 UTC 2020)
(GPL source distribution)
Java Runtime: Java(TM) SE Runtime Environment
JVM: Java HotSpot(TM) 64-Bit Server VM
Default Encoding: UTF-8
Language: en
Country: US
--></g></svg>