<?xml version="1.0" encoding="UTF-8" standalone="no"?><svg xmlns="http://www.w3.org/2000/svg" xmlns:xlink="http://www.w3.org/1999/xlink" contentScriptType="application/ecmascript" contentStyleType="text/css" height="173px" preserveAspectRatio="none" style="width:113px;height:173px;" version="1.1" viewBox="0 0 113 173" width="113px" zoomAndPan="magnify"><defs><filter height="300%" id="fv442by6vh3yg" width="300%" x="-1" y="-1"><feGaussianBlur result="blurOut" stdDeviation="2.0"/><feColorMatrix in="blurOut" result="blurOut2" type="matrix" values="0 0 0 0 0 0 0 0 0 0 0 0 0 0 0 0 0 0 .4 0"/><feOffset dx="4.0" dy="4.0" in="blurOut2" result="blurOut3"/><feBlend in="SourceGraphic" in2="blurOut3" mode="normal"/></filter></defs><g><!--MD5=[c87df0a587278ec9f4647c2ac9d233af]
class ITask--><rect fill="#FEFECE" filter="url(#fv442by6vh3yg)" height="48" id="ITask" style="stroke: #A80036; stroke-width: 1.5;" width="63" x="22.5" y="6"/><ellipse cx="37.5" cy="22" fill="#A9DCDF" rx="11" ry="11" style="stroke: #A80036; stroke-width: 1.0;"/><path d="M39.5781,23.8125 L39.9688,24.7969 L39.5781,24.7969 C39.125,24.7969 39.0156,24.8125 38.8594,24.9219 C38.6094,25.0781 38.4531,25.3594 38.4531,25.6563 C38.4531,25.9219 38.5938,26.1719 38.8125,26.3281 C38.9531,26.4531 39.1563,26.5 39.5781,26.5 L41.9375,26.5 C42.2969,26.5 42.5156,26.4688 42.6563,26.375 C42.9063,26.2344 43.0625,25.9375 43.0625,25.6563 C43.0625,25.375 42.9219,25.125 42.7031,24.9688 C42.5313,24.8281 42.375,24.7969 41.9063,24.7969 L38.5156,16.5938 L34.8438,16.5938 C34.3906,16.5938 34.2656,16.6094 34.1094,16.7031 C33.8594,16.875 33.7031,17.1563 33.7031,17.4375 C33.7031,17.7188 33.8438,17.9688 34.0625,18.1406 C34.2344,18.25 34.4063,18.2813 34.8438,18.2813 L35.9219,18.2813 L33.2813,24.7969 C32.8594,24.7969 32.7031,24.8125 32.5469,24.9219 C32.2969,25.0781 32.1406,25.3594 32.1406,25.6563 C32.1406,26.2188 32.5156,26.5 33.2656,26.5 L35.5313,26.5 C35.8906,26.5 36.1094,26.4688 36.2344,26.375 C36.5,26.2344 36.6406,25.9375 36.6406,25.6563 C36.6406,25.375 36.5156,25.125 36.2969,24.9531 C36.125,24.8281 35.9844,24.7969 35.5313,24.7969 L35.1406,24.7969 L35.5313,23.8125 L39.5781,23.8125 Z M38.875,22.1094 L36.2031,22.1094 L37.5469,18.8438 L38.875,22.1094 Z "/><text fill="#000000" font-family="sans-serif" font-size="12" font-style="italic" lengthAdjust="spacingAndGlyphs" textLength="31" x="51.5" y="26.1543">ITask</text><line style="stroke: #A80036; stroke-width: 1.5;" x1="23.5" x2="84.5" y1="38" y2="38"/><line style="stroke: #A80036; stroke-width: 1.5;" x1="23.5" x2="84.5" y1="46" y2="46"/><!--MD5=[f058936ad943780a2af44af6fa98804a]
class EMODTask--><rect fill="#FEFECE" filter="url(#fv442by6vh3yg)" height="48" id="EMODTask" style="stroke: #A80036; stroke-width: 1.5;" width="96" x="6" y="114"/><ellipse cx="21" cy="130" fill="#ADD1B2" rx="11" ry="11" style="stroke: #A80036; stroke-width: 1.0;"/><path d="M23.3438,125.6719 C22.4063,125.2344 21.8125,125.0938 20.9375,125.0938 C18.3125,125.0938 16.3125,127.1719 16.3125,129.8906 L16.3125,131.0156 C16.3125,133.5938 18.4219,135.4844 21.3125,135.4844 C22.5313,135.4844 23.6875,135.1875 24.4375,134.6406 C25.0156,134.2344 25.3438,133.7813 25.3438,133.3906 C25.3438,132.9375 24.9531,132.5469 24.4844,132.5469 C24.2656,132.5469 24.0625,132.625 23.875,132.8125 C23.4219,133.2969 23.4219,133.2969 23.2344,133.3906 C22.8125,133.6563 22.125,133.7813 21.3594,133.7813 C19.3125,133.7813 18.0156,132.6875 18.0156,130.9844 L18.0156,129.8906 C18.0156,128.1094 19.2656,126.7969 21,126.7969 C21.5781,126.7969 22.1875,126.9531 22.6563,127.2031 C23.1406,127.4844 23.3125,127.7031 23.4063,128.1094 C23.4688,128.5156 23.5,128.6406 23.6406,128.7656 C23.7813,128.9063 24.0156,129.0156 24.2344,129.0156 C24.5,129.0156 24.7656,128.875 24.9375,128.6563 C25.0469,128.5 25.0781,128.3125 25.0781,127.8906 L25.0781,126.4688 C25.0781,126.0313 25.0625,125.9063 24.9688,125.75 C24.8125,125.4844 24.5313,125.3438 24.2344,125.3438 C23.9375,125.3438 23.7344,125.4375 23.5156,125.75 L23.3438,125.6719 Z "/><text fill="#000000" font-family="sans-serif" font-size="12" lengthAdjust="spacingAndGlyphs" textLength="64" x="35" y="134.1543">EMODTask</text><line style="stroke: #A80036; stroke-width: 1.5;" x1="7" x2="101" y1="146" y2="146"/><line style="stroke: #A80036; stroke-width: 1.5;" x1="7" x2="101" y1="154" y2="154"/><!--MD5=[67629cf7c9cd86c97b7103b5c7166d8f]
reverse link ITask to EMODTask--><path d="M54,74.0236 C54,87.5792 54,102.0381 54,113.6784 " fill="none" id="ITask&lt;-EMODTask" style="stroke: #A80036; stroke-width: 1.0;"/><polygon fill="none" points="47.0001,74.0005,54,54,61.0001,74.0004,47.0001,74.0005" style="stroke: #A80036; stroke-width: 1.0;"/><!--MD5=[ce90e36e53b0e47519a2d851cd526b67]
@startuml
abstract class ITask
ITask <|- - EMODTask
@enduml

PlantUML version 1.2020.12(Sat Jun 06 10:54:15 UTC 2020)
(GPL source distribution)
Java Runtime: Java(TM) SE Runtime Environment
JVM: Java HotSpot(TM) 64-Bit Server VM
Default Encoding: UTF-8
Language: en
Country: US
--></g></svg>