<?xml version="1.0" encoding="UTF-8" standalone="no"?><svg xmlns="http://www.w3.org/2000/svg" xmlns:xlink="http://www.w3.org/1999/xlink" contentScriptType="application/ecmascript" contentStyleType="text/css" height="292px" preserveAspectRatio="none" style="width:244px;height:292px;" version="1.1" viewBox="0 0 244 292" width="244px" zoomAndPan="magnify"><defs><filter height="300%" id="fhn920117gv3q" width="300%" x="-1" y="-1"><feGaussianBlur result="blurOut" stdDeviation="2.0"/><feColorMatrix in="blurOut" result="blurOut2" type="matrix" values="0 0 0 0 0 0 0 0 0 0 0 0 0 0 0 0 0 0 .4 0"/><feOffset dx="4.0" dy="4.0" in="blurOut2" result="blurOut3"/><feBlend in="SourceGraphic" in2="blurOut3" mode="normal"/></filter></defs><g><!--MD5=[b7f44e7cad61e6c59cb00d03cd3ccdfb]
cluster idmtools--><polygon fill="#FFFFFF" filter="url(#fhn920117gv3q)" points="34,6,112,6,119,28.2969,204,28.2969,204,131,34,131,34,6" style="stroke: #000000; stroke-width: 1.5;"/><line style="stroke: #000000; stroke-width: 1.5;" x1="34" x2="119" y1="28.2969" y2="28.2969"/><text fill="#000000" font-family="sans-serif" font-size="14" font-weight="bold" lengthAdjust="spacingAndGlyphs" textLength="72" x="38" y="20.9951">idmtools</text><!--MD5=[829daeeb29700f335104dbe61342437e]
cluster emodpy--><polygon fill="#FFFFFF" filter="url(#fhn920117gv3q)" points="16,155,85,155,92,177.2969,222,177.2969,222,280,16,280,16,155" style="stroke: #000000; stroke-width: 1.5;"/><line style="stroke: #000000; stroke-width: 1.5;" x1="16" x2="92" y1="177.2969" y2="177.2969"/><text fill="#000000" font-family="sans-serif" font-size="14" font-weight="bold" lengthAdjust="spacingAndGlyphs" textLength="63" x="20" y="169.9951">emodpy</text><!--MD5=[af4c9b49fd16eccd3264a9805d9a5fe6]
class TaskSpecification--><rect codeLine="2" fill="#FEFECE" filter="url(#fhn920117gv3q)" height="73.6094" id="TaskSpecification" style="stroke: #A80036; stroke-width: 1.5;" width="138" x="50" y="41"/><ellipse cx="65.45" cy="57" fill="#ADD1B2" rx="11" ry="11" style="stroke: #A80036; stroke-width: 1.0;"/><path d="M67.7938,52.6719 C66.8563,52.2344 66.2625,52.0938 65.3875,52.0938 C62.7625,52.0938 60.7625,54.1719 60.7625,56.8906 L60.7625,58.0156 C60.7625,60.5938 62.8719,62.4844 65.7625,62.4844 C66.9813,62.4844 68.1375,62.1875 68.8875,61.6406 C69.4656,61.2344 69.7938,60.7813 69.7938,60.3906 C69.7938,59.9375 69.4031,59.5469 68.9344,59.5469 C68.7156,59.5469 68.5125,59.625 68.325,59.8125 C67.8719,60.2969 67.8719,60.2969 67.6844,60.3906 C67.2625,60.6563 66.575,60.7813 65.8094,60.7813 C63.7625,60.7813 62.4656,59.6875 62.4656,57.9844 L62.4656,56.8906 C62.4656,55.1094 63.7156,53.7969 65.45,53.7969 C66.0281,53.7969 66.6375,53.9531 67.1063,54.2031 C67.5906,54.4844 67.7625,54.7031 67.8563,55.1094 C67.9188,55.5156 67.95,55.6406 68.0906,55.7656 C68.2313,55.9063 68.4656,56.0156 68.6844,56.0156 C68.95,56.0156 69.2156,55.875 69.3875,55.6563 C69.4969,55.5 69.5281,55.3125 69.5281,54.8906 L69.5281,53.4688 C69.5281,53.0313 69.5125,52.9063 69.4188,52.75 C69.2625,52.4844 68.9813,52.3438 68.6844,52.3438 C68.3875,52.3438 68.1844,52.4375 67.9656,52.75 L67.7938,52.6719 Z "/><text fill="#000000" font-family="sans-serif" font-size="12" lengthAdjust="spacingAndGlyphs" textLength="105" x="79.55" y="61.1543">TaskSpecification</text><line style="stroke: #A80036; stroke-width: 1.5;" x1="51" x2="187" y1="73" y2="73"/><line style="stroke: #A80036; stroke-width: 1.5;" x1="51" x2="187" y1="81" y2="81"/><text fill="#000000" font-family="sans-serif" font-size="11" font-style="italic" lengthAdjust="spacingAndGlyphs" textLength="126" x="56" y="95.2104">Type[ITask] get_type()</text><text fill="#000000" font-family="sans-serif" font-size="11" font-style="italic" lengthAdjust="spacingAndGlyphs" textLength="59" x="56" y="108.0151">ITask get()</text><!--MD5=[ae4aab417d08a512635d6d0e9bf3c4b9]
class EMODTaskSpecification--><rect codeLine="9" fill="#FEFECE" filter="url(#fhn920117gv3q)" height="73.6094" id="EMODTaskSpecification" style="stroke: #A80036; stroke-width: 1.5;" width="173" x="32.5" y="190"/><ellipse cx="47.5" cy="206" fill="#ADD1B2" rx="11" ry="11" style="stroke: #A80036; stroke-width: 1.0;"/><path d="M49.8438,201.6719 C48.9063,201.2344 48.3125,201.0938 47.4375,201.0938 C44.8125,201.0938 42.8125,203.1719 42.8125,205.8906 L42.8125,207.0156 C42.8125,209.5938 44.9219,211.4844 47.8125,211.4844 C49.0313,211.4844 50.1875,211.1875 50.9375,210.6406 C51.5156,210.2344 51.8438,209.7813 51.8438,209.3906 C51.8438,208.9375 51.4531,208.5469 50.9844,208.5469 C50.7656,208.5469 50.5625,208.625 50.375,208.8125 C49.9219,209.2969 49.9219,209.2969 49.7344,209.3906 C49.3125,209.6563 48.625,209.7813 47.8594,209.7813 C45.8125,209.7813 44.5156,208.6875 44.5156,206.9844 L44.5156,205.8906 C44.5156,204.1094 45.7656,202.7969 47.5,202.7969 C48.0781,202.7969 48.6875,202.9531 49.1563,203.2031 C49.6406,203.4844 49.8125,203.7031 49.9063,204.1094 C49.9688,204.5156 50,204.6406 50.1406,204.7656 C50.2813,204.9063 50.5156,205.0156 50.7344,205.0156 C51,205.0156 51.2656,204.875 51.4375,204.6563 C51.5469,204.5 51.5781,204.3125 51.5781,203.8906 L51.5781,202.4688 C51.5781,202.0313 51.5625,201.9063 51.4688,201.75 C51.3125,201.4844 51.0313,201.3438 50.7344,201.3438 C50.4375,201.3438 50.2344,201.4375 50.0156,201.75 L49.8438,201.6719 Z "/><text fill="#000000" font-family="sans-serif" font-size="12" lengthAdjust="spacingAndGlyphs" textLength="141" x="61.5" y="210.1543">EMODTaskSpecification</text><line style="stroke: #A80036; stroke-width: 1.5;" x1="33.5" x2="204.5" y1="222" y2="222"/><text fill="#000000" font-family="sans-serif" font-size="11" font-style="italic" lengthAdjust="spacingAndGlyphs" textLength="95" x="38.5" y="236.2104">Type[EMODTask]</text><line style="stroke: #A80036; stroke-width: 1.5;" x1="33.5" x2="204.5" y1="242.8047" y2="242.8047"/><text fill="#000000" font-family="sans-serif" font-size="11" font-style="italic" lengthAdjust="spacingAndGlyphs" textLength="127" x="38.5" y="257.0151">TaskSpecification get()</text><!--MD5=[7149f4143931c5ae9acbf550a86816b4]
reverse link TaskSpecification to EMODTaskSpecification--><path codeLine="15" d="M119,120.492 C119,142.325 119,168.839 119,189.826 " fill="none" id="TaskSpecification-backto-EMODTaskSpecification" style="stroke: #A80036; stroke-width: 1.0;"/><polygon fill="#A80036" points="119,115.337,115,124.337,119,120.337,123,124.337,119,115.337" style="stroke: #A80036; stroke-width: 1.0;"/><!--MD5=[a231ba5ca4bd7ff7c71e45fb298946ae]
@startuml
package "idmtools" {
    class TaskSpecification {
        {abstract} Type[ITask] get_type()
        {abstract} ITask get()
    }
}

package "emodpy"{
    class EMODTaskSpecification{
        {abstract} Type[EMODTask]
        {abstract} TaskSpecification get()
    }
}

TaskSpecification <- - EMODTaskSpecification
@enduml

PlantUML version 1.2020.17(Sat Sep 19 12:30:11 UTC 2020)
(GPL source distribution)
Java Runtime: Java(TM) SE Runtime Environment
JVM: Java HotSpot(TM) 64-Bit Server VM
Default Encoding: UTF-8
Language: en
Country: US
--></g></svg>