<?xml version="1.0" encoding="UTF-8" standalone="no"?><svg xmlns="http://www.w3.org/2000/svg" xmlns:xlink="http://www.w3.org/1999/xlink" contentScriptType="application/ecmascript" contentStyleType="text/css" height="941px" preserveAspectRatio="none" style="width:729px;height:941px;" version="1.1" viewBox="0 0 729 941" width="729px" zoomAndPan="magnify"><defs><filter height="300%" id="f10058t6nkm6d8" width="300%" x="-1" y="-1"><feGaussianBlur result="blurOut" stdDeviation="2.0"/><feColorMatrix in="blurOut" result="blurOut2" type="matrix" values="0 0 0 0 0 0 0 0 0 0 0 0 0 0 0 0 0 0 .4 0"/><feOffset dx="4.0" dy="4.0" in="blurOut2" result="blurOut3"/><feBlend in="SourceGraphic" in2="blurOut3" mode="normal"/></filter></defs><g><!--MD5=[c1e1231ca7b322f3bce32411b7c99d5b]
cluster ejo--><polygon fill="#FFFFFF" filter="url(#f10058t6nkm6d8)" points="183.5,24,452.5,24,459.5,46.2969,681.5,46.2969,681.5,495,183.5,495,183.5,24" style="stroke: #000000; stroke-width: 1.5;"/><line style="stroke: #000000; stroke-width: 1.5;" x1="183.5" x2="459.5" y1="46.2969" y2="46.2969"/><text fill="#000000" font-family="sans-serif" font-size="14" font-weight="bold" lengthAdjust="spacingAndGlyphs" textLength="238" x="187.5" y="38.9951">Experiment/Job orchestration</text><!--MD5=[272379cf1f80536b6294ad33393ecec2]
cluster registry--><polygon fill="#FFFFFF" filter="url(#f10058t6nkm6d8)" points="262.5,528,546.5,528,553.5,550.2969,556.5,550.2969,556.5,716,262.5,716,262.5,528" style="stroke: #000000; stroke-width: 1.5;"/><line style="stroke: #000000; stroke-width: 1.5;" x1="262.5" x2="553.5" y1="550.2969" y2="550.2969"/><text fill="#000000" font-family="sans-serif" font-size="14" font-weight="bold" lengthAdjust="spacingAndGlyphs" textLength="253" x="266.5" y="542.9951">registry (Plugin infrastructure)</text><!--MD5=[7c6768d8bd89698131ab6900f7550cc4]
cluster tasks--><polygon fill="#FFFFFF" filter="url(#f10058t6nkm6d8)" points="255.5,842,314.5,842,321.5,864.2969,554.5,864.2969,554.5,929,255.5,929,255.5,842" style="stroke: #000000; stroke-width: 1.5;"/><line style="stroke: #000000; stroke-width: 1.5;" x1="255.5" x2="321.5" y1="864.2969" y2="864.2969"/><text fill="#000000" font-family="sans-serif" font-size="14" font-weight="bold" lengthAdjust="spacingAndGlyphs" textLength="48" x="259.5" y="856.9951">Tasks</text><!--MD5=[4f196ed4e047f01b4d261d766e803089]
entity Assets--><rect fill="#FEFECE" filter="url(#f10058t6nkm6d8)" height="36.2969" style="stroke: #A80036; stroke-width: 1.5;" width="67" x="398" y="443"/><rect fill="#FEFECE" height="5" style="stroke: #A80036; stroke-width: 1.5;" width="10" x="393" y="448"/><rect fill="#FEFECE" height="5" style="stroke: #A80036; stroke-width: 1.5;" width="10" x="393" y="469.2969"/><text fill="#000000" font-family="sans-serif" font-size="14" lengthAdjust="spacingAndGlyphs" textLength="47" x="408" y="465.9951">Assets</text><!--MD5=[3372e0802d7d050329ccc6f764580a49]
entity Experiment--><rect fill="#FEFECE" filter="url(#f10058t6nkm6d8)" height="36.2969" style="stroke: #A80036; stroke-width: 1.5;" width="105" x="200" y="172"/><rect fill="#FEFECE" height="5" style="stroke: #A80036; stroke-width: 1.5;" width="10" x="195" y="177"/><rect fill="#FEFECE" height="5" style="stroke: #A80036; stroke-width: 1.5;" width="10" x="195" y="198.2969"/><text fill="#000000" font-family="sans-serif" font-size="14" lengthAdjust="spacingAndGlyphs" textLength="85" x="210" y="194.9951">Experiment</text><!--MD5=[1bbe330ca109a04aaf74ad92e239389e]
entity ExperimentBuilders--><rect fill="#FEFECE" filter="url(#f10058t6nkm6d8)" height="36.2969" style="stroke: #A80036; stroke-width: 1.5;" width="162" x="503.5" y="172"/><rect fill="#FEFECE" height="5" style="stroke: #A80036; stroke-width: 1.5;" width="10" x="498.5" y="177"/><rect fill="#FEFECE" height="5" style="stroke: #A80036; stroke-width: 1.5;" width="10" x="498.5" y="198.2969"/><text fill="#000000" font-family="sans-serif" font-size="14" lengthAdjust="spacingAndGlyphs" textLength="142" x="513.5" y="194.9951">ExperimentBuilders</text><!--MD5=[ffe7863412ae85ad3f14b25ea50b67df]
entity Simulation--><rect fill="#FEFECE" filter="url(#f10058t6nkm6d8)" height="36.2969" style="stroke: #A80036; stroke-width: 1.5;" width="96" x="495.5" y="315"/><rect fill="#FEFECE" height="5" style="stroke: #A80036; stroke-width: 1.5;" width="10" x="490.5" y="320"/><rect fill="#FEFECE" height="5" style="stroke: #A80036; stroke-width: 1.5;" width="10" x="490.5" y="341.2969"/><text fill="#000000" font-family="sans-serif" font-size="14" lengthAdjust="spacingAndGlyphs" textLength="76" x="505.5" y="337.9951">Simulation</text><!--MD5=[08f7a00d71faf13c08629754422ad5e6]
entity Tasks--><rect fill="#FEFECE" filter="url(#f10058t6nkm6d8)" height="36.2969" style="stroke: #A80036; stroke-width: 1.5;" width="60" x="585.5" y="443"/><rect fill="#FEFECE" height="5" style="stroke: #A80036; stroke-width: 1.5;" width="10" x="580.5" y="448"/><rect fill="#FEFECE" height="5" style="stroke: #A80036; stroke-width: 1.5;" width="10" x="580.5" y="469.2969"/><text fill="#000000" font-family="sans-serif" font-size="14" lengthAdjust="spacingAndGlyphs" textLength="40" x="595.5" y="465.9951">Tasks</text><!--MD5=[e4ef8ffea338babcb5183e75747bbc6e]
entity Platform--><rect fill="#FEFECE" filter="url(#f10058t6nkm6d8)" height="36.2969" style="stroke: #A80036; stroke-width: 1.5;" width="83" x="200" y="443"/><rect fill="#FEFECE" height="5" style="stroke: #A80036; stroke-width: 1.5;" width="10" x="195" y="448"/><rect fill="#FEFECE" height="5" style="stroke: #A80036; stroke-width: 1.5;" width="10" x="195" y="469.2969"/><text fill="#000000" font-family="sans-serif" font-size="14" lengthAdjust="spacingAndGlyphs" textLength="63" x="210" y="465.9951">Platform</text><!--MD5=[672fd63b98880074256e82d85c912995]
entity Suite--><rect fill="#FEFECE" filter="url(#f10058t6nkm6d8)" height="36.2969" style="stroke: #A80036; stroke-width: 1.5;" width="57" x="224" y="59"/><rect fill="#FEFECE" height="5" style="stroke: #A80036; stroke-width: 1.5;" width="10" x="219" y="64"/><rect fill="#FEFECE" height="5" style="stroke: #A80036; stroke-width: 1.5;" width="10" x="219" y="85.2969"/><text fill="#000000" font-family="sans-serif" font-size="14" lengthAdjust="spacingAndGlyphs" textLength="37" x="234" y="81.9951">Suite</text><!--MD5=[5df59aa2065c15f87b95d8b2badd43a6]
entity PlatformAPI--><ellipse cx="370.5" cy="592" fill="#FEFECE" filter="url(#f10058t6nkm6d8)" rx="8" ry="8" style="stroke: #A80036; stroke-width: 2.0;"/><text fill="#000000" font-family="sans-serif" font-size="14" lengthAdjust="spacingAndGlyphs" textLength="86" x="327.5" y="621.9951">PlatformAPI</text><!--MD5=[bd16e8f691229aaacf324dd8d35a0b42]
entity TasksAPI--><ellipse cx="400.5" cy="691" fill="#FEFECE" filter="url(#f10058t6nkm6d8)" rx="8" ry="8" style="stroke: #A80036; stroke-width: 2.0;"/><text fill="#000000" font-family="sans-serif" font-size="14" lengthAdjust="spacingAndGlyphs" textLength="63" x="369" y="720.9951">TasksAPI</text><!--MD5=[4a99ef2c49c3894fca3beb8798742a7e]
entity CommandTask--><rect fill="#FEFECE" filter="url(#f10058t6nkm6d8)" height="36.2969" style="stroke: #A80036; stroke-width: 1.5;" width="126" x="271.5" y="877"/><rect fill="#FEFECE" height="5" style="stroke: #A80036; stroke-width: 1.5;" width="10" x="266.5" y="882"/><rect fill="#FEFECE" height="5" style="stroke: #A80036; stroke-width: 1.5;" width="10" x="266.5" y="903.2969"/><text fill="#000000" font-family="sans-serif" font-size="14" lengthAdjust="spacingAndGlyphs" textLength="106" x="281.5" y="899.9951">CommandTask</text><!--MD5=[848cd629beecce62b7cb6311d0bf4712]
entity DockerTask--><rect fill="#FEFECE" filter="url(#f10058t6nkm6d8)" height="36.2969" style="stroke: #A80036; stroke-width: 1.5;" width="105" x="433" y="877"/><rect fill="#FEFECE" height="5" style="stroke: #A80036; stroke-width: 1.5;" width="10" x="428" y="882"/><rect fill="#FEFECE" height="5" style="stroke: #A80036; stroke-width: 1.5;" width="10" x="428" y="903.2969"/><text fill="#000000" font-family="sans-serif" font-size="14" lengthAdjust="spacingAndGlyphs" textLength="85" x="443" y="899.9951">DockerTask</text><!--MD5=[ccf70f5b4dc53f11b08ff970995a0d11]
entity Analyzers--><rect fill="#FEFECE" filter="url(#f10058t6nkm6d8)" height="36.2969" style="stroke: #A80036; stroke-width: 1.5;" width="89" x="6" y="315"/><rect fill="#FEFECE" height="5" style="stroke: #A80036; stroke-width: 1.5;" width="10" x="1" y="320"/><rect fill="#FEFECE" height="5" style="stroke: #A80036; stroke-width: 1.5;" width="10" x="1" y="341.2969"/><text fill="#000000" font-family="sans-serif" font-size="14" lengthAdjust="spacingAndGlyphs" textLength="69" x="16" y="337.9951">Analyzers</text><!--MD5=[a43456d7b758e89a87a8074f37461872]
link Analyzers to Platform--><path d="M44.0231,351.063 C38.6057,368.531 33.7527,395.524 47.5,413 C66.0875,436.628 148.589,449.817 199.833,455.864 " fill="none" id="Analyzers-Platform" style="stroke: #A80036; stroke-width: 1.0; stroke-dasharray: 7.0,7.0;"/><text fill="#000000" font-family="sans-serif" font-size="13" lengthAdjust="spacingAndGlyphs" textLength="160" x="48.5" y="401.5669">Load Data from Platform</text><!--MD5=[cdb69f6474f324ae2f52b6faebca741e]
link ExperimentBuilders to Experiment--><path d="M503.331,190 C441.577,190 358.405,190 305.106,190 " fill="none" id="ExperimentBuilders-Experiment" style="stroke: #A80036; stroke-width: 1.0; stroke-dasharray: 7.0,7.0;"/><text fill="#000000" font-family="sans-serif" font-size="13" lengthAdjust="spacingAndGlyphs" textLength="158" x="323.25" y="153.0669">ExperimentBuilders build</text><text fill="#000000" font-family="sans-serif" font-size="13" lengthAdjust="spacingAndGlyphs" textLength="119" x="342.75" y="168.1997">experiments using</text><text fill="#000000" font-family="sans-serif" font-size="13" lengthAdjust="spacingAndGlyphs" textLength="143" x="332.75" y="183.3325">templated simulations</text><!--MD5=[d65b0d30fbe025bf0fc6448f9794a6e1]
link ExperimentBuilders to Simulation--><path d="M579.554,208.008 C571.674,235.109 556.355,287.793 548.463,314.932 " fill="none" id="ExperimentBuilders-Simulation" style="stroke: #A80036; stroke-width: 1.0; stroke-dasharray: 7.0,7.0;"/><text fill="#000000" font-family="sans-serif" font-size="13" lengthAdjust="spacingAndGlyphs" textLength="124" x="582" y="251.0669">ExperimentBuilders</text><text fill="#000000" font-family="sans-serif" font-size="13" lengthAdjust="spacingAndGlyphs" textLength="143" x="574.5" y="266.1997">uses Simulations from</text><text fill="#000000" font-family="sans-serif" font-size="13" lengthAdjust="spacingAndGlyphs" textLength="143" x="574.5" y="281.3325">TemplatedSimulations</text><!--MD5=[450591a66cef4befbd6c08c0c9844639]
link Platform to PlatformAPI--><path d="M258.63,479.13 C285.193,505.693 335.645,556.145 358.598,579.098 " fill="none" id="Platform-&gt;PlatformAPI" style="stroke: #A80036; stroke-width: 1.0;"/><polygon fill="#A80036" points="362.295,582.795,358.7595,573.6026,358.7595,579.2595,353.1026,579.2595,362.295,582.795" style="stroke: #A80036; stroke-width: 1.0;"/><!--MD5=[024511738a429c711ab439f0b7d351cf]
link PlatformAPI to TasksAPI--><path d="M373.058,601.27 C378.726,619.596 392.287,663.444 397.949,681.751 " fill="none" id="PlatformAPI-TasksAPI" style="stroke: #A80036; stroke-width: 1.0; stroke-dasharray: 7.0,7.0;"/><!--MD5=[61abddd96610a07eac548c19edabf5b3]
link Suite to Experiment--><path d="M252.5,95.344 C252.5,114.568 252.5,145.63 252.5,166.661 " fill="none" id="Suite-&gt;Experiment" style="stroke: #A80036; stroke-width: 1.0;"/><polygon fill="#A80036" points="252.5,171.778,256.5,162.778,252.5,166.778,248.5,162.778,252.5,171.778" style="stroke: #A80036; stroke-width: 1.0;"/><text fill="#000000" font-family="sans-serif" font-size="13" lengthAdjust="spacingAndGlyphs" textLength="160" x="253.5" y="138.0669">Suites have Experiments</text><!--MD5=[fef91b4987bfe35ab8076a6086a8ce2f]
link Assets to Platform--><path d="M392.701,461 C362.55,461 320.605,461 288.541,461 " fill="none" id="Assets-Platform" style="stroke: #A80036; stroke-width: 1.0; stroke-dasharray: 7.0,7.0;"/><polygon fill="#A80036" points="283.196,461,292.196,465,288.196,461,292.196,457,283.196,461" style="stroke: #A80036; stroke-width: 1.0;"/><polygon fill="#A80036" points="397.811,461,388.811,457,392.811,461,388.811,465,397.811,461" style="stroke: #A80036; stroke-width: 1.0;"/><text fill="#000000" font-family="sans-serif" font-size="13" lengthAdjust="spacingAndGlyphs" textLength="78" x="301.5" y="454.0669">Load/Create</text><!--MD5=[8ae163177376500ac73e981eda41a075]
link Experiment to Platform--><path d="M245.027,213.197 C232.542,253.295 210.072,340.391 223.5,413 C225.053,421.396 228.043,430.23 231.147,437.945 " fill="none" id="Experiment-Platform" style="stroke: #A80036; stroke-width: 1.0; stroke-dasharray: 7.0,7.0;"/><polygon fill="#A80036" points="233.082,442.59,233.3134,432.7439,231.1592,437.9745,225.9286,435.8203,233.082,442.59" style="stroke: #A80036; stroke-width: 1.0;"/><polygon fill="#A80036" points="246.645,208.086,240.116,215.4598,245.1365,212.853,247.7433,217.8734,246.645,208.086" style="stroke: #A80036; stroke-width: 1.0;"/><text fill="#000000" font-family="sans-serif" font-size="13" lengthAdjust="spacingAndGlyphs" textLength="78" x="224.5" y="337.5669">Load/Create</text><!--MD5=[92c857f2241507eefe84a082179e71a0]
link Experiment to Simulation--><path d="M305.219,205.313 C332.218,213.451 365.262,224.679 393.5,238 C438.537,259.245 486.654,291.254 515.91,311.89 " fill="none" id="Experiment-&gt;Simulation" style="stroke: #A80036; stroke-width: 1.0;"/><polygon fill="#A80036" points="520.087,314.849,515.0582,306.3807,516.008,311.9573,510.4315,312.9071,520.087,314.849" style="stroke: #A80036; stroke-width: 1.0;"/><!--MD5=[ca9e80471d81cb430443349dae0e8f80]
link Experiment to Assets--><path d="M263.723,208.164 C278.115,231.302 302.312,274.304 311.5,315 C315.024,330.607 318.655,336.689 311.5,351 C301.562,370.876 281.438,361.124 271.5,381 C265.14,393.721 262.978,401.614 271.5,413 C286.045,432.433 350.183,446.573 392.705,454.017 " fill="none" id="Experiment-&gt;Assets" style="stroke: #A80036; stroke-width: 1.0;"/><polygon fill="#A80036" points="397.778,454.891,389.5875,449.4215,392.8505,454.0424,388.2297,457.3054,397.778,454.891" style="stroke: #A80036; stroke-width: 1.0;"/><text fill="#000000" font-family="sans-serif" font-size="13" lengthAdjust="spacingAndGlyphs" textLength="74" x="317.5" y="330.0669">Experiment</text><text fill="#000000" font-family="sans-serif" font-size="13" lengthAdjust="spacingAndGlyphs" textLength="43" x="333" y="345.1997">Assets</text><!--MD5=[40df34385e4cd0694b4b4a04a1912198]
link Simulation to Assets--><path d="M495.259,344.989 C461.819,353.697 421.561,366.738 411.5,381 C399.573,397.908 407.801,421.28 417.048,438.213 " fill="none" id="Simulation-&gt;Assets" style="stroke: #A80036; stroke-width: 1.0;"/><polygon fill="#A80036" points="419.667,442.807,418.6837,433.0073,417.1903,438.4635,411.7342,436.9701,419.667,442.807" style="stroke: #A80036; stroke-width: 1.0;"/><text fill="#000000" font-family="sans-serif" font-size="13" lengthAdjust="spacingAndGlyphs" textLength="149" x="412.5" y="401.5669">Simulation-level Assets</text><!--MD5=[d1d32c509025e9d75ff89486b17075a5]
link Simulation to Platform--><path d="M490.121,346.275 C482.862,347.893 475.502,349.506 468.5,351 C402.009,365.182 378.235,348.536 318.5,381 C292.686,395.029 270.161,420.61 256.252,438.863 " fill="none" id="Simulation-Platform" style="stroke: #A80036; stroke-width: 1.0; stroke-dasharray: 7.0,7.0;"/><polygon fill="#A80036" points="253.246,442.87,261.846,438.07,256.246,438.87,255.446,433.27,253.246,442.87" style="stroke: #A80036; stroke-width: 1.0;"/><polygon fill="#A80036" points="495.126,345.155,485.4699,343.2158,490.2465,346.2463,487.216,351.0229,495.126,345.155" style="stroke: #A80036; stroke-width: 1.0;"/><text fill="#000000" font-family="sans-serif" font-size="13" lengthAdjust="spacingAndGlyphs" textLength="78" x="319.5" y="401.5669">Load/Create</text><!--MD5=[ac074d99f721fb6f0572dd38b98b6c0b]
link Simulation to Tasks--><path d="M553.36,351.256 C566.34,373.971 589.157,413.899 603.236,438.538 " fill="none" id="Simulation-&gt;Tasks" style="stroke: #A80036; stroke-width: 1.0;"/><polygon fill="#A80036" points="605.759,442.953,604.7643,433.1545,603.2772,438.6124,597.8193,437.1253,605.759,442.953" style="stroke: #A80036; stroke-width: 1.0;"/><text fill="#000000" font-family="sans-serif" font-size="13" lengthAdjust="spacingAndGlyphs" textLength="86" x="588.5" y="394.0669">All Simulation</text><text fill="#000000" font-family="sans-serif" font-size="13" lengthAdjust="spacingAndGlyphs" textLength="70" x="596.5" y="409.1997">have tasks</text><!--MD5=[f7520fdea93e2814d3a1f09a8bec5806]
link Tasks to Assets--><path d="M585.319,461 C554,461 504.894,461 470.617,461 " fill="none" id="Tasks-&gt;Assets" style="stroke: #A80036; stroke-width: 1.0;"/><polygon fill="#A80036" points="465.248,461,474.248,465,470.248,461,474.248,457,465.248,461" style="stroke: #A80036; stroke-width: 1.0;"/><text fill="#000000" font-family="sans-serif" font-size="13" lengthAdjust="spacingAndGlyphs" textLength="84" x="483.25" y="454.0669">Tasks Assets</text><!--MD5=[0f3fdaebceb3a9d7e093261196070504]
link Tasks to TasksAPI--><path d="M595.637,483.064 C551.46,529.912 446.248,641.486 411.702,678.121 " fill="none" id="Tasks-TasksAPI" style="stroke: #A80036; stroke-width: 1.0;"/><polygon fill="#A80036" points="408.213,681.82,417.2971,678.0149,411.6427,678.1817,411.4759,672.5273,408.213,681.82" style="stroke: #A80036; stroke-width: 1.0;"/><polygon fill="#A80036" points="599.34,479.137,590.2551,482.9403,595.9096,482.7746,596.0753,488.429,599.34,479.137" style="stroke: #A80036; stroke-width: 1.0;"/><text fill="#000000" font-family="sans-serif" font-size="13" lengthAdjust="spacingAndGlyphs" textLength="55" x="560.5" y="596.5669">Uses API</text><!--MD5=[a557e59a54de687d37ace2de0c5551a6]
reverse link TasksAPI to CommandTask--><path d="M390.188,703.912 C379.192,717.321 362.189,740.219 353.5,763 C338.676,801.865 335.316,851.2582 334.62,876.864 " fill="none" id="TasksAPI&lt;-CommandTask" style="stroke: #A80036; stroke-width: 1.0;"/><polygon fill="#A80036" points="393.392,700.067,384.5583,704.4219,390.1918,703.9087,390.705,709.5422,393.392,700.067" style="stroke: #A80036; stroke-width: 1.0;"/><text fill="#000000" font-family="sans-serif" font-size="13" lengthAdjust="spacingAndGlyphs" textLength="95" x="354.5" y="776.0669">Implements as</text><text fill="#000000" font-family="sans-serif" font-size="13" lengthAdjust="spacingAndGlyphs" textLength="95" x="354.5" y="791.1997">a Generic Task</text><!--MD5=[1c24ac0387436c2cabc89baaf3c2748a]
reverse link TasksAPI to DockerTask--><path d="M412.405,704.235 C424.745,717.598 443.71,740.158 454.5,763 C472.568,801.249 480.583,850.8977 483.729,876.7056 " fill="none" id="TasksAPI&lt;-DockerTask" style="stroke: #A80036; stroke-width: 1.0;"/><polygon fill="#A80036" points="408.804,700.393,412.0406,709.6949,412.2234,704.041,417.8773,704.2238,408.804,700.393" style="stroke: #A80036; stroke-width: 1.0;"/><text fill="#000000" font-family="sans-serif" font-size="13" lengthAdjust="spacingAndGlyphs" textLength="210" x="468.5" y="783.5669">Implements Python-based Tasks</text><!--MD5=[06bf05bb8afaa5f61746ab3002a7b0b8]
@startuml
[Analyzers]
package "Experiment/Job orchestration     " as ejo {
    [Assets]
    [Experiment]
    [ExperimentBuilders]
    [Simulation]
    [Tasks]
    [Platform]
    [Suite]
}

package "registry (Plugin infrastructure)     " as registry {
    () "PlatformAPI" as PlatformAPI
    () "TasksAPI" as TasksAPI
}

package "Tasks " as tasks {
  [CommandTask]
  [DockerTask]
}

Analyzers .. Platform: Load Data from Platform
ExperimentBuilders . Experiment: ExperimentBuilders build \nexperiments using \ntemplated simulations
ExperimentBuilders . Simulation : ExperimentBuilders\n uses Simulations from\n TemplatedSimulations
Platform - -> PlatformAPI
PlatformAPI .. TasksAPI
[Suite] -down-> Experiment : Suites have Experiments
[Assets] <.> Platform : Load/Create
[Experiment] <.down.> Platform : Load/Create
[Experiment] -down-> Simulation
[Experiment] -right-> [Assets] : Experiment\nAssets
[Simulation] -> Assets: Simulation-level Assets
[Simulation] <.> Platform : Load/Create
[Simulation] -down-> [Tasks] : All Simulation\nhave tasks
[Tasks] -> Assets : Tasks Assets
[Tasks] <- - -> TasksAPI : Uses API
TasksAPI <-right- - CommandTask : Implements as\na Generic Task
TasksAPI <-down- - DockerTask: Implements Python-based Tasks
@enduml

PlantUML version 1.2020.10(Sun May 17 09:48:49 UTC 2020)
(GPL source distribution)
Java Runtime: Java(TM) SE Runtime Environment
JVM: Java HotSpot(TM) 64-Bit Server VM
Operating System: Linux
Default Encoding: UTF-8
Language: en
Country: US
--></g></svg>