<?xml version="1.0" encoding="UTF-8" standalone="no"?><svg xmlns="http://www.w3.org/2000/svg" xmlns:xlink="http://www.w3.org/1999/xlink" contentScriptType="application/ecmascript" contentStyleType="text/css" height="351px" preserveAspectRatio="none" style="width:506px;height:351px;" version="1.1" viewBox="0 0 506 351" width="506px" zoomAndPan="magnify"><defs><filter height="300%" id="f1j0t09v6sc2jd" width="300%" x="-1" y="-1"><feGaussianBlur result="blurOut" stdDeviation="2.0"/><feColorMatrix in="blurOut" result="blurOut2" type="matrix" values="0 0 0 0 0 0 0 0 0 0 0 0 0 0 0 0 0 0 .4 0"/><feOffset dx="4.0" dy="4.0" in="blurOut2" result="blurOut3"/><feBlend in="SourceGraphic" in2="blurOut3" mode="normal"/></filter></defs><g><!--MD5=[272379cf1f80536b6294ad33393ecec2]
cluster registry--><polygon fill="#FFFFFF" filter="url(#f1j0t09v6sc2jd)" points="151,6,270,6,277,28.2969,280,28.2969,280,75,151,75,151,6" style="stroke: #000000; stroke-width: 1.5;"/><line style="stroke: #000000; stroke-width: 1.5;" x1="151" x2="277" y1="28.2969" y2="28.2969"/><text fill="#000000" font-family="sans-serif" font-size="14" font-weight="bold" lengthAdjust="spacingAndGlyphs" textLength="113" x="155" y="20.9951">idmtools-core</text><!--MD5=[a60570e4b426f702ccbb0d459e3b9417]
cluster models--><polygon fill="#FFFFFF" filter="url(#f1j0t09v6sc2jd)" points="16,124,158,124,165,146.2969,477,146.2969,477,339,16,339,16,124" style="stroke: #000000; stroke-width: 1.5;"/><line style="stroke: #000000; stroke-width: 1.5;" x1="16" x2="165" y1="146.2969" y2="146.2969"/><text fill="#000000" font-family="sans-serif" font-size="14" font-weight="bold" lengthAdjust="spacingAndGlyphs" textLength="136" x="20" y="138.9951">idmtools-models</text><!--MD5=[bd16e8f691229aaacf324dd8d35a0b42]
entity TasksAPI--><ellipse cx="203" cy="50" fill="#FEFECE" filter="url(#f1j0t09v6sc2jd)" rx="8" ry="8" style="stroke: #A80036; stroke-width: 2.0;"/><text fill="#000000" font-family="sans-serif" font-size="14" lengthAdjust="spacingAndGlyphs" textLength="63" x="171.5" y="79.9951">TasksAPI</text><!--MD5=[71314f0abb86b1f8c65830bf18b7985f]
entity PythonTask--><rect fill="#FEFECE" filter="url(#f1j0t09v6sc2jd)" height="36.2969" style="stroke: #A80036; stroke-width: 1.5;" width="104" x="254" y="159"/><rect fill="#FEFECE" height="5" style="stroke: #A80036; stroke-width: 1.5;" width="10" x="249" y="164"/><rect fill="#FEFECE" height="5" style="stroke: #A80036; stroke-width: 1.5;" width="10" x="249" y="185.2969"/><text fill="#000000" font-family="sans-serif" font-size="14" lengthAdjust="spacingAndGlyphs" textLength="84" x="264" y="181.9951">PythonTask</text><!--MD5=[78c005af211dc881a9bcb46c6a9dd527]
entity JSONConfiguredPythonTask--><rect fill="#FEFECE" filter="url(#f1j0t09v6sc2jd)" height="36.2969" style="stroke: #A80036; stroke-width: 1.5;" width="217" x="243.5" y="287"/><rect fill="#FEFECE" height="5" style="stroke: #A80036; stroke-width: 1.5;" width="10" x="238.5" y="292"/><rect fill="#FEFECE" height="5" style="stroke: #A80036; stroke-width: 1.5;" width="10" x="238.5" y="313.2969"/><text fill="#000000" font-family="sans-serif" font-size="14" lengthAdjust="spacingAndGlyphs" textLength="197" x="253.5" y="309.9951">JSONConfiguredPythonTask</text><!--MD5=[654b3c96b9447c29b93065952dd9ce04]
entity RTask--><rect fill="#FEFECE" filter="url(#f1j0t09v6sc2jd)" height="36.2969" style="stroke: #A80036; stroke-width: 1.5;" width="63" x="65.5" y="159"/><rect fill="#FEFECE" height="5" style="stroke: #A80036; stroke-width: 1.5;" width="10" x="60.5" y="164"/><rect fill="#FEFECE" height="5" style="stroke: #A80036; stroke-width: 1.5;" width="10" x="60.5" y="185.2969"/><text fill="#000000" font-family="sans-serif" font-size="14" lengthAdjust="spacingAndGlyphs" textLength="43" x="75.5" y="181.9951">RTask</text><!--MD5=[b4bd6cb385b6f98b72f9a9fa094964b3]
entity JSONConfiguredRTask--><rect fill="#FEFECE" filter="url(#f1j0t09v6sc2jd)" height="36.2969" style="stroke: #A80036; stroke-width: 1.5;" width="176" x="32" y="287"/><rect fill="#FEFECE" height="5" style="stroke: #A80036; stroke-width: 1.5;" width="10" x="27" y="292"/><rect fill="#FEFECE" height="5" style="stroke: #A80036; stroke-width: 1.5;" width="10" x="27" y="313.2969"/><text fill="#000000" font-family="sans-serif" font-size="14" lengthAdjust="spacingAndGlyphs" textLength="156" x="42" y="309.9951">JSONConfiguredRTask</text><!--MD5=[95de2c953c602095bacd8574af0913ba]
reverse link PythonTask to JSONConfiguredPythonTask--><path d="M314.031,199.998 C323.068,224.752 337.557,264.4375 345.776,286.9528 " fill="none" id="PythonTask&lt;-JSONConfiguredPythonTask" style="stroke: #A80036; stroke-width: 1.0;"/><polygon fill="#A80036" points="312.3,195.256,311.6316,205.0822,314.0159,199.9523,319.1458,202.3366,312.3,195.256" style="stroke: #A80036; stroke-width: 1.0;"/><text fill="#000000" font-family="sans-serif" font-size="13" lengthAdjust="spacingAndGlyphs" textLength="155" x="335" y="238.0669">Adds JSON configuration</text><text fill="#000000" font-family="sans-serif" font-size="13" lengthAdjust="spacingAndGlyphs" textLength="115" x="357" y="253.1997">file to PythonTask</text><!--MD5=[6f4f8ee5d6445d94d82fc2fcc35c7619]
reverse link RTask to JSONConfiguredRTask--><path d="M97.5519,200.291 C98.2909,216.232 100.01,238.119 104,257 C106.138,267.12 109.788,278.0797 113.062,286.8682 " fill="none" id="RTask&lt;-JSONConfiguredRTask" style="stroke: #A80036; stroke-width: 1.0;"/><polygon fill="#A80036" points="97.337,195.126,93.7133,204.284,97.5441,200.1217,101.7064,203.9526,97.337,195.126" style="stroke: #A80036; stroke-width: 1.0;"/><text fill="#000000" font-family="sans-serif" font-size="13" lengthAdjust="spacingAndGlyphs" textLength="155" x="105" y="238.0669">Adds JSON configuration</text><text fill="#000000" font-family="sans-serif" font-size="13" lengthAdjust="spacingAndGlyphs" textLength="115" x="127" y="253.1997">file to PythonTask</text><!--MD5=[5689266f3ad8e1df2f0671935df3472d]
reverse link TasksAPI to PythonTask--><path d="M217.205,55.984 C232.62,62.053 257.028,73.685 272,91 C289.153,110.837 298.319,140.414 302.668,158.934 " fill="none" id="TasksAPI&lt;-PythonTask" style="stroke: #A80036; stroke-width: 1.0;"/><polygon fill="#A80036" points="212.349,54.139,219.3418,61.0744,217.0231,55.9146,222.1829,53.5959,212.349,54.139" style="stroke: #A80036; stroke-width: 1.0;"/><text fill="#000000" font-family="sans-serif" font-size="13" lengthAdjust="spacingAndGlyphs" textLength="210" x="284" y="104.0669">Implements Python-based Tasks</text><!--MD5=[bea4353e7b40c4a64aa4adee3ce89cd0]
reverse link TasksAPI to RTask--><path d="M188.513,51.084 C163.158,52.11 111.23,58.325 88,91 C73.8126,110.956 81.6524,140.498 89.0188,158.979 " fill="none" id="TasksAPI&lt;-RTask" style="stroke: #A80036; stroke-width: 1.0;"/><polygon fill="#A80036" points="193.786,50.93,184.6733,47.1939,188.7881,51.0757,184.9064,55.1906,193.786,50.93" style="stroke: #A80036; stroke-width: 1.0;"/><text fill="#000000" font-family="sans-serif" font-size="13" lengthAdjust="spacingAndGlyphs" textLength="174" x="89" y="104.0669">Implements R-based Tasks</text><!--MD5=[196d987feeac365348dd30c4e0ca1eb2]
@startuml
package "idmtools-core" as registry {
    () "TasksAPI" as TasksAPI
}

package "idmtools-models" as models {
    [PythonTask]
    [JSONConfiguredPythonTask]
    [RTask]
    [JSONConfiguredRTask]
    PythonTask <- - JSONConfiguredPythonTask: Adds JSON configuration\n file to PythonTask
    RTask <- - JSONConfiguredRTask: Adds JSON configuration\n file to PythonTask
}

TasksAPI <- - PythonTask: Implements Python-based Tasks
TasksAPI <- RTask : Implements R-based Tasks
@enduml

PlantUML version 1.2020.12(Sat Jun 06 10:54:15 UTC 2020)
(GPL source distribution)
Java Runtime: Java(TM) SE Runtime Environment
JVM: Java HotSpot(TM) 64-Bit Server VM
Default Encoding: UTF-8
Language: en
Country: US
--></g></svg>