<?xml version="1.0" encoding="UTF-8" standalone="no"?><svg xmlns="http://www.w3.org/2000/svg" xmlns:xlink="http://www.w3.org/1999/xlink" contentScriptType="application/ecmascript" contentStyleType="text/css" height="304px" preserveAspectRatio="none" style="width:846px;height:304px;" version="1.1" viewBox="0 0 846 304" width="846px" zoomAndPan="magnify"><defs><filter height="300%" id="f10xip8qwks1hd" width="300%" x="-1" y="-1"><feGaussianBlur result="blurOut" stdDeviation="2.0"/><feColorMatrix in="blurOut" result="blurOut2" type="matrix" values="0 0 0 0 0 0 0 0 0 0 0 0 0 0 0 0 0 0 .4 0"/><feOffset dx="4.0" dy="4.0" in="blurOut2" result="blurOut3"/><feBlend in="SourceGraphic" in2="blurOut3" mode="normal"/></filter></defs><g><!--MD5=[18e0cda30f73ac5722c6ca9bf3c84e2e]
entity idmtools--><rect fill="#FEFECE" filter="url(#f10xip8qwks1hd)" height="36.2969" style="stroke: #A80036; stroke-width: 1.5;" width="83" x="433.5" y="131"/><rect fill="#FEFECE" height="5" style="stroke: #A80036; stroke-width: 1.5;" width="10" x="428.5" y="136"/><rect fill="#FEFECE" height="5" style="stroke: #A80036; stroke-width: 1.5;" width="10" x="428.5" y="157.2969"/><text fill="#000000" font-family="sans-serif" font-size="14" lengthAdjust="spacingAndGlyphs" textLength="63" x="443.5" y="153.9951">idmtools</text><path d="M552,106 L552,145 L516.82,149 L552,153 L552,191.6641 A0,0 0 0 0 552,191.6641 L802,191.6641 A0,0 0 0 0 802,191.6641 L802,116 L792,106 L552,106 A0,0 0 0 0 552,106 " fill="#FBFB77" filter="url(#f10xip8qwks1hd)" style="stroke: #A80036; stroke-width: 1.0;"/><path d="M792,106 L792,116 L802,116 L792,106 " fill="#FBFB77" style="stroke: #A80036; stroke-width: 1.0;"/><text fill="#000000" font-family="sans-serif" font-size="13" lengthAdjust="spacingAndGlyphs" textLength="216" x="558" y="123.0669">Provides Plugin Infrastructure and</text><text fill="#000000" font-family="sans-serif" font-size="13" lengthAdjust="spacingAndGlyphs" textLength="203" x="558" y="138.1997">common APIS like Experiments,</text><text fill="#000000" font-family="sans-serif" font-size="13" lengthAdjust="spacingAndGlyphs" textLength="202" x="558" y="153.3325">Simulations, Suites, Workitems,</text><text fill="#000000" font-family="sans-serif" font-size="13" lengthAdjust="spacingAndGlyphs" textLength="228" x="558" y="168.4653">Tasks, and Platforms. Also contains</text><text fill="#000000" font-family="sans-serif" font-size="13" lengthAdjust="spacingAndGlyphs" textLength="229" x="558" y="183.5981">tools for building Simulations in bulk</text><!--MD5=[d81fc142acf7a269b9935adf33a44c7d]
entity idmtools-cli--><rect fill="#FEFECE" filter="url(#f10xip8qwks1hd)" height="36.2969" style="stroke: #A80036; stroke-width: 1.5;" width="105" x="343.5" y="8"/><rect fill="#FEFECE" height="5" style="stroke: #A80036; stroke-width: 1.5;" width="10" x="338.5" y="13"/><rect fill="#FEFECE" height="5" style="stroke: #A80036; stroke-width: 1.5;" width="10" x="338.5" y="34.2969"/><text fill="#000000" font-family="sans-serif" font-size="14" lengthAdjust="spacingAndGlyphs" textLength="85" x="353.5" y="30.9951">idmtools-cli</text><path d="M161.5,6 L161.5,46.2656 A0,0 0 0 0 161.5,46.2656 L308.5,46.2656 A0,0 0 0 0 308.5,46.2656 L308.5,30 L343.413,26 L308.5,22 L308.5,16 L298.5,6 L161.5,6 A0,0 0 0 0 161.5,6 " fill="#FBFB77" filter="url(#f10xip8qwks1hd)" style="stroke: #A80036; stroke-width: 1.0;"/><path d="M298.5,6 L298.5,16 L308.5,16 L298.5,6 " fill="#FBFB77" style="stroke: #A80036; stroke-width: 1.0;"/><text fill="#000000" font-family="sans-serif" font-size="13" lengthAdjust="spacingAndGlyphs" textLength="125" x="167.5" y="23.0669">Provides the CLI for</text><text fill="#000000" font-family="sans-serif" font-size="13" lengthAdjust="spacingAndGlyphs" textLength="126" x="167.5" y="38.1997">idmtools. (Optional)</text><!--MD5=[48de66e59a328d9225ceb0bd55c9bb29]
entity idmtools-models--><rect fill="#FEFECE" filter="url(#f10xip8qwks1hd)" height="36.2969" style="stroke: #A80036; stroke-width: 1.5;" width="141" x="483.5" y="8"/><rect fill="#FEFECE" height="5" style="stroke: #A80036; stroke-width: 1.5;" width="10" x="478.5" y="13"/><rect fill="#FEFECE" height="5" style="stroke: #A80036; stroke-width: 1.5;" width="10" x="478.5" y="34.2969"/><text fill="#000000" font-family="sans-serif" font-size="14" lengthAdjust="spacingAndGlyphs" textLength="121" x="493.5" y="30.9951">idmtools-models</text><path d="M659.5,6 L659.5,22 L624.867,26 L659.5,30 L659.5,46.2656 A0,0 0 0 0 659.5,46.2656 L834.5,46.2656 A0,0 0 0 0 834.5,46.2656 L834.5,16 L824.5,6 L659.5,6 A0,0 0 0 0 659.5,6 " fill="#FBFB77" filter="url(#f10xip8qwks1hd)" style="stroke: #A80036; stroke-width: 1.0;"/><path d="M824.5,6 L824.5,16 L834.5,16 L824.5,6 " fill="#FBFB77" style="stroke: #A80036; stroke-width: 1.0;"/><text fill="#000000" font-family="sans-serif" font-size="13" lengthAdjust="spacingAndGlyphs" textLength="154" x="665.5" y="23.0669">Provides common tasks</text><text fill="#000000" font-family="sans-serif" font-size="13" lengthAdjust="spacingAndGlyphs" textLength="108" x="669.5" y="38.1997">for Python and R</text><!--MD5=[9c745974f04ed06c06fcc37d0b8ce56f]
entity idmtools-platform-comps--><rect fill="#FEFECE" filter="url(#f10xip8qwks1hd)" height="36.2969" style="stroke: #A80036; stroke-width: 1.5;" width="207" x="191.5" y="131"/><rect fill="#FEFECE" height="5" style="stroke: #A80036; stroke-width: 1.5;" width="10" x="186.5" y="136"/><rect fill="#FEFECE" height="5" style="stroke: #A80036; stroke-width: 1.5;" width="10" x="186.5" y="157.2969"/><text fill="#000000" font-family="sans-serif" font-size="14" lengthAdjust="spacingAndGlyphs" textLength="187" x="201.5" y="153.9951">idmtools-platform-comps</text><path d="M6,129 L6,169.2656 A0,0 0 0 0 6,169.2656 L156,169.2656 A0,0 0 0 0 156,169.2656 L156,153 L191.468,149 L156,145 L156,139 L146,129 L6,129 A0,0 0 0 0 6,129 " fill="#FBFB77" filter="url(#f10xip8qwks1hd)" style="stroke: #A80036; stroke-width: 1.0;"/><path d="M146,129 L146,139 L156,139 L146,129 " fill="#FBFB77" style="stroke: #A80036; stroke-width: 1.0;"/><text fill="#000000" font-family="sans-serif" font-size="13" lengthAdjust="spacingAndGlyphs" textLength="114" x="12" y="146.0669">Provides ability to</text><text fill="#000000" font-family="sans-serif" font-size="13" lengthAdjust="spacingAndGlyphs" textLength="129" x="12" y="161.1997">interact with COMPS</text><!--MD5=[5b99558ca566e47ac8017019bc5bd800]
entity idmtools-platform-local--><rect fill="#FEFECE" filter="url(#f10xip8qwks1hd)" height="36.2969" style="stroke: #A80036; stroke-width: 1.5;" width="192" x="379" y="254"/><rect fill="#FEFECE" height="5" style="stroke: #A80036; stroke-width: 1.5;" width="10" x="374" y="259"/><rect fill="#FEFECE" height="5" style="stroke: #A80036; stroke-width: 1.5;" width="10" x="374" y="280.2969"/><text fill="#000000" font-family="sans-serif" font-size="14" lengthAdjust="spacingAndGlyphs" textLength="172" x="389" y="276.9951">idmtools-platform-local</text><path d="M124.5,252 L124.5,292.2656 A0,0 0 0 0 124.5,292.2656 L343.5,292.2656 A0,0 0 0 0 343.5,292.2656 L343.5,276 L378.814,272 L343.5,268 L343.5,262 L333.5,252 L124.5,252 A0,0 0 0 0 124.5,252 " fill="#FBFB77" filter="url(#f10xip8qwks1hd)" style="stroke: #A80036; stroke-width: 1.0;"/><path d="M333.5,252 L333.5,262 L343.5,262 L333.5,252 " fill="#FBFB77" style="stroke: #A80036; stroke-width: 1.0;"/><text fill="#000000" font-family="sans-serif" font-size="13" lengthAdjust="spacingAndGlyphs" textLength="139" x="130.5" y="269.0669">Provides ability to run</text><text fill="#000000" font-family="sans-serif" font-size="13" lengthAdjust="spacingAndGlyphs" textLength="198" x="130.5" y="284.1997">locally using Docker containers</text><!--MD5=[f3e4c595aabc74860a442666101b744f]
link idmtools-cli to idmtools--><path d="M407.151,44.08 C421.245,65.667 445.517,102.842 460.888,126.385 " fill="none" id="idmtools-cli-&gt;idmtools" style="stroke: #A80036; stroke-width: 1.0;"/><polygon fill="#A80036" points="463.65,130.615,462.0806,120.892,460.9172,126.4279,455.3813,125.2645,463.65,130.615" style="stroke: #A80036; stroke-width: 1.0;"/><!--MD5=[8aa5f3bcec73aaf41ac40fe3f9c475da]
link idmtools-models to idmtools--><path d="M542.849,44.08 C528.755,65.667 504.483,102.842 489.112,126.385 " fill="none" id="idmtools-models-&gt;idmtools" style="stroke: #A80036; stroke-width: 1.0;"/><polygon fill="#A80036" points="486.35,130.615,494.6187,125.2645,489.0828,126.4279,487.9194,120.892,486.35,130.615" style="stroke: #A80036; stroke-width: 1.0;"/><!--MD5=[12601bca6d00bb52d45f7b5f74140434]
link idmtools-platform-comps to idmtools--><path d="M398.711,149 C408.523,149 418.336,149 428.148,149 " fill="none" id="idmtools-platform-comps-&gt;idmtools" style="stroke: #A80036; stroke-width: 1.0;"/><polygon fill="#A80036" points="433.279,149,424.279,145,428.279,149,424.279,153,433.279,149" style="stroke: #A80036; stroke-width: 1.0;"/><!--MD5=[237ff08c58a06a7ec220f3d1c714d5ad]
reverse link idmtools to idmtools-platform-local--><path d="M475,172.165 C475,195.6223 475,232.1532 475,253.6154 " fill="none" id="idmtools&lt;-idmtools-platform-local" style="stroke: #A80036; stroke-width: 1.0;"/><polygon fill="#A80036" points="475,167.08,471,176.08,475,172.08,479,176.08,475,167.08" style="stroke: #A80036; stroke-width: 1.0;"/><!--MD5=[885593b849305792e4e34131931470cc]
@startuml
[idmtools]
note right of idmtools
Provides Plugin Infrastructure and
common APIS like Experiments,
Simulations, Suites, Workitems,
Tasks, and Platforms. Also contains
tools for building Simulations in bulk
end note
[idmtools-cli]
note left of [idmtools-cli]
    Provides the CLI for
    idmtools. (Optional)
end note
[idmtools-models]
note right of [idmtools-models]
    Provides common tasks
     for Python and R
end note
[idmtools-platform-comps]
note left of [idmtools-platform-comps]
    Provides ability to
    interact with COMPS
end note
[idmtools-platform-local]
note left of [idmtools-platform-local]
    Provides ability to run
    locally using Docker containers
end note

[idmtools-cli] - -> [idmtools]
[idmtools-models] - -> [idmtools]
[idmtools-platform-comps] -> idmtools
[idmtools-platform-local] -up-> idmtools
@enduml

PlantUML version 1.2020.12(Sat Jun 06 10:54:15 UTC 2020)
(GPL source distribution)
Java Runtime: Java(TM) SE Runtime Environment
JVM: Java HotSpot(TM) 64-Bit Server VM
Default Encoding: UTF-8
Language: en
Country: US
--></g></svg>