<?xml version="1.0" encoding="UTF-8" standalone="no"?><svg xmlns="http://www.w3.org/2000/svg" xmlns:xlink="http://www.w3.org/1999/xlink" contentScriptType="application/ecmascript" contentStyleType="text/css" height="290px" preserveAspectRatio="none" style="width:157px;height:290px;" version="1.1" viewBox="0 0 157 290" width="157px" zoomAndPan="magnify"><defs><filter height="300%" id="f1xb368jde018k" width="300%" x="-1" y="-1"><feGaussianBlur result="blurOut" stdDeviation="2.0"/><feColorMatrix in="blurOut" result="blurOut2" type="matrix" values="0 0 0 0 0 0 0 0 0 0 0 0 0 0 0 0 0 0 .4 0"/><feOffset dx="4.0" dy="4.0" in="blurOut2" result="blurOut3"/><feBlend in="SourceGraphic" in2="blurOut3" mode="normal"/></filter></defs><g><!--MD5=[733ae57ad73ddca760861ab983f10ac6]
class IAnalyzer--><rect codeLine="1" fill="#FEFECE" filter="url(#f1xb368jde018k)" height="48" id="IAnalyzer" style="stroke: #A80036; stroke-width: 1.5;" width="87" x="29" y="7"/><ellipse cx="44" cy="23" fill="#A9DCDF" rx="11" ry="11" style="stroke: #A80036; stroke-width: 1.0;"/><path d="M46.0781,24.8125 L46.4688,25.7969 L46.0781,25.7969 C45.625,25.7969 45.5156,25.8125 45.3594,25.9219 C45.1094,26.0781 44.9531,26.3594 44.9531,26.6563 C44.9531,26.9219 45.0938,27.1719 45.3125,27.3281 C45.4531,27.4531 45.6563,27.5 46.0781,27.5 L48.4375,27.5 C48.7969,27.5 49.0156,27.4688 49.1563,27.375 C49.4063,27.2344 49.5625,26.9375 49.5625,26.6563 C49.5625,26.375 49.4219,26.125 49.2031,25.9688 C49.0313,25.8281 48.875,25.7969 48.4063,25.7969 L45.0156,17.5938 L41.3438,17.5938 C40.8906,17.5938 40.7656,17.6094 40.6094,17.7031 C40.3594,17.875 40.2031,18.1563 40.2031,18.4375 C40.2031,18.7188 40.3438,18.9688 40.5625,19.1406 C40.7344,19.25 40.9063,19.2813 41.3438,19.2813 L42.4219,19.2813 L39.7813,25.7969 C39.3594,25.7969 39.2031,25.8125 39.0469,25.9219 C38.7969,26.0781 38.6406,26.3594 38.6406,26.6563 C38.6406,27.2188 39.0156,27.5 39.7656,27.5 L42.0313,27.5 C42.3906,27.5 42.6094,27.4688 42.7344,27.375 C43,27.2344 43.1406,26.9375 43.1406,26.6563 C43.1406,26.375 43.0156,26.125 42.7969,25.9531 C42.625,25.8281 42.4844,25.7969 42.0313,25.7969 L41.6406,25.7969 L42.0313,24.8125 L46.0781,24.8125 Z M45.375,23.1094 L42.7031,23.1094 L44.0469,19.8438 L45.375,23.1094 Z "/><text fill="#000000" font-family="sans-serif" font-size="12" font-style="italic" lengthAdjust="spacingAndGlyphs" textLength="55" x="58" y="27.1543">IAnalyzer</text><line style="stroke: #A80036; stroke-width: 1.5;" x1="30" x2="115" y1="39" y2="39"/><line style="stroke: #A80036; stroke-width: 1.5;" x1="30" x2="115" y1="47" y2="47"/><!--MD5=[0f6d9d47ca6e8beb0f87b5151c1dad25]
class Analyzers--><rect fill="#FEFECE" filter="url(#f1xb368jde018k)" height="48" id="Analyzers" style="stroke: #A80036; stroke-width: 1.5;" width="91" x="27" y="115"/><ellipse cx="42" cy="131" fill="#ADD1B2" rx="11" ry="11" style="stroke: #A80036; stroke-width: 1.0;"/><path d="M44.3438,126.6719 C43.4063,126.2344 42.8125,126.0938 41.9375,126.0938 C39.3125,126.0938 37.3125,128.1719 37.3125,130.8906 L37.3125,132.0156 C37.3125,134.5938 39.4219,136.4844 42.3125,136.4844 C43.5313,136.4844 44.6875,136.1875 45.4375,135.6406 C46.0156,135.2344 46.3438,134.7813 46.3438,134.3906 C46.3438,133.9375 45.9531,133.5469 45.4844,133.5469 C45.2656,133.5469 45.0625,133.625 44.875,133.8125 C44.4219,134.2969 44.4219,134.2969 44.2344,134.3906 C43.8125,134.6563 43.125,134.7813 42.3594,134.7813 C40.3125,134.7813 39.0156,133.6875 39.0156,131.9844 L39.0156,130.8906 C39.0156,129.1094 40.2656,127.7969 42,127.7969 C42.5781,127.7969 43.1875,127.9531 43.6563,128.2031 C44.1406,128.4844 44.3125,128.7031 44.4063,129.1094 C44.4688,129.5156 44.5,129.6406 44.6406,129.7656 C44.7813,129.9063 45.0156,130.0156 45.2344,130.0156 C45.5,130.0156 45.7656,129.875 45.9375,129.6563 C46.0469,129.5 46.0781,129.3125 46.0781,128.8906 L46.0781,127.4688 C46.0781,127.0313 46.0625,126.9063 45.9688,126.75 C45.8125,126.4844 45.5313,126.3438 45.2344,126.3438 C44.9375,126.3438 44.7344,126.4375 44.5156,126.75 L44.3438,126.6719 Z "/><text fill="#000000" font-family="sans-serif" font-size="12" lengthAdjust="spacingAndGlyphs" textLength="59" x="56" y="135.1543">Analyzers</text><line style="stroke: #A80036; stroke-width: 1.5;" x1="28" x2="117" y1="147" y2="147"/><line style="stroke: #A80036; stroke-width: 1.5;" x1="28" x2="117" y1="155" y2="155"/><!--MD5=[7b39174e62fbc42083969b7083bb2aa3]
class AnalyzeManager--><rect fill="#FEFECE" filter="url(#f1xb368jde018k)" height="48" id="AnalyzeManager" style="stroke: #A80036; stroke-width: 1.5;" width="131" x="7" y="223"/><ellipse cx="22" cy="239" fill="#ADD1B2" rx="11" ry="11" style="stroke: #A80036; stroke-width: 1.0;"/><path d="M24.3438,234.6719 C23.4063,234.2344 22.8125,234.0938 21.9375,234.0938 C19.3125,234.0938 17.3125,236.1719 17.3125,238.8906 L17.3125,240.0156 C17.3125,242.5938 19.4219,244.4844 22.3125,244.4844 C23.5313,244.4844 24.6875,244.1875 25.4375,243.6406 C26.0156,243.2344 26.3438,242.7813 26.3438,242.3906 C26.3438,241.9375 25.9531,241.5469 25.4844,241.5469 C25.2656,241.5469 25.0625,241.625 24.875,241.8125 C24.4219,242.2969 24.4219,242.2969 24.2344,242.3906 C23.8125,242.6563 23.125,242.7813 22.3594,242.7813 C20.3125,242.7813 19.0156,241.6875 19.0156,239.9844 L19.0156,238.8906 C19.0156,237.1094 20.2656,235.7969 22,235.7969 C22.5781,235.7969 23.1875,235.9531 23.6563,236.2031 C24.1406,236.4844 24.3125,236.7031 24.4063,237.1094 C24.4688,237.5156 24.5,237.6406 24.6406,237.7656 C24.7813,237.9063 25.0156,238.0156 25.2344,238.0156 C25.5,238.0156 25.7656,237.875 25.9375,237.6563 C26.0469,237.5 26.0781,237.3125 26.0781,236.8906 L26.0781,235.4688 C26.0781,235.0313 26.0625,234.9063 25.9688,234.75 C25.8125,234.4844 25.5313,234.3438 25.2344,234.3438 C24.9375,234.3438 24.7344,234.4375 24.5156,234.75 L24.3438,234.6719 Z "/><text fill="#000000" font-family="sans-serif" font-size="12" lengthAdjust="spacingAndGlyphs" textLength="99" x="36" y="243.1543">AnalyzeManager</text><line style="stroke: #A80036; stroke-width: 1.5;" x1="8" x2="137" y1="255" y2="255"/><line style="stroke: #A80036; stroke-width: 1.5;" x1="8" x2="137" y1="263" y2="263"/><!--MD5=[ea88932d48c55f5cf89060b3f9d460a6]
reverse link IAnalyzer to Analyzers--><path codeLine="2" d="M72.5,75.024 C72.5,88.579 72.5,103.038 72.5,114.678 " fill="none" id="IAnalyzer&lt;-Analyzers" style="stroke: #A80036; stroke-width: 1.0;"/><polygon fill="none" points="65.5001,75,72.5,55,79.5001,75,65.5001,75" style="stroke: #A80036; stroke-width: 1.0;"/><!--MD5=[2416977da3d93036374e4636f0e8419d]
reverse link Analyzers to AnalyzeManager--><path codeLine="3" d="M72.5,176.3383 C72.5,191.6813 72.5,209.098 72.5,222.6784 " fill="none" id="Analyzers&lt;-AnalyzeManager" style="stroke: #A80036; stroke-width: 1.0;"/><polygon fill="#A80036" points="72.5,163,68.5,169,72.5,175,76.5,169,72.5,163" style="stroke: #A80036; stroke-width: 1.0;"/><!--MD5=[cea6e99d629868c01dfb421a7d409126]
@startuml
abstract class IAnalyzer        
IAnalyzer <|- - Analyzers
Analyzers *- - AnalyzeManager
@enduml

PlantUML version 1.2020.16beta3(Unknown compile time)
(GPL source distribution)
Java Runtime: Java(TM) SE Runtime Environment
JVM: Java HotSpot(TM) 64-Bit Server VM
Default Encoding: UTF-8
Language: en
Country: US
--></g></svg>