<?xml version="1.0" encoding="UTF-8" standalone="no"?><svg xmlns="http://www.w3.org/2000/svg" xmlns:xlink="http://www.w3.org/1999/xlink" contentScriptType="application/ecmascript" contentStyleType="text/css" height="175px" preserveAspectRatio="none" style="width:595px;height:175px;" version="1.1" viewBox="0 0 595 175" width="595px" zoomAndPan="magnify"><defs><filter height="300%" id="f5a38baz6wgca" width="300%" x="-1" y="-1"><feGaussianBlur result="blurOut" stdDeviation="2.0"/><feColorMatrix in="blurOut" result="blurOut2" type="matrix" values="0 0 0 0 0 0 0 0 0 0 0 0 0 0 0 0 0 0 .4 0"/><feOffset dx="4.0" dy="4.0" in="blurOut2" result="blurOut3"/><feBlend in="SourceGraphic" in2="blurOut3" mode="normal"/></filter></defs><g><!--MD5=[733ae57ad73ddca760861ab983f10ac6]
class IAnalyzer--><rect fill="#FEFECE" filter="url(#f5a38baz6wgca)" height="48" id="IAnalyzer" style="stroke: #A80036; stroke-width: 1.5;" width="87" x="239.5" y="8"/><ellipse cx="254.5" cy="24" fill="#A9DCDF" rx="11" ry="11" style="stroke: #A80036; stroke-width: 1.0;"/><path d="M256.5781,25.8125 L256.9688,26.7969 L256.5781,26.7969 C256.125,26.7969 256.0156,26.8125 255.8594,26.9219 C255.6094,27.0781 255.4531,27.3594 255.4531,27.6563 C255.4531,27.9219 255.5938,28.1719 255.8125,28.3281 C255.9531,28.4531 256.1563,28.5 256.5781,28.5 L258.9375,28.5 C259.2969,28.5 259.5156,28.4688 259.6563,28.375 C259.9063,28.2344 260.0625,27.9375 260.0625,27.6563 C260.0625,27.375 259.9219,27.125 259.7031,26.9688 C259.5313,26.8281 259.375,26.7969 258.9063,26.7969 L255.5156,18.5938 L251.8438,18.5938 C251.3906,18.5938 251.2656,18.6094 251.1094,18.7031 C250.8594,18.875 250.7031,19.1563 250.7031,19.4375 C250.7031,19.7188 250.8438,19.9688 251.0625,20.1406 C251.2344,20.25 251.4063,20.2813 251.8438,20.2813 L252.9219,20.2813 L250.2813,26.7969 C249.8594,26.7969 249.7031,26.8125 249.5469,26.9219 C249.2969,27.0781 249.1406,27.3594 249.1406,27.6563 C249.1406,28.2188 249.5156,28.5 250.2656,28.5 L252.5313,28.5 C252.8906,28.5 253.1094,28.4688 253.2344,28.375 C253.5,28.2344 253.6406,27.9375 253.6406,27.6563 C253.6406,27.375 253.5156,27.125 253.2969,26.9531 C253.125,26.8281 252.9844,26.7969 252.5313,26.7969 L252.1406,26.7969 L252.5313,25.8125 L256.5781,25.8125 Z M255.875,24.1094 L253.2031,24.1094 L254.5469,20.8438 L255.875,24.1094 Z "/><text fill="#000000" font-family="sans-serif" font-size="12" font-style="italic" lengthAdjust="spacingAndGlyphs" textLength="55" x="268.5" y="28.1543">IAnalyzer</text><line style="stroke: #A80036; stroke-width: 1.5;" x1="240.5" x2="325.5" y1="40" y2="40"/><line style="stroke: #A80036; stroke-width: 1.5;" x1="240.5" x2="325.5" y1="48" y2="48"/><!--MD5=[0520475192da095a890430133a44cc61]
class AddAnalyzer--><rect fill="#FEFECE" filter="url(#f5a38baz6wgca)" height="48" id="AddAnalyzer" style="stroke: #A80036; stroke-width: 1.5;" width="108" x="6" y="116"/><ellipse cx="21" cy="132" fill="#ADD1B2" rx="11" ry="11" style="stroke: #A80036; stroke-width: 1.0;"/><path d="M23.3438,127.6719 C22.4063,127.2344 21.8125,127.0938 20.9375,127.0938 C18.3125,127.0938 16.3125,129.1719 16.3125,131.8906 L16.3125,133.0156 C16.3125,135.5938 18.4219,137.4844 21.3125,137.4844 C22.5313,137.4844 23.6875,137.1875 24.4375,136.6406 C25.0156,136.2344 25.3438,135.7813 25.3438,135.3906 C25.3438,134.9375 24.9531,134.5469 24.4844,134.5469 C24.2656,134.5469 24.0625,134.625 23.875,134.8125 C23.4219,135.2969 23.4219,135.2969 23.2344,135.3906 C22.8125,135.6563 22.125,135.7813 21.3594,135.7813 C19.3125,135.7813 18.0156,134.6875 18.0156,132.9844 L18.0156,131.8906 C18.0156,130.1094 19.2656,128.7969 21,128.7969 C21.5781,128.7969 22.1875,128.9531 22.6563,129.2031 C23.1406,129.4844 23.3125,129.7031 23.4063,130.1094 C23.4688,130.5156 23.5,130.6406 23.6406,130.7656 C23.7813,130.9063 24.0156,131.0156 24.2344,131.0156 C24.5,131.0156 24.7656,130.875 24.9375,130.6563 C25.0469,130.5 25.0781,130.3125 25.0781,129.8906 L25.0781,128.4688 C25.0781,128.0313 25.0625,127.9063 24.9688,127.75 C24.8125,127.4844 24.5313,127.3438 24.2344,127.3438 C23.9375,127.3438 23.7344,127.4375 23.5156,127.75 L23.3438,127.6719 Z "/><text fill="#000000" font-family="sans-serif" font-size="12" lengthAdjust="spacingAndGlyphs" textLength="76" x="35" y="136.1543">AddAnalyzer</text><line style="stroke: #A80036; stroke-width: 1.5;" x1="7" x2="113" y1="148" y2="148"/><line style="stroke: #A80036; stroke-width: 1.5;" x1="7" x2="113" y1="156" y2="156"/><!--MD5=[a5d307286c2b4e5a40385295f8a46eff]
class CSVAnalyzer--><rect fill="#FEFECE" filter="url(#f5a38baz6wgca)" height="48" id="CSVAnalyzer" style="stroke: #A80036; stroke-width: 1.5;" width="108" x="149" y="116"/><ellipse cx="164" cy="132" fill="#ADD1B2" rx="11" ry="11" style="stroke: #A80036; stroke-width: 1.0;"/><path d="M166.3438,127.6719 C165.4063,127.2344 164.8125,127.0938 163.9375,127.0938 C161.3125,127.0938 159.3125,129.1719 159.3125,131.8906 L159.3125,133.0156 C159.3125,135.5938 161.4219,137.4844 164.3125,137.4844 C165.5313,137.4844 166.6875,137.1875 167.4375,136.6406 C168.0156,136.2344 168.3438,135.7813 168.3438,135.3906 C168.3438,134.9375 167.9531,134.5469 167.4844,134.5469 C167.2656,134.5469 167.0625,134.625 166.875,134.8125 C166.4219,135.2969 166.4219,135.2969 166.2344,135.3906 C165.8125,135.6563 165.125,135.7813 164.3594,135.7813 C162.3125,135.7813 161.0156,134.6875 161.0156,132.9844 L161.0156,131.8906 C161.0156,130.1094 162.2656,128.7969 164,128.7969 C164.5781,128.7969 165.1875,128.9531 165.6563,129.2031 C166.1406,129.4844 166.3125,129.7031 166.4063,130.1094 C166.4688,130.5156 166.5,130.6406 166.6406,130.7656 C166.7813,130.9063 167.0156,131.0156 167.2344,131.0156 C167.5,131.0156 167.7656,130.875 167.9375,130.6563 C168.0469,130.5 168.0781,130.3125 168.0781,129.8906 L168.0781,128.4688 C168.0781,128.0313 168.0625,127.9063 167.9688,127.75 C167.8125,127.4844 167.5313,127.3438 167.2344,127.3438 C166.9375,127.3438 166.7344,127.4375 166.5156,127.75 L166.3438,127.6719 Z "/><text fill="#000000" font-family="sans-serif" font-size="12" lengthAdjust="spacingAndGlyphs" textLength="76" x="178" y="136.1543">CSVAnalyzer</text><line style="stroke: #A80036; stroke-width: 1.5;" x1="150" x2="256" y1="148" y2="148"/><line style="stroke: #A80036; stroke-width: 1.5;" x1="150" x2="256" y1="156" y2="156"/><!--MD5=[0f9368a0ebd3300654b31b5c805d72e7]
class DownloadAnalyzer--><rect fill="#FEFECE" filter="url(#f5a38baz6wgca)" height="48" id="DownloadAnalyzer" style="stroke: #A80036; stroke-width: 1.5;" width="144" x="292" y="116"/><ellipse cx="307" cy="132" fill="#ADD1B2" rx="11" ry="11" style="stroke: #A80036; stroke-width: 1.0;"/><path d="M309.3438,127.6719 C308.4063,127.2344 307.8125,127.0938 306.9375,127.0938 C304.3125,127.0938 302.3125,129.1719 302.3125,131.8906 L302.3125,133.0156 C302.3125,135.5938 304.4219,137.4844 307.3125,137.4844 C308.5313,137.4844 309.6875,137.1875 310.4375,136.6406 C311.0156,136.2344 311.3438,135.7813 311.3438,135.3906 C311.3438,134.9375 310.9531,134.5469 310.4844,134.5469 C310.2656,134.5469 310.0625,134.625 309.875,134.8125 C309.4219,135.2969 309.4219,135.2969 309.2344,135.3906 C308.8125,135.6563 308.125,135.7813 307.3594,135.7813 C305.3125,135.7813 304.0156,134.6875 304.0156,132.9844 L304.0156,131.8906 C304.0156,130.1094 305.2656,128.7969 307,128.7969 C307.5781,128.7969 308.1875,128.9531 308.6563,129.2031 C309.1406,129.4844 309.3125,129.7031 309.4063,130.1094 C309.4688,130.5156 309.5,130.6406 309.6406,130.7656 C309.7813,130.9063 310.0156,131.0156 310.2344,131.0156 C310.5,131.0156 310.7656,130.875 310.9375,130.6563 C311.0469,130.5 311.0781,130.3125 311.0781,129.8906 L311.0781,128.4688 C311.0781,128.0313 311.0625,127.9063 310.9688,127.75 C310.8125,127.4844 310.5313,127.3438 310.2344,127.3438 C309.9375,127.3438 309.7344,127.4375 309.5156,127.75 L309.3438,127.6719 Z "/><text fill="#000000" font-family="sans-serif" font-size="12" lengthAdjust="spacingAndGlyphs" textLength="112" x="321" y="136.1543">DownloadAnalyzer</text><line style="stroke: #A80036; stroke-width: 1.5;" x1="293" x2="435" y1="148" y2="148"/><line style="stroke: #A80036; stroke-width: 1.5;" x1="293" x2="435" y1="156" y2="156"/><!--MD5=[3faeea35444f95dba403c1fc7bb959af]
class TagsAnalyzer--><rect fill="#FEFECE" filter="url(#f5a38baz6wgca)" height="48" id="TagsAnalyzer" style="stroke: #A80036; stroke-width: 1.5;" width="113" x="471.5" y="116"/><ellipse cx="486.5" cy="132" fill="#ADD1B2" rx="11" ry="11" style="stroke: #A80036; stroke-width: 1.0;"/><path d="M488.8438,127.6719 C487.9063,127.2344 487.3125,127.0938 486.4375,127.0938 C483.8125,127.0938 481.8125,129.1719 481.8125,131.8906 L481.8125,133.0156 C481.8125,135.5938 483.9219,137.4844 486.8125,137.4844 C488.0313,137.4844 489.1875,137.1875 489.9375,136.6406 C490.5156,136.2344 490.8438,135.7813 490.8438,135.3906 C490.8438,134.9375 490.4531,134.5469 489.9844,134.5469 C489.7656,134.5469 489.5625,134.625 489.375,134.8125 C488.9219,135.2969 488.9219,135.2969 488.7344,135.3906 C488.3125,135.6563 487.625,135.7813 486.8594,135.7813 C484.8125,135.7813 483.5156,134.6875 483.5156,132.9844 L483.5156,131.8906 C483.5156,130.1094 484.7656,128.7969 486.5,128.7969 C487.0781,128.7969 487.6875,128.9531 488.1563,129.2031 C488.6406,129.4844 488.8125,129.7031 488.9063,130.1094 C488.9688,130.5156 489,130.6406 489.1406,130.7656 C489.2813,130.9063 489.5156,131.0156 489.7344,131.0156 C490,131.0156 490.2656,130.875 490.4375,130.6563 C490.5469,130.5 490.5781,130.3125 490.5781,129.8906 L490.5781,128.4688 C490.5781,128.0313 490.5625,127.9063 490.4688,127.75 C490.3125,127.4844 490.0313,127.3438 489.7344,127.3438 C489.4375,127.3438 489.2344,127.4375 489.0156,127.75 L488.8438,127.6719 Z "/><text fill="#000000" font-family="sans-serif" font-size="12" lengthAdjust="spacingAndGlyphs" textLength="81" x="500.5" y="136.1543">TagsAnalyzer</text><line style="stroke: #A80036; stroke-width: 1.5;" x1="472.5" x2="583.5" y1="148" y2="148"/><line style="stroke: #A80036; stroke-width: 1.5;" x1="472.5" x2="583.5" y1="156" y2="156"/><!--MD5=[9c3f3fc9f7ccfcffd362392f1766e35d]
reverse link IAnalyzer to AddAnalyzer--><path d="M221.218,62.367 C185.621,79.2877 141.522,100.2495 108.449,115.9705 " fill="none" id="IAnalyzer&lt;-AddAnalyzer" style="stroke: #A80036; stroke-width: 1.0;"/><polygon fill="none" points="218.406,55.954,239.474,53.69,224.416,68.5978,218.406,55.954" style="stroke: #A80036; stroke-width: 1.0;"/><!--MD5=[b16f7644da16eab7ea4d30a036e2608d]
reverse link IAnalyzer to CSVAnalyzer--><path d="M253.431,72.1784 C242.397,86.7995 230.223,102.9295 220.601,115.6784 " fill="none" id="IAnalyzer&lt;-CSVAnalyzer" style="stroke: #A80036; stroke-width: 1.0;"/><polygon fill="none" points="248.006,67.7474,265.641,56,259.18,76.1811,248.006,67.7474" style="stroke: #A80036; stroke-width: 1.0;"/><!--MD5=[3142f6a4adeee1d1d4255da7dc64e400]
reverse link IAnalyzer to DownloadAnalyzer--><path d="M312.938,72.1784 C324.111,86.7995 336.437,102.9295 346.179,115.6784 " fill="none" id="IAnalyzer&lt;-DownloadAnalyzer" style="stroke: #A80036; stroke-width: 1.0;"/><polygon fill="none" points="307.157,76.1421,300.576,56,318.281,67.6416,307.157,76.1421" style="stroke: #A80036; stroke-width: 1.0;"/><!--MD5=[3540d9988800bd28bbdf3d354b845199]
reverse link IAnalyzer to TagsAnalyzer--><path d="M345.116,59.875 C385.091,77.17 436.507,99.4153 474.636,115.912 " fill="none" id="IAnalyzer&lt;-TagsAnalyzer" style="stroke: #A80036; stroke-width: 1.0;"/><polygon fill="none" points="342.095,66.1947,326.519,51.829,347.654,53.346,342.095,66.1947" style="stroke: #A80036; stroke-width: 1.0;"/><!--MD5=[a441ba491d8e0349ed4392dff239c405]
@startuml
abstract class IAnalyzer        
IAnalyzer <|- - AddAnalyzer
IAnalyzer <|- - CSVAnalyzer
IAnalyzer <|- - DownloadAnalyzer
IAnalyzer <|- - TagsAnalyzer
@enduml

PlantUML version 1.2020.11(Sat May 30 10:13:43 UTC 2020)
(GPL source distribution)
Java Runtime: Java(TM) SE Runtime Environment
JVM: Java HotSpot(TM) 64-Bit Server VM
Default Encoding: UTF-8
Language: en
Country: US
--></g></svg>