<?xml version="1.0" encoding="UTF-8" standalone="no"?><svg xmlns="http://www.w3.org/2000/svg" xmlns:xlink="http://www.w3.org/1999/xlink" contentScriptType="application/ecmascript" contentStyleType="text/css" height="182px" preserveAspectRatio="none" style="width:604px;height:182px;" version="1.1" viewBox="0 0 604 182" width="604px" zoomAndPan="magnify"><defs><filter height="300%" id="f5a38baz6wgca" width="300%" x="-1" y="-1"><feGaussianBlur result="blurOut" stdDeviation="2.0"/><feColorMatrix in="blurOut" result="blurOut2" type="matrix" values="0 0 0 0 0 0 0 0 0 0 0 0 0 0 0 0 0 0 .4 0"/><feOffset dx="4.0" dy="4.0" in="blurOut2" result="blurOut3"/><feBlend in="SourceGraphic" in2="blurOut3" mode="normal"/></filter></defs><g><!--MD5=[733ae57ad73ddca760861ab983f10ac6]
class IAnalyzer--><rect codeLine="1" fill="#FEFECE" filter="url(#f5a38baz6wgca)" height="48" id="IAnalyzer" style="stroke: #A80036; stroke-width: 1.5;" width="87" x="240.5" y="7"/><ellipse cx="255.5" cy="23" fill="#A9DCDF" rx="11" ry="11" style="stroke: #A80036; stroke-width: 1.0;"/><path d="M257.5781,24.8125 L257.9688,25.7969 L257.5781,25.7969 C257.125,25.7969 257.0156,25.8125 256.8594,25.9219 C256.6094,26.0781 256.4531,26.3594 256.4531,26.6563 C256.4531,26.9219 256.5938,27.1719 256.8125,27.3281 C256.9531,27.4531 257.1563,27.5 257.5781,27.5 L259.9375,27.5 C260.2969,27.5 260.5156,27.4688 260.6563,27.375 C260.9063,27.2344 261.0625,26.9375 261.0625,26.6563 C261.0625,26.375 260.9219,26.125 260.7031,25.9688 C260.5313,25.8281 260.375,25.7969 259.9063,25.7969 L256.5156,17.5938 L252.8438,17.5938 C252.3906,17.5938 252.2656,17.6094 252.1094,17.7031 C251.8594,17.875 251.7031,18.1563 251.7031,18.4375 C251.7031,18.7188 251.8438,18.9688 252.0625,19.1406 C252.2344,19.25 252.4063,19.2813 252.8438,19.2813 L253.9219,19.2813 L251.2813,25.7969 C250.8594,25.7969 250.7031,25.8125 250.5469,25.9219 C250.2969,26.0781 250.1406,26.3594 250.1406,26.6563 C250.1406,27.2188 250.5156,27.5 251.2656,27.5 L253.5313,27.5 C253.8906,27.5 254.1094,27.4688 254.2344,27.375 C254.5,27.2344 254.6406,26.9375 254.6406,26.6563 C254.6406,26.375 254.5156,26.125 254.2969,25.9531 C254.125,25.8281 253.9844,25.7969 253.5313,25.7969 L253.1406,25.7969 L253.5313,24.8125 L257.5781,24.8125 Z M256.875,23.1094 L254.2031,23.1094 L255.5469,19.8438 L256.875,23.1094 Z "/><text fill="#000000" font-family="sans-serif" font-size="12" font-style="italic" lengthAdjust="spacingAndGlyphs" textLength="55" x="269.5" y="27.1543">IAnalyzer</text><line style="stroke: #A80036; stroke-width: 1.5;" x1="241.5" x2="326.5" y1="39" y2="39"/><line style="stroke: #A80036; stroke-width: 1.5;" x1="241.5" x2="326.5" y1="47" y2="47"/><!--MD5=[0520475192da095a890430133a44cc61]
class AddAnalyzer--><rect fill="#FEFECE" filter="url(#f5a38baz6wgca)" height="48" id="AddAnalyzer" style="stroke: #A80036; stroke-width: 1.5;" width="108" x="7" y="115"/><ellipse cx="22" cy="131" fill="#ADD1B2" rx="11" ry="11" style="stroke: #A80036; stroke-width: 1.0;"/><path d="M24.3438,126.6719 C23.4063,126.2344 22.8125,126.0938 21.9375,126.0938 C19.3125,126.0938 17.3125,128.1719 17.3125,130.8906 L17.3125,132.0156 C17.3125,134.5938 19.4219,136.4844 22.3125,136.4844 C23.5313,136.4844 24.6875,136.1875 25.4375,135.6406 C26.0156,135.2344 26.3438,134.7813 26.3438,134.3906 C26.3438,133.9375 25.9531,133.5469 25.4844,133.5469 C25.2656,133.5469 25.0625,133.625 24.875,133.8125 C24.4219,134.2969 24.4219,134.2969 24.2344,134.3906 C23.8125,134.6563 23.125,134.7813 22.3594,134.7813 C20.3125,134.7813 19.0156,133.6875 19.0156,131.9844 L19.0156,130.8906 C19.0156,129.1094 20.2656,127.7969 22,127.7969 C22.5781,127.7969 23.1875,127.9531 23.6563,128.2031 C24.1406,128.4844 24.3125,128.7031 24.4063,129.1094 C24.4688,129.5156 24.5,129.6406 24.6406,129.7656 C24.7813,129.9063 25.0156,130.0156 25.2344,130.0156 C25.5,130.0156 25.7656,129.875 25.9375,129.6563 C26.0469,129.5 26.0781,129.3125 26.0781,128.8906 L26.0781,127.4688 C26.0781,127.0313 26.0625,126.9063 25.9688,126.75 C25.8125,126.4844 25.5313,126.3438 25.2344,126.3438 C24.9375,126.3438 24.7344,126.4375 24.5156,126.75 L24.3438,126.6719 Z "/><text fill="#000000" font-family="sans-serif" font-size="12" lengthAdjust="spacingAndGlyphs" textLength="76" x="36" y="135.1543">AddAnalyzer</text><line style="stroke: #A80036; stroke-width: 1.5;" x1="8" x2="114" y1="147" y2="147"/><line style="stroke: #A80036; stroke-width: 1.5;" x1="8" x2="114" y1="155" y2="155"/><!--MD5=[a5d307286c2b4e5a40385295f8a46eff]
class CSVAnalyzer--><rect fill="#FEFECE" filter="url(#f5a38baz6wgca)" height="48" id="CSVAnalyzer" style="stroke: #A80036; stroke-width: 1.5;" width="108" x="150" y="115"/><ellipse cx="165" cy="131" fill="#ADD1B2" rx="11" ry="11" style="stroke: #A80036; stroke-width: 1.0;"/><path d="M167.3438,126.6719 C166.4063,126.2344 165.8125,126.0938 164.9375,126.0938 C162.3125,126.0938 160.3125,128.1719 160.3125,130.8906 L160.3125,132.0156 C160.3125,134.5938 162.4219,136.4844 165.3125,136.4844 C166.5313,136.4844 167.6875,136.1875 168.4375,135.6406 C169.0156,135.2344 169.3438,134.7813 169.3438,134.3906 C169.3438,133.9375 168.9531,133.5469 168.4844,133.5469 C168.2656,133.5469 168.0625,133.625 167.875,133.8125 C167.4219,134.2969 167.4219,134.2969 167.2344,134.3906 C166.8125,134.6563 166.125,134.7813 165.3594,134.7813 C163.3125,134.7813 162.0156,133.6875 162.0156,131.9844 L162.0156,130.8906 C162.0156,129.1094 163.2656,127.7969 165,127.7969 C165.5781,127.7969 166.1875,127.9531 166.6563,128.2031 C167.1406,128.4844 167.3125,128.7031 167.4063,129.1094 C167.4688,129.5156 167.5,129.6406 167.6406,129.7656 C167.7813,129.9063 168.0156,130.0156 168.2344,130.0156 C168.5,130.0156 168.7656,129.875 168.9375,129.6563 C169.0469,129.5 169.0781,129.3125 169.0781,128.8906 L169.0781,127.4688 C169.0781,127.0313 169.0625,126.9063 168.9688,126.75 C168.8125,126.4844 168.5313,126.3438 168.2344,126.3438 C167.9375,126.3438 167.7344,126.4375 167.5156,126.75 L167.3438,126.6719 Z "/><text fill="#000000" font-family="sans-serif" font-size="12" lengthAdjust="spacingAndGlyphs" textLength="76" x="179" y="135.1543">CSVAnalyzer</text><line style="stroke: #A80036; stroke-width: 1.5;" x1="151" x2="257" y1="147" y2="147"/><line style="stroke: #A80036; stroke-width: 1.5;" x1="151" x2="257" y1="155" y2="155"/><!--MD5=[0f9368a0ebd3300654b31b5c805d72e7]
class DownloadAnalyzer--><rect fill="#FEFECE" filter="url(#f5a38baz6wgca)" height="48" id="DownloadAnalyzer" style="stroke: #A80036; stroke-width: 1.5;" width="144" x="293" y="115"/><ellipse cx="308" cy="131" fill="#ADD1B2" rx="11" ry="11" style="stroke: #A80036; stroke-width: 1.0;"/><path d="M310.3438,126.6719 C309.4063,126.2344 308.8125,126.0938 307.9375,126.0938 C305.3125,126.0938 303.3125,128.1719 303.3125,130.8906 L303.3125,132.0156 C303.3125,134.5938 305.4219,136.4844 308.3125,136.4844 C309.5313,136.4844 310.6875,136.1875 311.4375,135.6406 C312.0156,135.2344 312.3438,134.7813 312.3438,134.3906 C312.3438,133.9375 311.9531,133.5469 311.4844,133.5469 C311.2656,133.5469 311.0625,133.625 310.875,133.8125 C310.4219,134.2969 310.4219,134.2969 310.2344,134.3906 C309.8125,134.6563 309.125,134.7813 308.3594,134.7813 C306.3125,134.7813 305.0156,133.6875 305.0156,131.9844 L305.0156,130.8906 C305.0156,129.1094 306.2656,127.7969 308,127.7969 C308.5781,127.7969 309.1875,127.9531 309.6563,128.2031 C310.1406,128.4844 310.3125,128.7031 310.4063,129.1094 C310.4688,129.5156 310.5,129.6406 310.6406,129.7656 C310.7813,129.9063 311.0156,130.0156 311.2344,130.0156 C311.5,130.0156 311.7656,129.875 311.9375,129.6563 C312.0469,129.5 312.0781,129.3125 312.0781,128.8906 L312.0781,127.4688 C312.0781,127.0313 312.0625,126.9063 311.9688,126.75 C311.8125,126.4844 311.5313,126.3438 311.2344,126.3438 C310.9375,126.3438 310.7344,126.4375 310.5156,126.75 L310.3438,126.6719 Z "/><text fill="#000000" font-family="sans-serif" font-size="12" lengthAdjust="spacingAndGlyphs" textLength="112" x="322" y="135.1543">DownloadAnalyzer</text><line style="stroke: #A80036; stroke-width: 1.5;" x1="294" x2="436" y1="147" y2="147"/><line style="stroke: #A80036; stroke-width: 1.5;" x1="294" x2="436" y1="155" y2="155"/><!--MD5=[3faeea35444f95dba403c1fc7bb959af]
class TagsAnalyzer--><rect fill="#FEFECE" filter="url(#f5a38baz6wgca)" height="48" id="TagsAnalyzer" style="stroke: #A80036; stroke-width: 1.5;" width="113" x="472.5" y="115"/><ellipse cx="487.5" cy="131" fill="#ADD1B2" rx="11" ry="11" style="stroke: #A80036; stroke-width: 1.0;"/><path d="M489.8438,126.6719 C488.9063,126.2344 488.3125,126.0938 487.4375,126.0938 C484.8125,126.0938 482.8125,128.1719 482.8125,130.8906 L482.8125,132.0156 C482.8125,134.5938 484.9219,136.4844 487.8125,136.4844 C489.0313,136.4844 490.1875,136.1875 490.9375,135.6406 C491.5156,135.2344 491.8438,134.7813 491.8438,134.3906 C491.8438,133.9375 491.4531,133.5469 490.9844,133.5469 C490.7656,133.5469 490.5625,133.625 490.375,133.8125 C489.9219,134.2969 489.9219,134.2969 489.7344,134.3906 C489.3125,134.6563 488.625,134.7813 487.8594,134.7813 C485.8125,134.7813 484.5156,133.6875 484.5156,131.9844 L484.5156,130.8906 C484.5156,129.1094 485.7656,127.7969 487.5,127.7969 C488.0781,127.7969 488.6875,127.9531 489.1563,128.2031 C489.6406,128.4844 489.8125,128.7031 489.9063,129.1094 C489.9688,129.5156 490,129.6406 490.1406,129.7656 C490.2813,129.9063 490.5156,130.0156 490.7344,130.0156 C491,130.0156 491.2656,129.875 491.4375,129.6563 C491.5469,129.5 491.5781,129.3125 491.5781,128.8906 L491.5781,127.4688 C491.5781,127.0313 491.5625,126.9063 491.4688,126.75 C491.3125,126.4844 491.0313,126.3438 490.7344,126.3438 C490.4375,126.3438 490.2344,126.4375 490.0156,126.75 L489.8438,126.6719 Z "/><text fill="#000000" font-family="sans-serif" font-size="12" lengthAdjust="spacingAndGlyphs" textLength="81" x="501.5" y="135.1543">TagsAnalyzer</text><line style="stroke: #A80036; stroke-width: 1.5;" x1="473.5" x2="584.5" y1="147" y2="147"/><line style="stroke: #A80036; stroke-width: 1.5;" x1="473.5" x2="584.5" y1="155" y2="155"/><!--MD5=[9c3f3fc9f7ccfcffd362392f1766e35d]
reverse link IAnalyzer to AddAnalyzer--><path codeLine="2" d="M222.218,61.367 C186.621,78.2877 142.522,99.2495 109.449,114.9705 " fill="none" id="IAnalyzer&lt;-AddAnalyzer" style="stroke: #A80036; stroke-width: 1.0;"/><polygon fill="none" points="219.406,54.954,240.474,52.69,225.416,67.5978,219.406,54.954" style="stroke: #A80036; stroke-width: 1.0;"/><!--MD5=[b16f7644da16eab7ea4d30a036e2608d]
reverse link IAnalyzer to CSVAnalyzer--><path codeLine="3" d="M254.431,71.1784 C243.397,85.7995 231.223,101.9295 221.601,114.6784 " fill="none" id="IAnalyzer&lt;-CSVAnalyzer" style="stroke: #A80036; stroke-width: 1.0;"/><polygon fill="none" points="249.006,66.7474,266.641,55,260.18,75.1811,249.006,66.7474" style="stroke: #A80036; stroke-width: 1.0;"/><!--MD5=[3142f6a4adeee1d1d4255da7dc64e400]
reverse link IAnalyzer to DownloadAnalyzer--><path codeLine="4" d="M313.938,71.1784 C325.111,85.7995 337.437,101.9295 347.179,114.6784 " fill="none" id="IAnalyzer&lt;-DownloadAnalyzer" style="stroke: #A80036; stroke-width: 1.0;"/><polygon fill="none" points="308.157,75.1421,301.576,55,319.281,66.6416,308.157,75.1421" style="stroke: #A80036; stroke-width: 1.0;"/><!--MD5=[3540d9988800bd28bbdf3d354b845199]
reverse link IAnalyzer to TagsAnalyzer--><path codeLine="5" d="M346.116,58.875 C386.091,76.17 437.507,98.4153 475.636,114.912 " fill="none" id="IAnalyzer&lt;-TagsAnalyzer" style="stroke: #A80036; stroke-width: 1.0;"/><polygon fill="none" points="343.095,65.1947,327.519,50.829,348.654,52.346,343.095,65.1947" style="stroke: #A80036; stroke-width: 1.0;"/><!--MD5=[c98d4881de1878e17ee17ca57f7f31cf]
@startuml
abstract class IAnalyzer        
IAnalyzer <|- - AddAnalyzer
IAnalyzer <|- - CSVAnalyzer
IAnalyzer <|- - DownloadAnalyzer
IAnalyzer <|- - TagsAnalyzer
@enduml

PlantUML version 1.2020.16beta7(Unknown compile time)
(GPL source distribution)
Java Runtime: Java(TM) SE Runtime Environment
JVM: Java HotSpot(TM) 64-Bit Server VM
Default Encoding: UTF-8
Language: en
Country: US
--></g></svg>