<?xml version="1.0" encoding="UTF-8" standalone="no"?><svg xmlns="http://www.w3.org/2000/svg" xmlns:xlink="http://www.w3.org/1999/xlink" contentScriptType="application/ecmascript" contentStyleType="text/css" height="346px" preserveAspectRatio="none" style="width:643px;height:346px;" version="1.1" viewBox="0 0 643 346" width="643px" zoomAndPan="magnify"><defs><filter height="300%" id="f19tyge2xayoon" width="300%" x="-1" y="-1"><feGaussianBlur result="blurOut" stdDeviation="2.0"/><feColorMatrix in="blurOut" result="blurOut2" type="matrix" values="0 0 0 0 0 0 0 0 0 0 0 0 0 0 0 0 0 0 .4 0"/><feOffset dx="4.0" dy="4.0" in="blurOut2" result="blurOut3"/><feBlend in="SourceGraphic" in2="blurOut3" mode="normal"/></filter></defs><g><!--MD5=[b7f44e7cad61e6c59cb00d03cd3ccdfb]
cluster idmtools--><polygon fill="#FFFFFF" filter="url(#f19tyge2xayoon)" points="22,24,100,24,107,46.2969,387,46.2969,387,334,22,334,22,24" style="stroke: #000000; stroke-width: 1.5;"/><line style="stroke: #000000; stroke-width: 1.5;" x1="22" x2="107" y1="46.2969" y2="46.2969"/><text fill="#000000" font-family="sans-serif" font-size="14" font-weight="bold" lengthAdjust="spacingAndGlyphs" textLength="72" x="26" y="38.9951">idmtools</text><!--MD5=[e3a89b72019d8d69b73b0a9ebb84eda6]
cluster cli--><polygon fill="#FFFFFF" filter="url(#f19tyge2xayoon)" points="411,209,436,209,443,231.2969,621,231.2969,621,334,411,334,411,209" style="stroke: #000000; stroke-width: 1.5;"/><line style="stroke: #000000; stroke-width: 1.5;" x1="411" x2="443" y1="231.2969" y2="231.2969"/><text fill="#000000" font-family="sans-serif" font-size="14" font-weight="bold" lengthAdjust="spacingAndGlyphs" textLength="19" x="415" y="223.9951">cli</text><!--MD5=[f08d0d4416d5e2e082482f9bb79a820d]
class PluginSpecification--><rect fill="#FEFECE" filter="url(#f19tyge2xayoon)" height="124.8281" id="PluginSpecification" style="stroke: #A80036; stroke-width: 1.5;" width="325" x="45.5" y="59"/><ellipse cx="148.25" cy="75" fill="#ADD1B2" rx="11" ry="11" style="stroke: #A80036; stroke-width: 1.0;"/><path d="M150.5938,70.6719 C149.6563,70.2344 149.0625,70.0938 148.1875,70.0938 C145.5625,70.0938 143.5625,72.1719 143.5625,74.8906 L143.5625,76.0156 C143.5625,78.5938 145.6719,80.4844 148.5625,80.4844 C149.7813,80.4844 150.9375,80.1875 151.6875,79.6406 C152.2656,79.2344 152.5938,78.7813 152.5938,78.3906 C152.5938,77.9375 152.2031,77.5469 151.7344,77.5469 C151.5156,77.5469 151.3125,77.625 151.125,77.8125 C150.6719,78.2969 150.6719,78.2969 150.4844,78.3906 C150.0625,78.6563 149.375,78.7813 148.6094,78.7813 C146.5625,78.7813 145.2656,77.6875 145.2656,75.9844 L145.2656,74.8906 C145.2656,73.1094 146.5156,71.7969 148.25,71.7969 C148.8281,71.7969 149.4375,71.9531 149.9063,72.2031 C150.3906,72.4844 150.5625,72.7031 150.6563,73.1094 C150.7188,73.5156 150.75,73.6406 150.8906,73.7656 C151.0313,73.9063 151.2656,74.0156 151.4844,74.0156 C151.75,74.0156 152.0156,73.875 152.1875,73.6563 C152.2969,73.5 152.3281,73.3125 152.3281,72.8906 L152.3281,71.4688 C152.3281,71.0313 152.3125,70.9063 152.2188,70.75 C152.0625,70.4844 151.7813,70.3438 151.4844,70.3438 C151.1875,70.3438 150.9844,70.4375 150.7656,70.75 L150.5938,70.6719 Z "/><text fill="#000000" font-family="sans-serif" font-size="12" lengthAdjust="spacingAndGlyphs" textLength="111" x="168.75" y="79.1543">PluginSpecification</text><line style="stroke: #A80036; stroke-width: 1.5;" x1="46.5" x2="369.5" y1="91" y2="91"/><line style="stroke: #A80036; stroke-width: 1.5;" x1="46.5" x2="369.5" y1="99" y2="99"/><text fill="#000000" font-family="sans-serif" font-size="11" lengthAdjust="spacingAndGlyphs" textLength="127" x="51.5" y="113.2104">str get_name(strip_all)</text><text fill="#000000" font-family="sans-serif" font-size="11" font-style="italic" lengthAdjust="spacingAndGlyphs" textLength="113" x="51.5" y="126.0151">str get_description()</text><text fill="#000000" font-family="sans-serif" font-size="11" lengthAdjust="spacingAndGlyphs" textLength="260" x="51.5" y="138.8198">List[ProjectTemplate] get_project_templates()</text><text fill="#000000" font-family="sans-serif" font-size="11" lengthAdjust="spacingAndGlyphs" textLength="155" x="51.5" y="151.6245">List[str] get_example_urls()</text><text fill="#000000" font-family="sans-serif" font-size="11" lengthAdjust="spacingAndGlyphs" textLength="153" x="51.5" y="164.4292">Dict[str, str] get_help_urls()</text><text fill="#000000" font-family="sans-serif" font-size="11" lengthAdjust="spacingAndGlyphs" text-decoration="underline" textLength="313" x="51.5" y="177.2339">get_version_url(version, repo_base_url, nightly_branch)</text><!--MD5=[af4c9b49fd16eccd3264a9805d9a5fe6]
class TaskSpecification--><rect fill="#FEFECE" filter="url(#f19tyge2xayoon)" height="73.6094" id="TaskSpecification" style="stroke: #A80036; stroke-width: 1.5;" width="138" x="38" y="244"/><ellipse cx="53.45" cy="260" fill="#ADD1B2" rx="11" ry="11" style="stroke: #A80036; stroke-width: 1.0;"/><path d="M55.7938,255.6719 C54.8563,255.2344 54.2625,255.0938 53.3875,255.0938 C50.7625,255.0938 48.7625,257.1719 48.7625,259.8906 L48.7625,261.0156 C48.7625,263.5938 50.8719,265.4844 53.7625,265.4844 C54.9813,265.4844 56.1375,265.1875 56.8875,264.6406 C57.4656,264.2344 57.7938,263.7813 57.7938,263.3906 C57.7938,262.9375 57.4031,262.5469 56.9344,262.5469 C56.7156,262.5469 56.5125,262.625 56.325,262.8125 C55.8719,263.2969 55.8719,263.2969 55.6844,263.3906 C55.2625,263.6563 54.575,263.7813 53.8094,263.7813 C51.7625,263.7813 50.4656,262.6875 50.4656,260.9844 L50.4656,259.8906 C50.4656,258.1094 51.7156,256.7969 53.45,256.7969 C54.0281,256.7969 54.6375,256.9531 55.1063,257.2031 C55.5906,257.4844 55.7625,257.7031 55.8563,258.1094 C55.9188,258.5156 55.95,258.6406 56.0906,258.7656 C56.2313,258.9063 56.4656,259.0156 56.6844,259.0156 C56.95,259.0156 57.2156,258.875 57.3875,258.6563 C57.4969,258.5 57.5281,258.3125 57.5281,257.8906 L57.5281,256.4688 C57.5281,256.0313 57.5125,255.9063 57.4188,255.75 C57.2625,255.4844 56.9813,255.3438 56.6844,255.3438 C56.3875,255.3438 56.1844,255.4375 55.9656,255.75 L55.7938,255.6719 Z "/><text fill="#000000" font-family="sans-serif" font-size="12" lengthAdjust="spacingAndGlyphs" textLength="105" x="67.55" y="264.1543">TaskSpecification</text><line style="stroke: #A80036; stroke-width: 1.5;" x1="39" x2="175" y1="276" y2="276"/><line style="stroke: #A80036; stroke-width: 1.5;" x1="39" x2="175" y1="284" y2="284"/><text fill="#000000" font-family="sans-serif" font-size="11" font-style="italic" lengthAdjust="spacingAndGlyphs" textLength="126" x="44" y="298.2104">Type[ITask] get_type()</text><text fill="#000000" font-family="sans-serif" font-size="11" font-style="italic" lengthAdjust="spacingAndGlyphs" textLength="59" x="44" y="311.0151">ITask get()</text><!--MD5=[b78fffa2c6df6e647eec27b61ded662c]
class PlatformSpecification--><rect fill="#FEFECE" filter="url(#f19tyge2xayoon)" height="73.6094" id="PlatformSpecification" style="stroke: #A80036; stroke-width: 1.5;" width="160" x="211" y="244"/><ellipse cx="227.35" cy="260" fill="#ADD1B2" rx="11" ry="11" style="stroke: #A80036; stroke-width: 1.0;"/><path d="M229.6938,255.6719 C228.7563,255.2344 228.1625,255.0938 227.2875,255.0938 C224.6625,255.0938 222.6625,257.1719 222.6625,259.8906 L222.6625,261.0156 C222.6625,263.5938 224.7719,265.4844 227.6625,265.4844 C228.8813,265.4844 230.0375,265.1875 230.7875,264.6406 C231.3656,264.2344 231.6938,263.7813 231.6938,263.3906 C231.6938,262.9375 231.3031,262.5469 230.8344,262.5469 C230.6156,262.5469 230.4125,262.625 230.225,262.8125 C229.7719,263.2969 229.7719,263.2969 229.5844,263.3906 C229.1625,263.6563 228.475,263.7813 227.7094,263.7813 C225.6625,263.7813 224.3656,262.6875 224.3656,260.9844 L224.3656,259.8906 C224.3656,258.1094 225.6156,256.7969 227.35,256.7969 C227.9281,256.7969 228.5375,256.9531 229.0063,257.2031 C229.4906,257.4844 229.6625,257.7031 229.7563,258.1094 C229.8188,258.5156 229.85,258.6406 229.9906,258.7656 C230.1313,258.9063 230.3656,259.0156 230.5844,259.0156 C230.85,259.0156 231.1156,258.875 231.2875,258.6563 C231.3969,258.5 231.4281,258.3125 231.4281,257.8906 L231.4281,256.4688 C231.4281,256.0313 231.4125,255.9063 231.3188,255.75 C231.1625,255.4844 230.8813,255.3438 230.5844,255.3438 C230.2875,255.3438 230.0844,255.4375 229.8656,255.75 L229.6938,255.6719 Z "/><text fill="#000000" font-family="sans-serif" font-size="12" lengthAdjust="spacingAndGlyphs" textLength="125" x="241.65" y="264.1543">PlatformSpecification</text><line style="stroke: #A80036; stroke-width: 1.5;" x1="212" x2="370" y1="276" y2="276"/><line style="stroke: #A80036; stroke-width: 1.5;" x1="212" x2="370" y1="284" y2="284"/><text fill="#000000" font-family="sans-serif" font-size="11" font-style="italic" lengthAdjust="spacingAndGlyphs" textLength="148" x="217" y="298.2104">Type[IPlatform] get_type()</text><text fill="#000000" font-family="sans-serif" font-size="11" font-style="italic" lengthAdjust="spacingAndGlyphs" textLength="81" x="217" y="311.0151">IPlatform get()</text><!--MD5=[32d82f69d25a1b61a7a752188f87424a]
class PlatformCLISpecification--><rect fill="#FEFECE" filter="url(#f19tyge2xayoon)" height="73.6094" id="PlatformCLISpecification" style="stroke: #A80036; stroke-width: 1.5;" width="177" x="427.5" y="244"/><ellipse cx="443.85" cy="260" fill="#ADD1B2" rx="11" ry="11" style="stroke: #A80036; stroke-width: 1.0;"/><path d="M446.1938,255.6719 C445.2563,255.2344 444.6625,255.0938 443.7875,255.0938 C441.1625,255.0938 439.1625,257.1719 439.1625,259.8906 L439.1625,261.0156 C439.1625,263.5938 441.2719,265.4844 444.1625,265.4844 C445.3813,265.4844 446.5375,265.1875 447.2875,264.6406 C447.8656,264.2344 448.1938,263.7813 448.1938,263.3906 C448.1938,262.9375 447.8031,262.5469 447.3344,262.5469 C447.1156,262.5469 446.9125,262.625 446.725,262.8125 C446.2719,263.2969 446.2719,263.2969 446.0844,263.3906 C445.6625,263.6563 444.975,263.7813 444.2094,263.7813 C442.1625,263.7813 440.8656,262.6875 440.8656,260.9844 L440.8656,259.8906 C440.8656,258.1094 442.1156,256.7969 443.85,256.7969 C444.4281,256.7969 445.0375,256.9531 445.5063,257.2031 C445.9906,257.4844 446.1625,257.7031 446.2563,258.1094 C446.3188,258.5156 446.35,258.6406 446.4906,258.7656 C446.6313,258.9063 446.8656,259.0156 447.0844,259.0156 C447.35,259.0156 447.6156,258.875 447.7875,258.6563 C447.8969,258.5 447.9281,258.3125 447.9281,257.8906 L447.9281,256.4688 C447.9281,256.0313 447.9125,255.9063 447.8188,255.75 C447.6625,255.4844 447.3813,255.3438 447.0844,255.3438 C446.7875,255.3438 446.5844,255.4375 446.3656,255.75 L446.1938,255.6719 Z "/><text fill="#000000" font-family="sans-serif" font-size="12" lengthAdjust="spacingAndGlyphs" textLength="142" x="458.15" y="264.1543">PlatformCLISpecification</text><line style="stroke: #A80036; stroke-width: 1.5;" x1="428.5" x2="603.5" y1="276" y2="276"/><line style="stroke: #A80036; stroke-width: 1.5;" x1="428.5" x2="603.5" y1="284" y2="284"/><text fill="#000000" font-family="sans-serif" font-size="11" font-style="italic" lengthAdjust="spacingAndGlyphs" textLength="165" x="433.5" y="298.2104">Type[IPlatformCLI] get_type()</text><text fill="#000000" font-family="sans-serif" font-size="11" font-style="italic" lengthAdjust="spacingAndGlyphs" textLength="95" x="433.5" y="311.0151">PlatformCLI get()</text><!--MD5=[74a10c1222990e3566b70a1cebae1e7f]
reverse link PluginSpecification to TaskSpecification--><path d="M165.631,188.571 C153.494,207.497 140.714,227.427 130.194,243.831 " fill="none" id="PluginSpecification&lt;-TaskSpecification" style="stroke: #A80036; stroke-width: 1.0;"/><polygon fill="#A80036" points="168.372,184.296,160.1455,189.7112,165.6721,188.5044,166.8789,194.031,168.372,184.296" style="stroke: #A80036; stroke-width: 1.0;"/><!--MD5=[a158dc61fff3fd0ccaf5bfb4f6314ee5]
reverse link PluginSpecification to PlatformSpecification--><path d="M243.07,189.048 C252.969,207.832 263.367,227.564 271.939,243.831 " fill="none" id="PluginSpecification&lt;-PlatformSpecification" style="stroke: #A80036; stroke-width: 1.0;"/><polygon fill="#A80036" points="240.566,184.296,241.2205,194.1231,242.8959,188.72,248.2989,190.3953,240.566,184.296" style="stroke: #A80036; stroke-width: 1.0;"/><!--MD5=[c67bd048594d97d323229ef145ab476d]
reverse link PluginSpecification to PlatformCLISpecification--><path d="M357.533,186.239 C367.578,191.084 377.48,196.027 387,201 C411.79,213.95 438.28,229.797 460.765,243.891 " fill="none" id="PluginSpecification&lt;-PlatformCLISpecification" style="stroke: #A80036; stroke-width: 1.0;"/><polygon fill="#A80036" points="352.909,184.02,359.2935,191.5192,357.4171,186.1826,362.7537,184.3063,352.909,184.02" style="stroke: #A80036; stroke-width: 1.0;"/><!--MD5=[94b13435787094db2a7b59986d405959]
@startuml
package "idmtools" {
    class PluginSpecification {
        str get_name(strip_all)
        {abstract} str get_description()
        List[ProjectTemplate] get_project_templates()
        List[str] get_example_urls()
        Dict[str, str] get_help_urls()
        {static} get_version_url(version, repo_base_url, nightly_branch)
    }

    class TaskSpecification {
        {abstract} Type[ITask] get_type()
        {abstract} ITask get()
    }

    class PlatformSpecification {
        {abstract} Type[IPlatform] get_type()
        {abstract} IPlatform get()
    }
}

package "cli"{
    class PlatformCLISpecification {
        {abstract} Type[IPlatformCLI] get_type()
        {abstract} PlatformCLI get()
    }
}

PluginSpecification <- - TaskSpecification
PluginSpecification <- - PlatformSpecification
PluginSpecification <- - PlatformCLISpecification
@enduml

PlantUML version 1.2020.10(Sun May 17 09:48:49 UTC 2020)
(GPL source distribution)
Java Runtime: Java(TM) SE Runtime Environment
JVM: Java HotSpot(TM) 64-Bit Server VM
Operating System: Linux
Default Encoding: UTF-8
Language: en
Country: US
--></g></svg>