<?xml version="1.0" encoding="UTF-8" standalone="no"?><svg xmlns="http://www.w3.org/2000/svg" xmlns:xlink="http://www.w3.org/1999/xlink" contentScriptType="application/ecmascript" contentStyleType="text/css" height="348px" preserveAspectRatio="none" style="width:787px;height:348px;" version="1.1" viewBox="0 0 787 348" width="787px" zoomAndPan="magnify"><defs><filter height="300%" id="ftx9cc6et4uug" width="300%" x="-1" y="-1"><feGaussianBlur result="blurOut" stdDeviation="2.0"/><feColorMatrix in="blurOut" result="blurOut2" type="matrix" values="0 0 0 0 0 0 0 0 0 0 0 0 0 0 0 0 0 0 .4 0"/><feOffset dx="4.0" dy="4.0" in="blurOut2" result="blurOut3"/><feBlend in="SourceGraphic" in2="blurOut3" mode="normal"/></filter></defs><g><!--MD5=[dbc60304b862515ffa2e16e2f9684eb5]
cluster Workers Container--><polygon fill="#FFFFFF" filter="url(#ftx9cc6et4uug)" points="127,16,137,6,485,6,485,155,475,165,127,165,127,16" style="stroke: #000000; stroke-width: 1.5;"/><line style="stroke: #000000; stroke-width: 1.5;" x1="475" x2="485" y1="16" y2="6"/><line style="stroke: #000000; stroke-width: 1.5;" x1="127" x2="475" y1="16" y2="16"/><line style="stroke: #000000; stroke-width: 1.5;" x1="475" x2="475" y1="16" y2="165"/><text fill="#000000" font-family="sans-serif" font-size="14" font-weight="bold" lengthAdjust="spacingAndGlyphs" textLength="150" x="227" y="31.9951">Workers Container</text><!--MD5=[2c925a165417bc436a5e1ff5b3108da0]
cluster Python Workers--><rect fill="#FFFFFF" filter="url(#ftx9cc6et4uug)" height="87" style="stroke: #000000; stroke-width: 1.5;" width="245" x="216" y="54"/><text fill="#000000" font-family="sans-serif" font-size="14" font-weight="bold" lengthAdjust="spacingAndGlyphs" textLength="128" x="274.5" y="68.9951">Python Workers</text><!--MD5=[c42ed81cef7fdd2e33758127945b9a5b]
entity UI--><rect fill="#FEFECE" filter="url(#ftx9cc6et4uug)" height="46.2969" style="stroke: #A80036; stroke-width: 1.5;" width="53" x="143.5" y="84"/><rect fill="#FEFECE" height="10" style="stroke: #A80036; stroke-width: 1.5;" width="15" x="176.5" y="89"/><rect fill="#FEFECE" height="2" style="stroke: #A80036; stroke-width: 1.5;" width="4" x="174.5" y="91"/><rect fill="#FEFECE" height="2" style="stroke: #A80036; stroke-width: 1.5;" width="4" x="174.5" y="95"/><text fill="#000000" font-family="sans-serif" font-size="14" lengthAdjust="spacingAndGlyphs" textLength="13" x="158.5" y="116.9951">UI</text><!--MD5=[cde18378286e59c32eb7d59844b99053]
entity w2--><rect fill="#FEFECE" filter="url(#ftx9cc6et4uug)" height="36.2969" style="stroke: #000000; stroke-width: 1.5;" width="92" x="353" y="89"/><text fill="#000000" font-family="sans-serif" font-size="14" lengthAdjust="spacingAndGlyphs" textLength="72" x="363" y="111.9951">Worker ...</text><!--MD5=[945bb76cb2232b12ba90c731e52d4c9b]
entity w1--><rect fill="#FEFECE" filter="url(#ftx9cc6et4uug)" height="36.2969" style="stroke: #000000; stroke-width: 1.5;" width="86" x="232" y="89"/><text fill="#000000" font-family="sans-serif" font-size="14" lengthAdjust="spacingAndGlyphs" textLength="66" x="242" y="111.9951">Worker 1</text><!--MD5=[7468467f3b6b392f1d176d828c753b77]
entity db--><path d="M6,300.5 C6,290.5 85,290.5 85,290.5 C85,290.5 164,290.5 164,300.5 L164,325.7969 C164,335.7969 85,335.7969 85,335.7969 C85,335.7969 6,335.7969 6,325.7969 L6,300.5 " fill="#FEFECE" filter="url(#ftx9cc6et4uug)" style="stroke: #000000; stroke-width: 1.5;"/><path d="M6,300.5 C6,310.5 85,310.5 85,310.5 C85,310.5 164,310.5 164,300.5 " fill="none" style="stroke: #000000; stroke-width: 1.5;"/><text fill="#000000" font-family="sans-serif" font-size="14" lengthAdjust="spacingAndGlyphs" textLength="138" x="16" y="327.4951">Postgres Container</text><!--MD5=[de5dc476b5cd49b5a92d294ad2af7d70]
entity redis--><polygon fill="#FEFECE" filter="url(#ftx9cc6et4uug)" points="485,300,495,290,639,290,639,326.2969,629,336.2969,485,336.2969,485,300" style="stroke: #000000; stroke-width: 1.5;"/><line style="stroke: #000000; stroke-width: 1.5;" x1="629" x2="639" y1="300" y2="290"/><line style="stroke: #000000; stroke-width: 1.5;" x1="485" x2="629" y1="300" y2="300"/><line style="stroke: #000000; stroke-width: 1.5;" x1="629" x2="629" y1="300" y2="336.2969"/><text fill="#000000" font-family="sans-serif" font-size="14" lengthAdjust="spacingAndGlyphs" textLength="114" x="500" y="322.9951">Redis Container</text><!--MD5=[7d46d6cd919e02e6168a09ad91eae8b4]
entity u--><polygon fill="#FEFECE" filter="url(#ftx9cc6et4uug)" points="603,89,603,125.2969,757,125.2969,757,99,747,89,603,89" style="stroke: #000000; stroke-width: 1.5;"/><path d="M747,89 L747,99 L757,99 " fill="#FEFECE" style="stroke: #000000; stroke-width: 1.5;"/><text fill="#000000" font-family="sans-serif" font-size="14" lengthAdjust="spacingAndGlyphs" textLength="134" x="613" y="111.9951">User Python Script</text><!--MD5=[7b75a7a1b7794a1794f331c8c5ed7ca8]
link UI to db--><path d="M143.401,118.068 C109.684,132.684 54.4357,163.46 42,212 C35.285,238.2103 49.5304,266.3813 63.3916,286.122 " fill="none" id="UI-to-db" style="stroke: #A80036; stroke-width: 1.0;"/><polygon fill="#A80036" points="66.5208,290.4518,64.4912,280.8143,63.5921,286.3993,58.0072,285.5002,66.5208,290.4518" style="stroke: #A80036; stroke-width: 1.0;"/><!--MD5=[8744279f4321fc28516422be32c084cd]
link w1 to db--><path d="M263.856,129.882 C255.666,143.984 243.315,161.726 228,173 C184.196,205.244 149.277,172.392 112,212 C93.402,231.761 87.348,262.9719 85.5118,285.2678 " fill="none" id="w1-db" style="stroke: #A80036; stroke-width: 1.0;"/><polygon fill="#A80036" points="85.1473,290.4477,89.7695,281.7508,85.4984,285.46,81.7892,281.189,85.1473,290.4477" style="stroke: #A80036; stroke-width: 1.0;"/><polygon fill="#A80036" points="266.472,125.254,258.5601,131.1193,264.0109,129.6063,265.5238,135.0571,266.472,125.254" style="stroke: #A80036; stroke-width: 1.0;"/><text fill="#000000" font-family="sans-serif" font-size="13" lengthAdjust="spacingAndGlyphs" textLength="118" x="113" y="225.0669">Get/Update Status</text><!--MD5=[6ebfe7e2048eb548960ef390ccae206a]
link w1 to redis--><path d="M287.397,129.437 C303.644,155.916 334.413,200.896 371,229 C404.615,254.8211 447.498,274.3994 484.112,288.0375 " fill="none" id="w1-redis" style="stroke: #A80036; stroke-width: 1.0;"/><polygon fill="#A80036" points="489.004,289.8385,481.9397,282.9758,484.3118,288.1113,479.1763,290.4834,489.004,289.8385" style="stroke: #A80036; stroke-width: 1.0;"/><polygon fill="#A80036" points="284.725,125.034,285.9753,134.8032,287.3193,129.3083,292.8142,130.6523,284.725,125.034" style="stroke: #A80036; stroke-width: 1.0;"/><text fill="#000000" font-family="sans-serif" font-size="13" lengthAdjust="spacingAndGlyphs" textLength="117" x="372" y="225.0669">Get task/Add Task</text><!--MD5=[8c66cbbe097b59f535a962f48d334d91]
link w2 to db--><path d="M413.173,129.556 C428.445,155.77 447.705,200.086 425,229 C393.787,268.7492 259.568,291.887 169.394,303.2173 " fill="none" id="w2-db" style="stroke: #A80036; stroke-width: 1.0;"/><polygon fill="#A80036" points="164.328,303.8473,173.7529,306.7059,169.2898,303.2302,172.7655,298.767,164.328,303.8473" style="stroke: #A80036; stroke-width: 1.0;"/><polygon fill="#A80036" points="410.572,125.195,411.7471,134.9735,413.1333,129.4891,418.6177,130.8754,410.572,125.195" style="stroke: #A80036; stroke-width: 1.0;"/><!--MD5=[8d8af6b857cc977956b773e275238683]
link w2 to redis--><path d="M422.035,128.516 C437.262,142.593 457.242,162.081 473,181 C501.278,214.952 529.125,257.9 545.939,285.1704 " fill="none" id="w2-redis" style="stroke: #A80036; stroke-width: 1.0;"/><polygon fill="#A80036" points="548.744,289.7411,547.4451,279.9783,546.1285,285.4798,540.627,284.1631,548.744,289.7411" style="stroke: #A80036; stroke-width: 1.0;"/><polygon fill="#A80036" points="418.272,125.057,422.1906,134.0927,421.953,128.4409,427.6048,128.2032,418.272,125.057" style="stroke: #A80036; stroke-width: 1.0;"/><!--MD5=[a87706f323a253f06a44a20792593cb0]
link u to redis--><path d="M670.142,125.042 C649.62,160.521 602.171,242.5521 577.511,285.1835 " fill="none" id="u-to-redis" style="stroke: #A80036; stroke-width: 1.0; stroke-dasharray: 7.0,7.0;"/><polygon fill="#A80036" points="574.909,289.6826,582.8784,283.8957,577.413,285.3548,575.9539,279.8893,574.909,289.6826" style="stroke: #A80036; stroke-width: 1.0;"/><text fill="#000000" font-family="sans-serif" font-size="13" lengthAdjust="spacingAndGlyphs" textLength="76" x="620" y="225.0669">Submit task</text><!--MD5=[8fe98daa1549fc04e31ac7dd3244cec5]
reverse link u to redis--><path d="M693.084,129.761 C706.496,155.161 723.037,197.675 705,229 C688.671,257.3586 658.527,276.9194 630.111,289.8945 " fill="none" id="u-backto-redis" style="stroke: #A80036; stroke-width: 1.0; stroke-dasharray: 7.0,7.0;"/><polygon fill="#A80036" points="690.625,125.224,691.3976,135.0425,693.0078,129.6197,698.4307,131.23,690.625,125.224" style="stroke: #A80036; stroke-width: 1.0;"/><text fill="#000000" font-family="sans-serif" font-size="13" lengthAdjust="spacingAndGlyphs" textLength="63" x="712" y="225.0669">Get result</text><!--MD5=[7c961f0eee56385a97875cb1df57ae3a]
@startuml
database "Postgres Container" as db
node "Redis Container"as redis
node "Workers Container" {
    [UI] -> db
    rectangle "Python Workers" {
        rectangle "Worker ..." as w2
        rectangle "Worker 1" as w1
        w1 <- - -> db : Get/Update Status
        w1 <- - -> redis : Get task/Add Task
        w2 <- - -> db
        w2 <- - -> redis
    }
}
file "User Python Script" as u
u ...> redis : Submit task
u <... redis : Get result
@enduml

PlantUML version 1.2020.18beta4(Unknown compile time)
(GPL source distribution)
Java Runtime: Java(TM) SE Runtime Environment
JVM: Java HotSpot(TM) 64-Bit Server VM
Default Encoding: UTF-8
Language: en
Country: US
--></g></svg>