<?xml version="1.0" encoding="UTF-8" standalone="no"?><svg xmlns="http://www.w3.org/2000/svg" xmlns:xlink="http://www.w3.org/1999/xlink" contentScriptType="application/ecmascript" contentStyleType="text/css" height="242px" preserveAspectRatio="none" style="width:694px;height:242px;" version="1.1" viewBox="0 0 694 242" width="694px" zoomAndPan="magnify"><defs><filter height="300%" id="f1otlmqchdgrtn" width="300%" x="-1" y="-1"><feGaussianBlur result="blurOut" stdDeviation="2.0"/><feColorMatrix in="blurOut" result="blurOut2" type="matrix" values="0 0 0 0 0 0 0 0 0 0 0 0 0 0 0 0 0 0 .4 0"/><feOffset dx="4.0" dy="4.0" in="blurOut2" result="blurOut3"/><feBlend in="SourceGraphic" in2="blurOut3" mode="normal"/></filter></defs><g><!--MD5=[e3a89b72019d8d69b73b0a9ebb84eda6]
cluster cli--><polygon fill="#FFFFFF" filter="url(#f1otlmqchdgrtn)" points="16,17,119,17,126,39.2969,143,39.2969,143,104,16,104,16,17" style="stroke: #000000; stroke-width: 1.5;"/><line style="stroke: #000000; stroke-width: 1.5;" x1="16" x2="126" y1="39.2969" y2="39.2969"/><text fill="#000000" font-family="sans-serif" font-size="14" font-weight="bold" lengthAdjust="spacingAndGlyphs" textLength="97" x="20" y="31.9951">idmtools-cli</text><!--MD5=[272379cf1f80536b6294ad33393ecec2]
cluster registry--><polygon fill="#FFFFFF" filter="url(#f1otlmqchdgrtn)" points="510,6,629,6,636,28.2969,644,28.2969,644,115,510,115,510,6" style="stroke: #000000; stroke-width: 1.5;"/><line style="stroke: #000000; stroke-width: 1.5;" x1="510" x2="636" y1="28.2969" y2="28.2969"/><text fill="#000000" font-family="sans-serif" font-size="14" font-weight="bold" lengthAdjust="spacingAndGlyphs" textLength="113" x="514" y="20.9951">idmtools-core</text><!--MD5=[8a509646a725e4b29ac3346bf48b9d0c]
cluster local--><polygon fill="#FFFFFF" filter="url(#f1otlmqchdgrtn)" points="275,17,476,17,483,39.2969,486,39.2969,486,230,275,230,275,17" style="stroke: #000000; stroke-width: 1.5;"/><line style="stroke: #000000; stroke-width: 1.5;" x1="275" x2="483" y1="39.2969" y2="39.2969"/><text fill="#000000" font-family="sans-serif" font-size="14" font-weight="bold" lengthAdjust="spacingAndGlyphs" textLength="195" x="279" y="31.9951">idmtools-platform-local</text><!--MD5=[df6a39b053164d23cc3ecae9c3484a54]
entity CLI--><rect fill="#FEFECE" filter="url(#f1otlmqchdgrtn)" height="36.2969" style="stroke: #A80036; stroke-width: 1.5;" width="42" x="32" y="52"/><rect fill="#FEFECE" height="5" style="stroke: #A80036; stroke-width: 1.5;" width="10" x="27" y="57"/><rect fill="#FEFECE" height="5" style="stroke: #A80036; stroke-width: 1.5;" width="10" x="27" y="78.2969"/><text fill="#000000" font-family="sans-serif" font-size="14" lengthAdjust="spacingAndGlyphs" textLength="22" x="42" y="74.9951">CLI</text><!--MD5=[2d9774aa1acd34f2b66b18a2301fe88b]
entity cli_api--><ellipse cx="118" cy="70" fill="#FEFECE" filter="url(#f1otlmqchdgrtn)" rx="8" ry="8" style="stroke: #A80036; stroke-width: 2.0;"/><text fill="#000000" font-family="sans-serif" font-size="14" lengthAdjust="spacingAndGlyphs" textLength="49" x="93.5" y="99.9951">CLI API</text><!--MD5=[5df59aa2065c15f87b95d8b2badd43a6]
entity PlatformAPI--><ellipse cx="577" cy="70" fill="#FEFECE" filter="url(#f1otlmqchdgrtn)" rx="8" ry="8" style="stroke: #A80036; stroke-width: 2.0;"/><text fill="#000000" font-family="sans-serif" font-size="14" lengthAdjust="spacingAndGlyphs" textLength="86" x="534" y="99.9951">PlatformAPI</text><!--MD5=[55f6dbe904984446c2e17a5a2235035a]
entity LocalPlatform--><rect fill="#FEFECE" filter="url(#f1otlmqchdgrtn)" height="36.2969" style="stroke: #A80036; stroke-width: 1.5;" width="120" x="339" y="178"/><rect fill="#FEFECE" height="5" style="stroke: #A80036; stroke-width: 1.5;" width="10" x="334" y="183"/><rect fill="#FEFECE" height="5" style="stroke: #A80036; stroke-width: 1.5;" width="10" x="334" y="204.2969"/><text fill="#000000" font-family="sans-serif" font-size="14" lengthAdjust="spacingAndGlyphs" textLength="100" x="349" y="200.9951">LocalPlatform</text><!--MD5=[b0df9fe075fb6157eb6b7601b8c8f7b9]
entity LocalPlatformCLI--><rect fill="#FEFECE" filter="url(#f1otlmqchdgrtn)" height="36.2969" style="stroke: #A80036; stroke-width: 1.5;" width="142" x="328" y="52"/><rect fill="#FEFECE" height="5" style="stroke: #A80036; stroke-width: 1.5;" width="10" x="323" y="57"/><rect fill="#FEFECE" height="5" style="stroke: #A80036; stroke-width: 1.5;" width="10" x="323" y="78.2969"/><text fill="#000000" font-family="sans-serif" font-size="14" lengthAdjust="spacingAndGlyphs" textLength="122" x="338" y="74.9951">LocalPlatformCLI</text><!--MD5=[626a1111791783c1cd0901f34a1556fa]
link PlatformAPI to LocalPlatform--><path d="M563.506,80.401 C534.666,100.491 466.493,147.9827 427.562,175.1028 " fill="none" id="PlatformAPI-LocalPlatform" style="stroke: #A80036; stroke-width: 1.0;"/><polygon fill="#A80036" points="423.426,177.9839,433.0975,176.123,427.5291,175.1265,428.5256,169.5581,423.426,177.9839" style="stroke: #A80036; stroke-width: 1.0;"/><polygon fill="#A80036" points="567.928,77.32,558.2569,79.183,563.8255,80.1783,562.8302,85.7469,567.928,77.32" style="stroke: #A80036; stroke-width: 1.0;"/><text fill="#000000" font-family="sans-serif" font-size="13" lengthAdjust="spacingAndGlyphs" textLength="193" x="489" y="144.0669">LocalPlatform Implementation</text><!--MD5=[78de9c51578464c19ef48d8ebb8f7e18]
link cli_api to LocalPlatformCLI--><path d="M132.19,70 C166.657,70 256.799,70 322.802,70 " fill="none" id="cli_api-LocalPlatformCLI" style="stroke: #A80036; stroke-width: 1.0; stroke-dasharray: 7.0,7.0;"/><polygon fill="#A80036" points="327.91,70,318.91,66,322.91,70,318.91,74,327.91,70" style="stroke: #A80036; stroke-width: 1.0;"/><polygon fill="#A80036" points="127.031,70,136.031,74,132.031,70,136.031,66,127.031,70" style="stroke: #A80036; stroke-width: 1.0;"/><text fill="#000000" font-family="sans-serif" font-size="13" lengthAdjust="spacingAndGlyphs" textLength="164" x="145.5" y="63.0669">idmtools local commands</text><!--MD5=[658114fe877839abac81fa0ed0d92059]
link LocalPlatformCLI to LocalPlatform--><path d="M388.954,93.197 C385.352,115.673 385.349,150.2396 388.944,172.7387 " fill="none" id="LocalPlatformCLI-LocalPlatform" style="stroke: #A80036; stroke-width: 1.0;"/><polygon fill="#A80036" points="389.878,177.9048,392.2128,168.3367,388.9884,172.9846,384.3405,169.7601,389.878,177.9048" style="stroke: #A80036; stroke-width: 1.0;"/><polygon fill="#A80036" points="389.848,88.242,384.3125,96.3881,388.9596,93.1624,392.1852,97.8095,389.848,88.242" style="stroke: #A80036; stroke-width: 1.0;"/><!--MD5=[94581a2f3320fb544f94d1cc60a0e352]
link LocalPlatform to LocalPlatformCLI--><!--MD5=[707bac5cff732bc13b0d19008856f9b9]
@startuml
package "idmtools-cli" as cli {
    [CLI]
    () "CLI API" as cli_api
}

package "idmtools-core" as registry {
    () "PlatformAPI" as PlatformAPI
}

package "idmtools-platform-local" as local {
    [LocalPlatform]
    [LocalPlatformCLI]
}

PlatformAPI <-down-> LocalPlatform : LocalPlatform Implementation
cli_api <.> LocalPlatformCLI : idmtools local commands
LocalPlatformCLI <- -> LocalPlatform
LocalPlatform -[hidden]- LocalPlatformCLI
@enduml

PlantUML version 1.2020.12(Sat Jun 06 10:54:15 UTC 2020)
(GPL source distribution)
Java Runtime: Java(TM) SE Runtime Environment
JVM: Java HotSpot(TM) 64-Bit Server VM
Default Encoding: UTF-8
Language: en
Country: US
--></g></svg>