<?xml version="1.0" encoding="UTF-8" standalone="no"?><svg xmlns="http://www.w3.org/2000/svg" xmlns:xlink="http://www.w3.org/1999/xlink" contentScriptType="application/ecmascript" contentStyleType="text/css" height="142px" preserveAspectRatio="none" style="width:109px;height:142px;" version="1.1" viewBox="0 0 109 142" width="109px" zoomAndPan="magnify"><defs><filter height="300%" id="f14f7bpiggt922" width="300%" x="-1" y="-1"><feGaussianBlur result="blurOut" stdDeviation="2.0"/><feColorMatrix in="blurOut" result="blurOut2" type="matrix" values="0 0 0 0 0 0 0 0 0 0 0 0 0 0 0 0 0 0 .4 0"/><feOffset dx="4.0" dy="4.0" in="blurOut2" result="blurOut3"/><feBlend in="SourceGraphic" in2="blurOut3" mode="normal"/></filter></defs><g><!--MD5=[733ae57ad73ddca760861ab983f10ac6]
class IAnalyzer--><rect fill="#FEFECE" filter="url(#f14f7bpiggt922)" height="124.8281" id="IAnalyzer" style="stroke: #A80036; stroke-width: 1.5;" width="91" x="7" y="7"/><ellipse cx="23.8" cy="23" fill="#A9DCDF" rx="11" ry="11" style="stroke: #A80036; stroke-width: 1.0;"/><path d="M25.8781,24.8125 L26.2688,25.7969 L25.8781,25.7969 C25.425,25.7969 25.3156,25.8125 25.1594,25.9219 C24.9094,26.0781 24.7531,26.3594 24.7531,26.6563 C24.7531,26.9219 24.8938,27.1719 25.1125,27.3281 C25.2531,27.4531 25.4563,27.5 25.8781,27.5 L28.2375,27.5 C28.5969,27.5 28.8156,27.4688 28.9563,27.375 C29.2063,27.2344 29.3625,26.9375 29.3625,26.6563 C29.3625,26.375 29.2219,26.125 29.0031,25.9688 C28.8313,25.8281 28.675,25.7969 28.2063,25.7969 L24.8156,17.5938 L21.1438,17.5938 C20.6906,17.5938 20.5656,17.6094 20.4094,17.7031 C20.1594,17.875 20.0031,18.1563 20.0031,18.4375 C20.0031,18.7188 20.1438,18.9688 20.3625,19.1406 C20.5344,19.25 20.7063,19.2813 21.1438,19.2813 L22.2219,19.2813 L19.5813,25.7969 C19.1594,25.7969 19.0031,25.8125 18.8469,25.9219 C18.5969,26.0781 18.4406,26.3594 18.4406,26.6563 C18.4406,27.2188 18.8156,27.5 19.5656,27.5 L21.8313,27.5 C22.1906,27.5 22.4094,27.4688 22.5344,27.375 C22.8,27.2344 22.9406,26.9375 22.9406,26.6563 C22.9406,26.375 22.8156,26.125 22.5969,25.9531 C22.425,25.8281 22.2844,25.7969 21.8313,25.7969 L21.4406,25.7969 L21.8313,24.8125 L25.8781,24.8125 Z M25.175,23.1094 L22.5031,23.1094 L23.8469,19.8438 L25.175,23.1094 Z "/><text fill="#000000" font-family="sans-serif" font-size="12" font-style="italic" lengthAdjust="spacingAndGlyphs" textLength="55" x="38.2" y="27.1543">IAnalyzer</text><line style="stroke: #A80036; stroke-width: 1.5;" x1="8" x2="97" y1="39" y2="39"/><line style="stroke: #A80036; stroke-width: 1.5;" x1="8" x2="97" y1="47" y2="47"/><ellipse cx="18" cy="58" fill="#84BE84" rx="3" ry="3" style="stroke: #038048; stroke-width: 1.0;"/><text fill="#000000" font-family="sans-serif" font-size="11" lengthAdjust="spacingAndGlyphs" textLength="56" x="27" y="61.2104">initialize()</text><ellipse cx="18" cy="70.8047" fill="#84BE84" rx="3" ry="3" style="stroke: #038048; stroke-width: 1.0;"/><text fill="#000000" font-family="sans-serif" font-size="11" lengthAdjust="spacingAndGlyphs" textLength="65" x="27" y="74.0151">per_group()</text><ellipse cx="18" cy="83.6094" fill="#84BE84" rx="3" ry="3" style="stroke: #038048; stroke-width: 1.0;"/><text fill="#000000" font-family="sans-serif" font-size="11" lengthAdjust="spacingAndGlyphs" textLength="34" x="27" y="86.8198">filter()</text><ellipse cx="18" cy="96.4141" fill="#84BE84" rx="3" ry="3" style="stroke: #038048; stroke-width: 1.0;"/><text fill="#000000" font-family="sans-serif" font-size="11" lengthAdjust="spacingAndGlyphs" textLength="33" x="27" y="99.6245">map()</text><ellipse cx="18" cy="109.2188" fill="#84BE84" rx="3" ry="3" style="stroke: #038048; stroke-width: 1.0;"/><text fill="#000000" font-family="sans-serif" font-size="11" lengthAdjust="spacingAndGlyphs" textLength="48" x="27" y="112.4292">reduce()</text><ellipse cx="18" cy="122.0234" fill="#84BE84" rx="3" ry="3" style="stroke: #038048; stroke-width: 1.0;"/><text fill="#000000" font-family="sans-serif" font-size="11" lengthAdjust="spacingAndGlyphs" textLength="51" x="27" y="125.2339">destroy()</text><!--MD5=[e7c5f3cafb767b3a408b191d1f2c64d8]
@startuml
abstract class IAnalyzer {
+initialize()
+per_group()
+filter()
+map()
+reduce()
+destroy()
}
@enduml

PlantUML version 1.2020.10(Sun May 17 09:48:49 UTC 2020)
(GPL source distribution)
Java Runtime: Java(TM) SE Runtime Environment
JVM: Java HotSpot(TM) 64-Bit Server VM
Operating System: Linux
Default Encoding: UTF-8
Language: en
Country: US
--></g></svg>