<?xml version="1.0" encoding="UTF-8" standalone="no"?><svg xmlns="http://www.w3.org/2000/svg" xmlns:xlink="http://www.w3.org/1999/xlink" contentScriptType="application/ecmascript" contentStyleType="text/css" height="923px" preserveAspectRatio="none" style="width:734px;height:923px;" version="1.1" viewBox="0 0 734 923" width="734px" zoomAndPan="magnify"><defs><filter height="300%" id="f10058t6nkm6d8" width="300%" x="-1" y="-1"><feGaussianBlur result="blurOut" stdDeviation="2.0"/><feColorMatrix in="blurOut" result="blurOut2" type="matrix" values="0 0 0 0 0 0 0 0 0 0 0 0 0 0 0 0 0 0 .4 0"/><feOffset dx="4.0" dy="4.0" in="blurOut2" result="blurOut3"/><feBlend in="SourceGraphic" in2="blurOut3" mode="normal"/></filter></defs><g><!--MD5=[c1e1231ca7b322f3bce32411b7c99d5b]
cluster ejo--><polygon fill="#FFFFFF" filter="url(#f10058t6nkm6d8)" points="188.5,6,457.5,6,464.5,28.2969,686.5,28.2969,686.5,477,188.5,477,188.5,6" style="stroke: #000000; stroke-width: 1.5;"/><line style="stroke: #000000; stroke-width: 1.5;" x1="188.5" x2="464.5" y1="28.2969" y2="28.2969"/><text fill="#000000" font-family="sans-serif" font-size="14" font-weight="bold" lengthAdjust="spacingAndGlyphs" textLength="238" x="192.5" y="20.9951">Experiment/Job orchestration</text><!--MD5=[272379cf1f80536b6294ad33393ecec2]
cluster registry--><polygon fill="#FFFFFF" filter="url(#f10058t6nkm6d8)" points="267.5,510,551.5,510,558.5,532.2969,561.5,532.2969,561.5,698,267.5,698,267.5,510" style="stroke: #000000; stroke-width: 1.5;"/><line style="stroke: #000000; stroke-width: 1.5;" x1="267.5" x2="558.5" y1="532.2969" y2="532.2969"/><text fill="#000000" font-family="sans-serif" font-size="14" font-weight="bold" lengthAdjust="spacingAndGlyphs" textLength="253" x="271.5" y="524.9951">registry (Plugin infrastructure)</text><!--MD5=[7c6768d8bd89698131ab6900f7550cc4]
cluster tasks--><polygon fill="#FFFFFF" filter="url(#f10058t6nkm6d8)" points="260.5,824,319.5,824,326.5,846.2969,559.5,846.2969,559.5,911,260.5,911,260.5,824" style="stroke: #000000; stroke-width: 1.5;"/><line style="stroke: #000000; stroke-width: 1.5;" x1="260.5" x2="326.5" y1="846.2969" y2="846.2969"/><text fill="#000000" font-family="sans-serif" font-size="14" font-weight="bold" lengthAdjust="spacingAndGlyphs" textLength="48" x="264.5" y="838.9951">Tasks</text><!--MD5=[4f196ed4e047f01b4d261d766e803089]
entity Assets--><rect fill="#FEFECE" filter="url(#f10058t6nkm6d8)" height="36.2969" style="stroke: #A80036; stroke-width: 1.5;" width="67" x="403" y="425"/><rect fill="#FEFECE" height="5" style="stroke: #A80036; stroke-width: 1.5;" width="10" x="398" y="430"/><rect fill="#FEFECE" height="5" style="stroke: #A80036; stroke-width: 1.5;" width="10" x="398" y="451.2969"/><text fill="#000000" font-family="sans-serif" font-size="14" lengthAdjust="spacingAndGlyphs" textLength="47" x="413" y="447.9951">Assets</text><!--MD5=[3372e0802d7d050329ccc6f764580a49]
entity Experiment--><rect fill="#FEFECE" filter="url(#f10058t6nkm6d8)" height="36.2969" style="stroke: #A80036; stroke-width: 1.5;" width="105" x="205" y="154"/><rect fill="#FEFECE" height="5" style="stroke: #A80036; stroke-width: 1.5;" width="10" x="200" y="159"/><rect fill="#FEFECE" height="5" style="stroke: #A80036; stroke-width: 1.5;" width="10" x="200" y="180.2969"/><text fill="#000000" font-family="sans-serif" font-size="14" lengthAdjust="spacingAndGlyphs" textLength="85" x="215" y="176.9951">Experiment</text><!--MD5=[1bbe330ca109a04aaf74ad92e239389e]
entity ExperimentBuilders--><rect fill="#FEFECE" filter="url(#f10058t6nkm6d8)" height="36.2969" style="stroke: #A80036; stroke-width: 1.5;" width="162" x="508.5" y="154"/><rect fill="#FEFECE" height="5" style="stroke: #A80036; stroke-width: 1.5;" width="10" x="503.5" y="159"/><rect fill="#FEFECE" height="5" style="stroke: #A80036; stroke-width: 1.5;" width="10" x="503.5" y="180.2969"/><text fill="#000000" font-family="sans-serif" font-size="14" lengthAdjust="spacingAndGlyphs" textLength="142" x="518.5" y="176.9951">ExperimentBuilders</text><!--MD5=[ffe7863412ae85ad3f14b25ea50b67df]
entity Simulation--><rect fill="#FEFECE" filter="url(#f10058t6nkm6d8)" height="36.2969" style="stroke: #A80036; stroke-width: 1.5;" width="96" x="500.5" y="297"/><rect fill="#FEFECE" height="5" style="stroke: #A80036; stroke-width: 1.5;" width="10" x="495.5" y="302"/><rect fill="#FEFECE" height="5" style="stroke: #A80036; stroke-width: 1.5;" width="10" x="495.5" y="323.2969"/><text fill="#000000" font-family="sans-serif" font-size="14" lengthAdjust="spacingAndGlyphs" textLength="76" x="510.5" y="319.9951">Simulation</text><!--MD5=[08f7a00d71faf13c08629754422ad5e6]
entity Tasks--><rect fill="#FEFECE" filter="url(#f10058t6nkm6d8)" height="36.2969" style="stroke: #A80036; stroke-width: 1.5;" width="60" x="590.5" y="425"/><rect fill="#FEFECE" height="5" style="stroke: #A80036; stroke-width: 1.5;" width="10" x="585.5" y="430"/><rect fill="#FEFECE" height="5" style="stroke: #A80036; stroke-width: 1.5;" width="10" x="585.5" y="451.2969"/><text fill="#000000" font-family="sans-serif" font-size="14" lengthAdjust="spacingAndGlyphs" textLength="40" x="600.5" y="447.9951">Tasks</text><!--MD5=[e4ef8ffea338babcb5183e75747bbc6e]
entity Platform--><rect fill="#FEFECE" filter="url(#f10058t6nkm6d8)" height="36.2969" style="stroke: #A80036; stroke-width: 1.5;" width="83" x="205" y="425"/><rect fill="#FEFECE" height="5" style="stroke: #A80036; stroke-width: 1.5;" width="10" x="200" y="430"/><rect fill="#FEFECE" height="5" style="stroke: #A80036; stroke-width: 1.5;" width="10" x="200" y="451.2969"/><text fill="#000000" font-family="sans-serif" font-size="14" lengthAdjust="spacingAndGlyphs" textLength="63" x="215" y="447.9951">Platform</text><!--MD5=[672fd63b98880074256e82d85c912995]
entity Suite--><rect fill="#FEFECE" filter="url(#f10058t6nkm6d8)" height="36.2969" style="stroke: #A80036; stroke-width: 1.5;" width="57" x="229" y="41"/><rect fill="#FEFECE" height="5" style="stroke: #A80036; stroke-width: 1.5;" width="10" x="224" y="46"/><rect fill="#FEFECE" height="5" style="stroke: #A80036; stroke-width: 1.5;" width="10" x="224" y="67.2969"/><text fill="#000000" font-family="sans-serif" font-size="14" lengthAdjust="spacingAndGlyphs" textLength="37" x="239" y="63.9951">Suite</text><!--MD5=[5df59aa2065c15f87b95d8b2badd43a6]
entity PlatformAPI--><ellipse cx="375.5" cy="574" fill="#FEFECE" filter="url(#f10058t6nkm6d8)" rx="8" ry="8" style="stroke: #A80036; stroke-width: 2.0;"/><text fill="#000000" font-family="sans-serif" font-size="14" lengthAdjust="spacingAndGlyphs" textLength="86" x="332.5" y="603.9951">PlatformAPI</text><!--MD5=[bd16e8f691229aaacf324dd8d35a0b42]
entity TasksAPI--><ellipse cx="405.5" cy="673" fill="#FEFECE" filter="url(#f10058t6nkm6d8)" rx="8" ry="8" style="stroke: #A80036; stroke-width: 2.0;"/><text fill="#000000" font-family="sans-serif" font-size="14" lengthAdjust="spacingAndGlyphs" textLength="63" x="374" y="702.9951">TasksAPI</text><!--MD5=[4a99ef2c49c3894fca3beb8798742a7e]
entity CommandTask--><rect fill="#FEFECE" filter="url(#f10058t6nkm6d8)" height="36.2969" style="stroke: #A80036; stroke-width: 1.5;" width="126" x="276.5" y="859"/><rect fill="#FEFECE" height="5" style="stroke: #A80036; stroke-width: 1.5;" width="10" x="271.5" y="864"/><rect fill="#FEFECE" height="5" style="stroke: #A80036; stroke-width: 1.5;" width="10" x="271.5" y="885.2969"/><text fill="#000000" font-family="sans-serif" font-size="14" lengthAdjust="spacingAndGlyphs" textLength="106" x="286.5" y="881.9951">CommandTask</text><!--MD5=[848cd629beecce62b7cb6311d0bf4712]
entity DockerTask--><rect fill="#FEFECE" filter="url(#f10058t6nkm6d8)" height="36.2969" style="stroke: #A80036; stroke-width: 1.5;" width="105" x="438" y="859"/><rect fill="#FEFECE" height="5" style="stroke: #A80036; stroke-width: 1.5;" width="10" x="433" y="864"/><rect fill="#FEFECE" height="5" style="stroke: #A80036; stroke-width: 1.5;" width="10" x="433" y="885.2969"/><text fill="#000000" font-family="sans-serif" font-size="14" lengthAdjust="spacingAndGlyphs" textLength="85" x="448" y="881.9951">DockerTask</text><!--MD5=[ccf70f5b4dc53f11b08ff970995a0d11]
entity Analyzers--><rect fill="#FEFECE" filter="url(#f10058t6nkm6d8)" height="36.2969" style="stroke: #A80036; stroke-width: 1.5;" width="89" x="11" y="297"/><rect fill="#FEFECE" height="5" style="stroke: #A80036; stroke-width: 1.5;" width="10" x="6" y="302"/><rect fill="#FEFECE" height="5" style="stroke: #A80036; stroke-width: 1.5;" width="10" x="6" y="323.2969"/><text fill="#000000" font-family="sans-serif" font-size="14" lengthAdjust="spacingAndGlyphs" textLength="69" x="21" y="319.9951">Analyzers</text><!--MD5=[a43456d7b758e89a87a8074f37461872]
link Analyzers to Platform--><path d="M49.0231,333.063 C43.6057,350.531 38.7527,377.524 52.5,395 C71.0875,418.628 153.589,431.817 204.833,437.864 " fill="none" id="Analyzers-Platform" style="stroke: #A80036; stroke-width: 1.0; stroke-dasharray: 7.0,7.0;"/><text fill="#000000" font-family="sans-serif" font-size="13" lengthAdjust="spacingAndGlyphs" textLength="160" x="53.5" y="383.5669">Load Data from Platform</text><!--MD5=[cdb69f6474f324ae2f52b6faebca741e]
link ExperimentBuilders to Experiment--><path d="M508.331,172 C446.577,172 363.405,172 310.106,172 " fill="none" id="ExperimentBuilders-Experiment" style="stroke: #A80036; stroke-width: 1.0; stroke-dasharray: 7.0,7.0;"/><text fill="#000000" font-family="sans-serif" font-size="13" lengthAdjust="spacingAndGlyphs" textLength="158" x="328.25" y="135.0669">ExperimentBuilders build</text><text fill="#000000" font-family="sans-serif" font-size="13" lengthAdjust="spacingAndGlyphs" textLength="119" x="347.75" y="150.1997">experiments using</text><text fill="#000000" font-family="sans-serif" font-size="13" lengthAdjust="spacingAndGlyphs" textLength="143" x="337.75" y="165.3325">templated simulations</text><!--MD5=[d65b0d30fbe025bf0fc6448f9794a6e1]
link ExperimentBuilders to Simulation--><path d="M584.554,190.008 C576.674,217.109 561.355,269.793 553.463,296.932 " fill="none" id="ExperimentBuilders-Simulation" style="stroke: #A80036; stroke-width: 1.0; stroke-dasharray: 7.0,7.0;"/><text fill="#000000" font-family="sans-serif" font-size="13" lengthAdjust="spacingAndGlyphs" textLength="124" x="587" y="233.0669">ExperimentBuilders</text><text fill="#000000" font-family="sans-serif" font-size="13" lengthAdjust="spacingAndGlyphs" textLength="143" x="579.5" y="248.1997">uses Simulations from</text><text fill="#000000" font-family="sans-serif" font-size="13" lengthAdjust="spacingAndGlyphs" textLength="143" x="579.5" y="263.3325">TemplatedSimulations</text><!--MD5=[450591a66cef4befbd6c08c0c9844639]
link Platform to PlatformAPI--><path d="M263.63,461.13 C290.193,487.693 340.645,538.145 363.598,561.098 " fill="none" id="Platform-&gt;PlatformAPI" style="stroke: #A80036; stroke-width: 1.0;"/><polygon fill="#A80036" points="367.295,564.795,363.7595,555.6026,363.7595,561.2595,358.1026,561.2595,367.295,564.795" style="stroke: #A80036; stroke-width: 1.0;"/><!--MD5=[024511738a429c711ab439f0b7d351cf]
link PlatformAPI to TasksAPI--><path d="M378.058,583.27 C383.726,601.596 397.287,645.444 402.949,663.751 " fill="none" id="PlatformAPI-TasksAPI" style="stroke: #A80036; stroke-width: 1.0; stroke-dasharray: 7.0,7.0;"/><!--MD5=[61abddd96610a07eac548c19edabf5b3]
link Suite to Experiment--><path d="M257.5,77.344 C257.5,96.568 257.5,127.63 257.5,148.661 " fill="none" id="Suite-&gt;Experiment" style="stroke: #A80036; stroke-width: 1.0;"/><polygon fill="#A80036" points="257.5,153.778,261.5,144.778,257.5,148.778,253.5,144.778,257.5,153.778" style="stroke: #A80036; stroke-width: 1.0;"/><text fill="#000000" font-family="sans-serif" font-size="13" lengthAdjust="spacingAndGlyphs" textLength="160" x="258.5" y="120.0669">Suites have Experiments</text><!--MD5=[fef91b4987bfe35ab8076a6086a8ce2f]
link Assets to Platform--><path d="M397.701,443 C367.55,443 325.605,443 293.541,443 " fill="none" id="Assets-Platform" style="stroke: #A80036; stroke-width: 1.0; stroke-dasharray: 7.0,7.0;"/><polygon fill="#A80036" points="288.196,443,297.196,447,293.196,443,297.196,439,288.196,443" style="stroke: #A80036; stroke-width: 1.0;"/><polygon fill="#A80036" points="402.811,443,393.811,439,397.811,443,393.811,447,402.811,443" style="stroke: #A80036; stroke-width: 1.0;"/><text fill="#000000" font-family="sans-serif" font-size="13" lengthAdjust="spacingAndGlyphs" textLength="78" x="306.5" y="436.0669">Load/Create</text><!--MD5=[8ae163177376500ac73e981eda41a075]
link Experiment to Platform--><path d="M250.027,195.197 C237.542,235.295 215.072,322.391 228.5,395 C230.053,403.396 233.043,412.23 236.147,419.945 " fill="none" id="Experiment-Platform" style="stroke: #A80036; stroke-width: 1.0; stroke-dasharray: 7.0,7.0;"/><polygon fill="#A80036" points="238.082,424.59,238.3134,414.7439,236.1592,419.9745,230.9286,417.8203,238.082,424.59" style="stroke: #A80036; stroke-width: 1.0;"/><polygon fill="#A80036" points="251.645,190.086,245.116,197.4598,250.1365,194.853,252.7433,199.8734,251.645,190.086" style="stroke: #A80036; stroke-width: 1.0;"/><text fill="#000000" font-family="sans-serif" font-size="13" lengthAdjust="spacingAndGlyphs" textLength="78" x="229.5" y="319.5669">Load/Create</text><!--MD5=[92c857f2241507eefe84a082179e71a0]
link Experiment to Simulation--><path d="M310.219,187.313 C337.218,195.451 370.262,206.679 398.5,220 C443.537,241.245 491.654,273.254 520.91,293.89 " fill="none" id="Experiment-&gt;Simulation" style="stroke: #A80036; stroke-width: 1.0;"/><polygon fill="#A80036" points="525.087,296.849,520.0582,288.3807,521.008,293.9573,515.4315,294.9071,525.087,296.849" style="stroke: #A80036; stroke-width: 1.0;"/><!--MD5=[ca9e80471d81cb430443349dae0e8f80]
link Experiment to Assets--><path d="M268.723,190.164 C283.115,213.302 307.312,256.304 316.5,297 C320.024,312.607 323.655,318.689 316.5,333 C306.562,352.876 286.438,343.124 276.5,363 C270.14,375.721 267.978,383.614 276.5,395 C291.045,414.433 355.183,428.573 397.705,436.017 " fill="none" id="Experiment-&gt;Assets" style="stroke: #A80036; stroke-width: 1.0;"/><polygon fill="#A80036" points="402.778,436.891,394.5875,431.4215,397.8505,436.0424,393.2297,439.3054,402.778,436.891" style="stroke: #A80036; stroke-width: 1.0;"/><text fill="#000000" font-family="sans-serif" font-size="13" lengthAdjust="spacingAndGlyphs" textLength="74" x="322.5" y="312.0669">Experiment</text><text fill="#000000" font-family="sans-serif" font-size="13" lengthAdjust="spacingAndGlyphs" textLength="43" x="338" y="327.1997">Assets</text><!--MD5=[40df34385e4cd0694b4b4a04a1912198]
link Simulation to Assets--><path d="M500.259,326.989 C466.819,335.697 426.561,348.738 416.5,363 C404.573,379.908 412.801,403.28 422.048,420.213 " fill="none" id="Simulation-&gt;Assets" style="stroke: #A80036; stroke-width: 1.0;"/><polygon fill="#A80036" points="424.667,424.807,423.6837,415.0073,422.1903,420.4635,416.7342,418.9701,424.667,424.807" style="stroke: #A80036; stroke-width: 1.0;"/><text fill="#000000" font-family="sans-serif" font-size="13" lengthAdjust="spacingAndGlyphs" textLength="149" x="417.5" y="383.5669">Simulation-level Assets</text><!--MD5=[d1d32c509025e9d75ff89486b17075a5]
link Simulation to Platform--><path d="M495.121,328.275 C487.862,329.893 480.502,331.506 473.5,333 C407.009,347.182 383.235,330.536 323.5,363 C297.686,377.029 275.161,402.61 261.252,420.863 " fill="none" id="Simulation-Platform" style="stroke: #A80036; stroke-width: 1.0; stroke-dasharray: 7.0,7.0;"/><polygon fill="#A80036" points="258.246,424.87,266.846,420.07,261.246,420.87,260.446,415.27,258.246,424.87" style="stroke: #A80036; stroke-width: 1.0;"/><polygon fill="#A80036" points="500.126,327.155,490.4699,325.2158,495.2465,328.2463,492.216,333.0229,500.126,327.155" style="stroke: #A80036; stroke-width: 1.0;"/><text fill="#000000" font-family="sans-serif" font-size="13" lengthAdjust="spacingAndGlyphs" textLength="78" x="324.5" y="383.5669">Load/Create</text><!--MD5=[ac074d99f721fb6f0572dd38b98b6c0b]
link Simulation to Tasks--><path d="M558.36,333.256 C571.34,355.971 594.157,395.899 608.236,420.538 " fill="none" id="Simulation-&gt;Tasks" style="stroke: #A80036; stroke-width: 1.0;"/><polygon fill="#A80036" points="610.759,424.953,609.7643,415.1545,608.2772,420.6124,602.8193,419.1253,610.759,424.953" style="stroke: #A80036; stroke-width: 1.0;"/><text fill="#000000" font-family="sans-serif" font-size="13" lengthAdjust="spacingAndGlyphs" textLength="86" x="593.5" y="376.0669">All Simulation</text><text fill="#000000" font-family="sans-serif" font-size="13" lengthAdjust="spacingAndGlyphs" textLength="70" x="601.5" y="391.1997">have tasks</text><!--MD5=[f7520fdea93e2814d3a1f09a8bec5806]
link Tasks to Assets--><path d="M590.319,443 C559,443 509.894,443 475.617,443 " fill="none" id="Tasks-&gt;Assets" style="stroke: #A80036; stroke-width: 1.0;"/><polygon fill="#A80036" points="470.248,443,479.248,447,475.248,443,479.248,439,470.248,443" style="stroke: #A80036; stroke-width: 1.0;"/><text fill="#000000" font-family="sans-serif" font-size="13" lengthAdjust="spacingAndGlyphs" textLength="84" x="488.25" y="436.0669">Tasks Assets</text><!--MD5=[0f3fdaebceb3a9d7e093261196070504]
link Tasks to TasksAPI--><path d="M600.637,465.064 C556.46,511.912 451.248,623.486 416.702,660.121 " fill="none" id="Tasks-TasksAPI" style="stroke: #A80036; stroke-width: 1.0;"/><polygon fill="#A80036" points="413.213,663.82,422.2971,660.0149,416.6427,660.1817,416.4759,654.5273,413.213,663.82" style="stroke: #A80036; stroke-width: 1.0;"/><polygon fill="#A80036" points="604.34,461.137,595.2551,464.9403,600.9096,464.7746,601.0753,470.429,604.34,461.137" style="stroke: #A80036; stroke-width: 1.0;"/><text fill="#000000" font-family="sans-serif" font-size="13" lengthAdjust="spacingAndGlyphs" textLength="55" x="565.5" y="578.5669">Uses API</text><!--MD5=[a557e59a54de687d37ace2de0c5551a6]
reverse link TasksAPI to CommandTask--><path d="M395.188,685.912 C384.192,699.321 367.189,722.219 358.5,745 C343.676,783.865 340.316,833.2582 339.62,858.864 " fill="none" id="TasksAPI&lt;-CommandTask" style="stroke: #A80036; stroke-width: 1.0;"/><polygon fill="#A80036" points="398.392,682.067,389.5583,686.4219,395.1918,685.9087,395.705,691.5422,398.392,682.067" style="stroke: #A80036; stroke-width: 1.0;"/><text fill="#000000" font-family="sans-serif" font-size="13" lengthAdjust="spacingAndGlyphs" textLength="95" x="359.5" y="758.0669">Implements as</text><text fill="#000000" font-family="sans-serif" font-size="13" lengthAdjust="spacingAndGlyphs" textLength="95" x="359.5" y="773.1997">a Generic Task</text><!--MD5=[1c24ac0387436c2cabc89baaf3c2748a]
reverse link TasksAPI to DockerTask--><path d="M417.405,686.235 C429.745,699.598 448.71,722.158 459.5,745 C477.568,783.249 485.583,832.8977 488.729,858.7056 " fill="none" id="TasksAPI&lt;-DockerTask" style="stroke: #A80036; stroke-width: 1.0;"/><polygon fill="#A80036" points="413.804,682.393,417.0406,691.6949,417.2234,686.041,422.8773,686.2238,413.804,682.393" style="stroke: #A80036; stroke-width: 1.0;"/><text fill="#000000" font-family="sans-serif" font-size="13" lengthAdjust="spacingAndGlyphs" textLength="210" x="473.5" y="765.5669">Implements Python-based Tasks</text><!--MD5=[9fd9b49a1ee36e9c0a5d9ff5d93d3600]
@startuml
[Analyzers]
package "Experiment/Job orchestration     " as ejo {
    [Assets]
    [Experiment]
    [ExperimentBuilders]
    [Simulation]
    [Tasks]
    [Platform]
    [Suite]
}

package "registry (Plugin infrastructure)     " as registry {
    () "PlatformAPI" as PlatformAPI
    () "TasksAPI" as TasksAPI
}

package "Tasks " as tasks {
  [CommandTask]
  [DockerTask]
}

Analyzers .. Platform: Load Data from Platform
ExperimentBuilders . Experiment: ExperimentBuilders build \nexperiments using \ntemplated simulations
ExperimentBuilders . Simulation : ExperimentBuilders\n uses Simulations from\n TemplatedSimulations
Platform - -> PlatformAPI
PlatformAPI .. TasksAPI
[Suite] -down-> Experiment : Suites have Experiments
[Assets] <.> Platform : Load/Create
[Experiment] <.down.> Platform : Load/Create
[Experiment] -down-> Simulation
[Experiment] -right-> [Assets] : Experiment\nAssets
[Simulation] -> Assets: Simulation-level Assets
[Simulation] <.> Platform : Load/Create
[Simulation] -down-> [Tasks] : All Simulation\nhave tasks
[Tasks] -> Assets : Tasks Assets
[Tasks] <- - -> TasksAPI : Uses API
TasksAPI <-right- - CommandTask : Implements as\na Generic Task
TasksAPI <-down- - DockerTask: Implements Python-based Tasks
@enduml

PlantUML version 1.2020.12(Sat Jun 06 10:54:15 UTC 2020)
(GPL source distribution)
Java Runtime: Java(TM) SE Runtime Environment
JVM: Java HotSpot(TM) 64-Bit Server VM
Default Encoding: UTF-8
Language: en
Country: US
--></g></svg>