<?xml version="1.0" encoding="UTF-8" standalone="no"?><svg xmlns="http://www.w3.org/2000/svg" xmlns:xlink="http://www.w3.org/1999/xlink" contentScriptType="application/ecmascript" contentStyleType="text/css" height="973px" preserveAspectRatio="none" style="width:748px;height:973px;" version="1.1" viewBox="0 0 748 973" width="748px" zoomAndPan="magnify"><defs><filter height="300%" id="f10058t6nkm6d8" width="300%" x="-1" y="-1"><feGaussianBlur result="blurOut" stdDeviation="2.0"/><feColorMatrix in="blurOut" result="blurOut2" type="matrix" values="0 0 0 0 0 0 0 0 0 0 0 0 0 0 0 0 0 0 .4 0"/><feOffset dx="4.0" dy="4.0" in="blurOut2" result="blurOut3"/><feBlend in="SourceGraphic" in2="blurOut3" mode="normal"/></filter></defs><g><!--MD5=[c1e1231ca7b322f3bce32411b7c99d5b]
cluster ejo--><polygon fill="#FFFFFF" filter="url(#f10058t6nkm6d8)" points="178.5,6,447.5,6,454.5,28.2969,716.5,28.2969,716.5,517,178.5,517,178.5,6" style="stroke: #000000; stroke-width: 1.5;"/><line style="stroke: #000000; stroke-width: 1.5;" x1="178.5" x2="454.5" y1="28.2969" y2="28.2969"/><text fill="#000000" font-family="sans-serif" font-size="14" font-weight="bold" lengthAdjust="spacingAndGlyphs" textLength="238" x="182.5" y="20.9951">Experiment/Job orchestration</text><!--MD5=[272379cf1f80536b6294ad33393ecec2]
cluster registry--><polygon fill="#FFFFFF" filter="url(#f10058t6nkm6d8)" points="182.5,550,466.5,550,473.5,572.2969,476.5,572.2969,476.5,738,182.5,738,182.5,550" style="stroke: #000000; stroke-width: 1.5;"/><line style="stroke: #000000; stroke-width: 1.5;" x1="182.5" x2="473.5" y1="572.2969" y2="572.2969"/><text fill="#000000" font-family="sans-serif" font-size="14" font-weight="bold" lengthAdjust="spacingAndGlyphs" textLength="253" x="186.5" y="564.9951">registry (Plugin infrastructure)</text><!--MD5=[7c6768d8bd89698131ab6900f7550cc4]
cluster tasks--><polygon fill="#FFFFFF" filter="url(#f10058t6nkm6d8)" points="177.5,864,236.5,864,243.5,886.2969,516.5,886.2969,516.5,961,177.5,961,177.5,864" style="stroke: #000000; stroke-width: 1.5;"/><line style="stroke: #000000; stroke-width: 1.5;" x1="177.5" x2="243.5" y1="886.2969" y2="886.2969"/><text fill="#000000" font-family="sans-serif" font-size="14" font-weight="bold" lengthAdjust="spacingAndGlyphs" textLength="48" x="181.5" y="878.9951">Tasks</text><!--MD5=[4f196ed4e047f01b4d261d766e803089]
entity Assets--><rect fill="#FEFECE" filter="url(#f10058t6nkm6d8)" height="46.2969" style="stroke: #A80036; stroke-width: 1.5;" width="87" x="413" y="455"/><rect fill="#FEFECE" height="10" style="stroke: #A80036; stroke-width: 1.5;" width="15" x="480" y="460"/><rect fill="#FEFECE" height="2" style="stroke: #A80036; stroke-width: 1.5;" width="4" x="478" y="462"/><rect fill="#FEFECE" height="2" style="stroke: #A80036; stroke-width: 1.5;" width="4" x="478" y="466"/><text fill="#000000" font-family="sans-serif" font-size="14" lengthAdjust="spacingAndGlyphs" textLength="47" x="428" y="487.9951">Assets</text><!--MD5=[3372e0802d7d050329ccc6f764580a49]
entity Experiment--><rect fill="#FEFECE" filter="url(#f10058t6nkm6d8)" height="46.2969" style="stroke: #A80036; stroke-width: 1.5;" width="125" x="195" y="164"/><rect fill="#FEFECE" height="10" style="stroke: #A80036; stroke-width: 1.5;" width="15" x="300" y="169"/><rect fill="#FEFECE" height="2" style="stroke: #A80036; stroke-width: 1.5;" width="4" x="298" y="171"/><rect fill="#FEFECE" height="2" style="stroke: #A80036; stroke-width: 1.5;" width="4" x="298" y="175"/><text fill="#000000" font-family="sans-serif" font-size="14" lengthAdjust="spacingAndGlyphs" textLength="85" x="210" y="196.9951">Experiment</text><!--MD5=[1bbe330ca109a04aaf74ad92e239389e]
entity ExperimentBuilders--><rect fill="#FEFECE" filter="url(#f10058t6nkm6d8)" height="46.2969" style="stroke: #A80036; stroke-width: 1.5;" width="182" x="518.5" y="164"/><rect fill="#FEFECE" height="10" style="stroke: #A80036; stroke-width: 1.5;" width="15" x="680.5" y="169"/><rect fill="#FEFECE" height="2" style="stroke: #A80036; stroke-width: 1.5;" width="4" x="678.5" y="171"/><rect fill="#FEFECE" height="2" style="stroke: #A80036; stroke-width: 1.5;" width="4" x="678.5" y="175"/><text fill="#000000" font-family="sans-serif" font-size="14" lengthAdjust="spacingAndGlyphs" textLength="142" x="533.5" y="196.9951">ExperimentBuilders</text><!--MD5=[ffe7863412ae85ad3f14b25ea50b67df]
entity Simulation--><rect fill="#FEFECE" filter="url(#f10058t6nkm6d8)" height="46.2969" style="stroke: #A80036; stroke-width: 1.5;" width="116" x="490.5" y="317"/><rect fill="#FEFECE" height="10" style="stroke: #A80036; stroke-width: 1.5;" width="15" x="586.5" y="322"/><rect fill="#FEFECE" height="2" style="stroke: #A80036; stroke-width: 1.5;" width="4" x="584.5" y="324"/><rect fill="#FEFECE" height="2" style="stroke: #A80036; stroke-width: 1.5;" width="4" x="584.5" y="328"/><text fill="#000000" font-family="sans-serif" font-size="14" lengthAdjust="spacingAndGlyphs" textLength="76" x="505.5" y="349.9951">Simulation</text><!--MD5=[08f7a00d71faf13c08629754422ad5e6]
entity Tasks--><rect fill="#FEFECE" filter="url(#f10058t6nkm6d8)" height="46.2969" style="stroke: #A80036; stroke-width: 1.5;" width="80" x="620.5" y="455"/><rect fill="#FEFECE" height="10" style="stroke: #A80036; stroke-width: 1.5;" width="15" x="680.5" y="460"/><rect fill="#FEFECE" height="2" style="stroke: #A80036; stroke-width: 1.5;" width="4" x="678.5" y="462"/><rect fill="#FEFECE" height="2" style="stroke: #A80036; stroke-width: 1.5;" width="4" x="678.5" y="466"/><text fill="#000000" font-family="sans-serif" font-size="14" lengthAdjust="spacingAndGlyphs" textLength="40" x="635.5" y="487.9951">Tasks</text><!--MD5=[e4ef8ffea338babcb5183e75747bbc6e]
entity Platform--><rect fill="#FEFECE" filter="url(#f10058t6nkm6d8)" height="46.2969" style="stroke: #A80036; stroke-width: 1.5;" width="103" x="195" y="455"/><rect fill="#FEFECE" height="10" style="stroke: #A80036; stroke-width: 1.5;" width="15" x="278" y="460"/><rect fill="#FEFECE" height="2" style="stroke: #A80036; stroke-width: 1.5;" width="4" x="276" y="462"/><rect fill="#FEFECE" height="2" style="stroke: #A80036; stroke-width: 1.5;" width="4" x="276" y="466"/><text fill="#000000" font-family="sans-serif" font-size="14" lengthAdjust="spacingAndGlyphs" textLength="63" x="210" y="487.9951">Platform</text><!--MD5=[672fd63b98880074256e82d85c912995]
entity Suite--><rect fill="#FEFECE" filter="url(#f10058t6nkm6d8)" height="46.2969" style="stroke: #A80036; stroke-width: 1.5;" width="77" x="219" y="41"/><rect fill="#FEFECE" height="10" style="stroke: #A80036; stroke-width: 1.5;" width="15" x="276" y="46"/><rect fill="#FEFECE" height="2" style="stroke: #A80036; stroke-width: 1.5;" width="4" x="274" y="48"/><rect fill="#FEFECE" height="2" style="stroke: #A80036; stroke-width: 1.5;" width="4" x="274" y="52"/><text fill="#000000" font-family="sans-serif" font-size="14" lengthAdjust="spacingAndGlyphs" textLength="37" x="234" y="73.9951">Suite</text><!--MD5=[5df59aa2065c15f87b95d8b2badd43a6]
entity PlatformAPI--><ellipse cx="254.5" cy="614" fill="#FEFECE" filter="url(#f10058t6nkm6d8)" rx="8" ry="8" style="stroke: #A80036; stroke-width: 2.0;"/><text fill="#000000" font-family="sans-serif" font-size="14" lengthAdjust="spacingAndGlyphs" textLength="86" x="211.5" y="643.9951">PlatformAPI</text><!--MD5=[bd16e8f691229aaacf324dd8d35a0b42]
entity TasksAPI--><ellipse cx="286.5" cy="713" fill="#FEFECE" filter="url(#f10058t6nkm6d8)" rx="8" ry="8" style="stroke: #A80036; stroke-width: 2.0;"/><text fill="#000000" font-family="sans-serif" font-size="14" lengthAdjust="spacingAndGlyphs" textLength="63" x="255" y="742.9951">TasksAPI</text><!--MD5=[4a99ef2c49c3894fca3beb8798742a7e]
entity CommandTask--><rect fill="#FEFECE" filter="url(#f10058t6nkm6d8)" height="46.2969" style="stroke: #A80036; stroke-width: 1.5;" width="146" x="193.5" y="899"/><rect fill="#FEFECE" height="10" style="stroke: #A80036; stroke-width: 1.5;" width="15" x="319.5" y="904"/><rect fill="#FEFECE" height="2" style="stroke: #A80036; stroke-width: 1.5;" width="4" x="317.5" y="906"/><rect fill="#FEFECE" height="2" style="stroke: #A80036; stroke-width: 1.5;" width="4" x="317.5" y="910"/><text fill="#000000" font-family="sans-serif" font-size="14" lengthAdjust="spacingAndGlyphs" textLength="106" x="208.5" y="931.9951">CommandTask</text><!--MD5=[848cd629beecce62b7cb6311d0bf4712]
entity DockerTask--><rect fill="#FEFECE" filter="url(#f10058t6nkm6d8)" height="46.2969" style="stroke: #A80036; stroke-width: 1.5;" width="125" x="375" y="899"/><rect fill="#FEFECE" height="10" style="stroke: #A80036; stroke-width: 1.5;" width="15" x="480" y="904"/><rect fill="#FEFECE" height="2" style="stroke: #A80036; stroke-width: 1.5;" width="4" x="478" y="906"/><rect fill="#FEFECE" height="2" style="stroke: #A80036; stroke-width: 1.5;" width="4" x="478" y="910"/><text fill="#000000" font-family="sans-serif" font-size="14" lengthAdjust="spacingAndGlyphs" textLength="85" x="390" y="931.9951">DockerTask</text><!--MD5=[ccf70f5b4dc53f11b08ff970995a0d11]
entity Analyzers--><rect fill="#FEFECE" filter="url(#f10058t6nkm6d8)" height="46.2969" style="stroke: #A80036; stroke-width: 1.5;" width="109" x="7" y="317"/><rect fill="#FEFECE" height="10" style="stroke: #A80036; stroke-width: 1.5;" width="15" x="96" y="322"/><rect fill="#FEFECE" height="2" style="stroke: #A80036; stroke-width: 1.5;" width="4" x="94" y="324"/><rect fill="#FEFECE" height="2" style="stroke: #A80036; stroke-width: 1.5;" width="4" x="94" y="328"/><text fill="#000000" font-family="sans-serif" font-size="14" lengthAdjust="spacingAndGlyphs" textLength="69" x="22" y="349.9951">Analyzers</text><!--MD5=[a43456d7b758e89a87a8074f37461872]
link Analyzers to Platform--><path d="M53.5652,363.319 C48.5531,381.736 45.2449,407.581 58.5,425 C75.0082,446.694 145.11,461.668 194.866,469.794 " fill="none" id="Analyzers-Platform" style="stroke: #A80036; stroke-width: 1.0; stroke-dasharray: 7.0,7.0;"/><text fill="#000000" font-family="sans-serif" font-size="13" lengthAdjust="spacingAndGlyphs" textLength="160" x="59.5" y="413.5669">Load Data from Platform</text><!--MD5=[cdb69f6474f324ae2f52b6faebca741e]
link ExperimentBuilders to Experiment--><path d="M518.461,187 C456.149,187 375.144,187 320.025,187 " fill="none" id="ExperimentBuilders-Experiment" style="stroke: #A80036; stroke-width: 1.0; stroke-dasharray: 7.0,7.0;"/><text fill="#000000" font-family="sans-serif" font-size="13" lengthAdjust="spacingAndGlyphs" textLength="158" x="338.25" y="150.0669">ExperimentBuilders build</text><text fill="#000000" font-family="sans-serif" font-size="13" lengthAdjust="spacingAndGlyphs" textLength="119" x="357.75" y="165.1997">experiments using</text><text fill="#000000" font-family="sans-serif" font-size="13" lengthAdjust="spacingAndGlyphs" textLength="143" x="347.75" y="180.3325">templated simulations</text><!--MD5=[d65b0d30fbe025bf0fc6448f9794a6e1]
link ExperimentBuilders to Simulation--><path d="M600.499,210.281 C588.966,238.83 569.089,288.035 557.538,316.628 " fill="none" id="ExperimentBuilders-Simulation" style="stroke: #A80036; stroke-width: 1.0; stroke-dasharray: 7.0,7.0;"/><text fill="#000000" font-family="sans-serif" font-size="13" lengthAdjust="spacingAndGlyphs" textLength="124" x="601" y="253.0669">ExperimentBuilders</text><text fill="#000000" font-family="sans-serif" font-size="13" lengthAdjust="spacingAndGlyphs" textLength="143" x="593.5" y="268.1997">uses Simulations from</text><text fill="#000000" font-family="sans-serif" font-size="13" lengthAdjust="spacingAndGlyphs" textLength="143" x="593.5" y="283.3325">TemplatedSimulations</text><!--MD5=[450591a66cef4befbd6c08c0c9844639]
link Platform to PlatformAPI--><path d="M247.821,501.127 C249.497,529.205 252.335,576.742 253.709,599.745 " fill="none" id="Platform-to-PlatformAPI" style="stroke: #A80036; stroke-width: 1.0;"/><polygon fill="#A80036" points="254.009,604.782,257.4645,595.5592,253.7104,599.7909,249.4787,596.0369,254.009,604.782" style="stroke: #A80036; stroke-width: 1.0;"/><!--MD5=[024511738a429c711ab439f0b7d351cf]
link PlatformAPI to TasksAPI--><path d="M257.228,623.27 C263.274,641.596 277.739,685.444 283.779,703.751 " fill="none" id="PlatformAPI-TasksAPI" style="stroke: #A80036; stroke-width: 1.0; stroke-dasharray: 7.0,7.0;"/><!--MD5=[61abddd96610a07eac548c19edabf5b3]
link Suite to Experiment--><path d="M257.5,87.193 C257.5,107.405 257.5,137.307 257.5,158.919 " fill="none" id="Suite-to-Experiment" style="stroke: #A80036; stroke-width: 1.0;"/><polygon fill="#A80036" points="257.5,163.947,261.5,154.947,257.5,158.947,253.5,154.947,257.5,163.947" style="stroke: #A80036; stroke-width: 1.0;"/><text fill="#000000" font-family="sans-serif" font-size="13" lengthAdjust="spacingAndGlyphs" textLength="160" x="258.5" y="130.0669">Suites have Experiments</text><!--MD5=[fef91b4987bfe35ab8076a6086a8ce2f]
link Assets to Platform--><path d="M407.545,478 C376.331,478 335.769,478 303.163,478 " fill="none" id="Assets-Platform" style="stroke: #A80036; stroke-width: 1.0; stroke-dasharray: 7.0,7.0;"/><polygon fill="#A80036" points="298.141,478,307.141,482,303.141,478,307.141,474,298.141,478" style="stroke: #A80036; stroke-width: 1.0;"/><polygon fill="#A80036" points="412.865,478,403.865,474,407.865,478,403.865,482,412.865,478" style="stroke: #A80036; stroke-width: 1.0;"/><text fill="#000000" font-family="sans-serif" font-size="13" lengthAdjust="spacingAndGlyphs" textLength="78" x="316.5" y="471.0669">Load/Create</text><!--MD5=[8ae163177376500ac73e981eda41a075]
link Experiment to Platform--><path d="M256.454,215.479 C254.353,270.684 249.641,394.48 247.543,449.611 " fill="none" id="Experiment-Platform" style="stroke: #A80036; stroke-width: 1.0; stroke-dasharray: 7.0,7.0;"/><polygon fill="#A80036" points="247.348,454.727,251.6871,445.8855,247.538,449.7306,243.6928,445.5815,247.348,454.727" style="stroke: #A80036; stroke-width: 1.0;"/><polygon fill="#A80036" points="256.655,210.197,252.3159,219.0385,256.465,215.1934,260.3102,219.3425,256.655,210.197" style="stroke: #A80036; stroke-width: 1.0;"/><text fill="#000000" font-family="sans-serif" font-size="13" lengthAdjust="spacingAndGlyphs" textLength="78" x="254.5" y="344.5669">Load/Create</text><!--MD5=[92c857f2241507eefe84a082179e71a0]
link Experiment to Simulation--><path d="M319.466,210.02 C341.621,218.563 366.53,228.951 388.5,240 C432.767,262.263 480.75,292.901 512.504,314.173 " fill="none" id="Experiment-to-Simulation" style="stroke: #A80036; stroke-width: 1.0;"/><polygon fill="#A80036" points="516.681,316.98,511.4417,308.6403,512.5309,314.1914,506.9799,315.2805,516.681,316.98" style="stroke: #A80036; stroke-width: 1.0;"/><!--MD5=[ca9e80471d81cb430443349dae0e8f80]
link Experiment to Assets--><path d="M277.556,210.215 C297.957,234.443 328.259,275.353 340.5,317 C346.265,336.615 351.305,345.644 340.5,363 C324.532,388.648 295.468,367.352 279.5,393 C271.983,405.073 270.978,413.614 279.5,425 C294.915,445.596 360.684,460.82 407.54,469.303 " fill="none" id="Experiment-to-Assets" style="stroke: #A80036; stroke-width: 1.0;"/><polygon fill="#A80036" points="412.583,470.204,404.4273,464.6827,407.661,469.3242,403.0196,472.5579,412.583,470.204" style="stroke: #A80036; stroke-width: 1.0;"/><text fill="#000000" font-family="sans-serif" font-size="13" lengthAdjust="spacingAndGlyphs" textLength="74" x="348.5" y="337.0669">Experiment</text><text fill="#000000" font-family="sans-serif" font-size="13" lengthAdjust="spacingAndGlyphs" textLength="43" x="364" y="352.1997">Assets</text><!--MD5=[40df34385e4cd0694b4b4a04a1912198]
link Simulation to Assets--><path d="M490.397,357.224 C459.976,367.016 427.256,380.067 418.5,393 C406.339,410.961 417.702,433.445 431.091,450.63 " fill="none" id="Simulation-to-Assets" style="stroke: #A80036; stroke-width: 1.0;"/><polygon fill="#A80036" points="434.525,454.879,431.9786,445.365,431.3821,450.9903,425.7567,450.3937,434.525,454.879" style="stroke: #A80036; stroke-width: 1.0;"/><text fill="#000000" font-family="sans-serif" font-size="13" lengthAdjust="spacingAndGlyphs" textLength="149" x="419.5" y="413.5669">Simulation-level Assets</text><!--MD5=[d1d32c509025e9d75ff89486b17075a5]
link Simulation to Platform--><path d="M485.037,357.716 C477.784,359.54 470.488,361.337 463.5,363 C402.44,377.533 380.123,362.082 325.5,393 C300.556,407.119 278.803,431.719 264.474,450.66 " fill="none" id="Simulation-Platform" style="stroke: #A80036; stroke-width: 1.0; stroke-dasharray: 7.0,7.0;"/><polygon fill="#A80036" points="261.352,454.854,269.9344,450.0226,264.3374,450.8431,263.5169,445.246,261.352,454.854" style="stroke: #A80036; stroke-width: 1.0;"/><polygon fill="#A80036" points="490.047,356.45,480.3411,354.7778,485.1995,357.6754,482.3018,362.5338,490.047,356.45" style="stroke: #A80036; stroke-width: 1.0;"/><text fill="#000000" font-family="sans-serif" font-size="13" lengthAdjust="spacingAndGlyphs" textLength="78" x="326.5" y="413.5669">Load/Create</text><!--MD5=[ac074d99f721fb6f0572dd38b98b6c0b]
link Simulation to Tasks--><path d="M566.744,363.153 C586.513,387.159 618.034,425.434 638.994,450.885 " fill="none" id="Simulation-to-Tasks" style="stroke: #A80036; stroke-width: 1.0;"/><polygon fill="#A80036" points="642.264,454.856,639.6307,445.3657,639.0856,450.9962,633.4551,450.4511,642.264,454.856" style="stroke: #A80036; stroke-width: 1.0;"/><text fill="#000000" font-family="sans-serif" font-size="13" lengthAdjust="spacingAndGlyphs" textLength="86" x="615.5" y="406.0669">All Simulation</text><text fill="#000000" font-family="sans-serif" font-size="13" lengthAdjust="spacingAndGlyphs" textLength="70" x="623.5" y="421.1997">have tasks</text><!--MD5=[f7520fdea93e2814d3a1f09a8bec5806]
link Tasks to Assets--><path d="M620.173,478 C587.12,478 540.231,478 505.107,478 " fill="none" id="Tasks-to-Assets" style="stroke: #A80036; stroke-width: 1.0;"/><polygon fill="#A80036" points="500.013,478,509.013,482,505.013,478,509.013,474,500.013,478" style="stroke: #A80036; stroke-width: 1.0;"/><text fill="#000000" font-family="sans-serif" font-size="13" lengthAdjust="spacingAndGlyphs" textLength="84" x="518.25" y="471.0669">Tasks Assets</text><!--MD5=[0f3fdaebceb3a9d7e093261196070504]
link Tasks to TasksAPI--><path d="M620.513,503.911 C537.842,555.415 351.522,671.492 299.952,703.619 " fill="none" id="Tasks-TasksAPI" style="stroke: #A80036; stroke-width: 1.0;"/><polygon fill="#A80036" points="295.658,706.295,305.4117,704.9294,299.9014,703.6504,301.1804,698.14,295.658,706.295" style="stroke: #A80036; stroke-width: 1.0;"/><polygon fill="#A80036" points="624.978,501.13,615.2239,502.4932,620.734,503.7736,619.4537,509.2836,624.978,501.13" style="stroke: #A80036; stroke-width: 1.0;"/><text fill="#000000" font-family="sans-serif" font-size="13" lengthAdjust="spacingAndGlyphs" textLength="55" x="560.5" y="618.5669">Uses API</text><!--MD5=[a557e59a54de687d37ace2de0c5551a6]
reverse link TasksAPI to CommandTask--><path d="M285.23,727.145 C281.885,761.769 272.802,855.771 268.638,898.8704 " fill="none" id="TasksAPI-backto-CommandTask" style="stroke: #A80036; stroke-width: 1.0;"/><polygon fill="#A80036" points="285.716,722.115,280.8681,730.6881,285.2346,727.0918,288.8309,731.4583,285.716,722.115" style="stroke: #A80036; stroke-width: 1.0;"/><text fill="#000000" font-family="sans-serif" font-size="13" lengthAdjust="spacingAndGlyphs" textLength="95" x="281.5" y="798.0669">Implements as</text><text fill="#000000" font-family="sans-serif" font-size="13" lengthAdjust="spacingAndGlyphs" textLength="95" x="281.5" y="813.1997">a Generic Task</text><!--MD5=[1c24ac0387436c2cabc89baaf3c2748a]
reverse link TasksAPI to DockerTask--><path d="M300.188,720.497 C321.296,731.162 361.824,754.299 385.5,785 C412.36,819.83 426.73,870.142 433.18,898.7989 " fill="none" id="TasksAPI-backto-DockerTask" style="stroke: #A80036; stroke-width: 1.0;"/><polygon fill="#A80036" points="295.504,718.175,301.7922,725.7552,299.9841,720.3951,305.3442,718.587,295.504,718.175" style="stroke: #A80036; stroke-width: 1.0;"/><text fill="#000000" font-family="sans-serif" font-size="13" lengthAdjust="spacingAndGlyphs" textLength="210" x="406.5" y="805.5669">Implements Python-based Tasks</text><!--MD5=[80ab0e7ae8a32bec9c622ee762bb11a3]
@startuml
[Analyzers]
package "Experiment/Job orchestration     " as ejo {
    [Assets]
    [Experiment]
    [ExperimentBuilders]
    [Simulation]
    [Tasks]
    [Platform]
    [Suite]
}

package "registry (Plugin infrastructure)     " as registry {
    () "PlatformAPI" as PlatformAPI
    () "TasksAPI" as TasksAPI
}

package "Tasks " as tasks {
  [CommandTask]
  [DockerTask]
}

Analyzers .. Platform: Load Data from Platform
ExperimentBuilders . Experiment: ExperimentBuilders build \nexperiments using \ntemplated simulations
ExperimentBuilders . Simulation : ExperimentBuilders\n uses Simulations from\n TemplatedSimulations
Platform - -> PlatformAPI
PlatformAPI .. TasksAPI
[Suite] -down-> Experiment : Suites have Experiments
[Assets] <.> Platform : Load/Create
[Experiment] <.down.> Platform : Load/Create
[Experiment] -down-> Simulation
[Experiment] -right-> [Assets] : Experiment\nAssets
[Simulation] -> Assets: Simulation-level Assets
[Simulation] <.> Platform : Load/Create
[Simulation] -down-> [Tasks] : All Simulation\nhave tasks
[Tasks] -> Assets : Tasks Assets
[Tasks] <- - -> TasksAPI : Uses API
TasksAPI <-right- - CommandTask : Implements as\na Generic Task
TasksAPI <-down- - DockerTask: Implements Python-based Tasks
@enduml

PlantUML version 1.2020.17(Sat Sep 19 12:30:11 UTC 2020)
(GPL source distribution)
Java Runtime: Java(TM) SE Runtime Environment
JVM: Java HotSpot(TM) 64-Bit Server VM
Default Encoding: UTF-8
Language: en
Country: US
--></g></svg>