<?xml version="1.0" encoding="UTF-8" standalone="no"?><svg xmlns="http://www.w3.org/2000/svg" xmlns:xlink="http://www.w3.org/1999/xlink" contentScriptType="application/ecmascript" contentStyleType="text/css" height="350px" preserveAspectRatio="none" style="width:401px;height:350px;" version="1.1" viewBox="0 0 401 350" width="401px" zoomAndPan="magnify"><defs><filter height="300%" id="fhnfvxyxh54cm" width="300%" x="-1" y="-1"><feGaussianBlur result="blurOut" stdDeviation="2.0"/><feColorMatrix in="blurOut" result="blurOut2" type="matrix" values="0 0 0 0 0 0 0 0 0 0 0 0 0 0 0 0 0 0 .4 0"/><feOffset dx="4.0" dy="4.0" in="blurOut2" result="blurOut3"/><feBlend in="SourceGraphic" in2="blurOut3" mode="normal"/></filter></defs><g><!--MD5=[272379cf1f80536b6294ad33393ecec2]
cluster registry--><polygon fill="#FFFFFF" filter="url(#fhnfvxyxh54cm)" points="130,6,249,6,256,28.2969,264,28.2969,264,115,130,115,130,6" style="stroke: #000000; stroke-width: 1.5;"/><line style="stroke: #000000; stroke-width: 1.5;" x1="130" x2="256" y1="28.2969" y2="28.2969"/><text fill="#000000" font-family="sans-serif" font-size="14" font-weight="bold" lengthAdjust="spacingAndGlyphs" textLength="113" x="134" y="20.9951">idmtools-core</text><!--MD5=[7662220779859bf7cd8e5a94694e418f]
cluster comps--><polygon fill="#FFFFFF" filter="url(#fhnfvxyxh54cm)" points="16,241,231,241,238,263.2969,379,263.2969,379,338,16,338,16,241" style="stroke: #000000; stroke-width: 1.5;"/><line style="stroke: #000000; stroke-width: 1.5;" x1="16" x2="238" y1="263.2969" y2="263.2969"/><text fill="#000000" font-family="sans-serif" font-size="14" font-weight="bold" lengthAdjust="spacingAndGlyphs" textLength="209" x="20" y="255.9951">idmtools-platform-comps</text><!--MD5=[5df59aa2065c15f87b95d8b2badd43a6]
entity PlatformAPI--><ellipse cx="197" cy="70" fill="#FEFECE" filter="url(#fhnfvxyxh54cm)" rx="8" ry="8" style="stroke: #A80036; stroke-width: 2.0;"/><text fill="#000000" font-family="sans-serif" font-size="14" lengthAdjust="spacingAndGlyphs" textLength="86" x="154" y="99.9951">PlatformAPI</text><!--MD5=[c55e5d1c1dcbf3b042d02ca47e4c5e06]
entity COMPSPlatform--><rect fill="#FEFECE" filter="url(#fhnfvxyxh54cm)" height="46.2969" style="stroke: #A80036; stroke-width: 1.5;" width="154" x="32" y="276"/><rect fill="#FEFECE" height="10" style="stroke: #A80036; stroke-width: 1.5;" width="15" x="166" y="281"/><rect fill="#FEFECE" height="2" style="stroke: #A80036; stroke-width: 1.5;" width="4" x="164" y="283"/><rect fill="#FEFECE" height="2" style="stroke: #A80036; stroke-width: 1.5;" width="4" x="164" y="287"/><text fill="#000000" font-family="sans-serif" font-size="14" lengthAdjust="spacingAndGlyphs" textLength="114" x="47" y="308.9951">COMPSPlatform</text><!--MD5=[6caa1f1307bb5822b7d8bac0c81079fb]
entity SSMTPlatform--><rect fill="#FEFECE" filter="url(#fhnfvxyxh54cm)" height="46.2969" style="stroke: #A80036; stroke-width: 1.5;" width="142" x="221" y="276"/><rect fill="#FEFECE" height="10" style="stroke: #A80036; stroke-width: 1.5;" width="15" x="343" y="281"/><rect fill="#FEFECE" height="2" style="stroke: #A80036; stroke-width: 1.5;" width="4" x="341" y="283"/><rect fill="#FEFECE" height="2" style="stroke: #A80036; stroke-width: 1.5;" width="4" x="341" y="287"/><text fill="#000000" font-family="sans-serif" font-size="14" lengthAdjust="spacingAndGlyphs" textLength="102" x="236" y="308.9951">SSMTPlatform</text><!--MD5=[410b2332a3d5aec0834b371ad05822f9]
reverse link PlatformAPI to COMPSPlatform--><path d="M187.978,83.491 C176.093,100.481 155.266,132.184 143,162 C127.167,200.488 117.316,248.239 112.519,275.706 " fill="none" id="PlatformAPI-backto-COMPSPlatform" style="stroke: #A80036; stroke-width: 1.0;"/><polygon fill="#A80036" points="191.079,79.103,182.6179,84.1439,188.1931,83.1861,189.1509,88.7613,191.079,79.103" style="stroke: #A80036; stroke-width: 1.0;"/><text fill="#000000" font-family="sans-serif" font-size="13" lengthAdjust="spacingAndGlyphs" textLength="44" x="172.5" y="175.0669">COMPs</text><text fill="#000000" font-family="sans-serif" font-size="13" lengthAdjust="spacingAndGlyphs" textLength="101" x="144" y="190.1997">Implementation</text><!--MD5=[2c3f34f35ca8d0f1612701cb6925240e]
reverse link PlatformAPI to SSMTPlatform--><path d="M205.602,83.619 C216.984,100.753 237.108,132.617 250,162 C266.978,200.696 280.014,248.377 286.799,275.7746 " fill="none" id="PlatformAPI-backto-SSMTPlatform" style="stroke: #A80036; stroke-width: 1.0;"/><polygon fill="#A80036" points="202.637,79.192,204.3226,88.8955,205.4197,83.3461,210.9692,84.4432,202.637,79.192" style="stroke: #A80036; stroke-width: 1.0;"/><text fill="#000000" font-family="sans-serif" font-size="13" lengthAdjust="spacingAndGlyphs" textLength="34" x="296.5" y="175.0669">SSMT</text><text fill="#000000" font-family="sans-serif" font-size="13" lengthAdjust="spacingAndGlyphs" textLength="101" x="263" y="190.1997">Implementation</text><!--MD5=[e9e56f12a0125d1f82c368bb6c578281]
@startuml
package "idmtools-core" as registry {
    () "PlatformAPI" as PlatformAPI
}

package "idmtools-platform-comps" as comps {
    [COMPSPlatform]
    [SSMTPlatform]
}

PlatformAPI <-down- - COMPSPlatform: COMPs\nImplementation
PlatformAPI <- - SSMTPlatform: SSMT\nImplementation
@enduml

PlantUML version 1.2020.17(Sat Sep 19 12:30:11 UTC 2020)
(GPL source distribution)
Java Runtime: Java(TM) SE Runtime Environment
JVM: Java HotSpot(TM) 64-Bit Server VM
Default Encoding: UTF-8
Language: en
Country: US
--></g></svg>