<?xml version="1.0" encoding="UTF-8" standalone="no"?><svg xmlns="http://www.w3.org/2000/svg" xmlns:xlink="http://www.w3.org/1999/xlink" contentScriptType="application/ecmascript" contentStyleType="text/css" height="340px" preserveAspectRatio="none" style="width:361px;height:340px;" version="1.1" viewBox="0 0 361 340" width="361px" zoomAndPan="magnify"><defs><filter height="300%" id="fhnfvxyxh54cm" width="300%" x="-1" y="-1"><feGaussianBlur result="blurOut" stdDeviation="2.0"/><feColorMatrix in="blurOut" result="blurOut2" type="matrix" values="0 0 0 0 0 0 0 0 0 0 0 0 0 0 0 0 0 0 .4 0"/><feOffset dx="4.0" dy="4.0" in="blurOut2" result="blurOut3"/><feBlend in="SourceGraphic" in2="blurOut3" mode="normal"/></filter></defs><g><!--MD5=[272379cf1f80536b6294ad33393ecec2]
cluster registry--><polygon fill="#FFFFFF" filter="url(#fhnfvxyxh54cm)" points="113,6,232,6,239,28.2969,247,28.2969,247,115,113,115,113,6" style="stroke: #000000; stroke-width: 1.5;"/><line style="stroke: #000000; stroke-width: 1.5;" x1="113" x2="239" y1="28.2969" y2="28.2969"/><text fill="#000000" font-family="sans-serif" font-size="14" font-weight="bold" lengthAdjust="spacingAndGlyphs" textLength="113" x="117" y="20.9951">idmtools-core</text><!--MD5=[7662220779859bf7cd8e5a94694e418f]
cluster comps--><polygon fill="#FFFFFF" filter="url(#fhnfvxyxh54cm)" points="16,241,231,241,238,263.2969,339,263.2969,339,328,16,328,16,241" style="stroke: #000000; stroke-width: 1.5;"/><line style="stroke: #000000; stroke-width: 1.5;" x1="16" x2="238" y1="263.2969" y2="263.2969"/><text fill="#000000" font-family="sans-serif" font-size="14" font-weight="bold" lengthAdjust="spacingAndGlyphs" textLength="209" x="20" y="255.9951">idmtools-platform-comps</text><!--MD5=[5df59aa2065c15f87b95d8b2badd43a6]
entity PlatformAPI--><ellipse cx="180" cy="70" fill="#FEFECE" filter="url(#fhnfvxyxh54cm)" rx="8" ry="8" style="stroke: #A80036; stroke-width: 2.0;"/><text fill="#000000" font-family="sans-serif" font-size="14" lengthAdjust="spacingAndGlyphs" textLength="86" x="137" y="99.9951">PlatformAPI</text><!--MD5=[c55e5d1c1dcbf3b042d02ca47e4c5e06]
entity COMPSPlatform--><rect fill="#FEFECE" filter="url(#fhnfvxyxh54cm)" height="36.2969" style="stroke: #A80036; stroke-width: 1.5;" width="134" x="32" y="276"/><rect fill="#FEFECE" height="5" style="stroke: #A80036; stroke-width: 1.5;" width="10" x="27" y="281"/><rect fill="#FEFECE" height="5" style="stroke: #A80036; stroke-width: 1.5;" width="10" x="27" y="302.2969"/><text fill="#000000" font-family="sans-serif" font-size="14" lengthAdjust="spacingAndGlyphs" textLength="114" x="42" y="298.9951">COMPSPlatform</text><!--MD5=[6caa1f1307bb5822b7d8bac0c81079fb]
entity SSMTPlatform--><rect fill="#FEFECE" filter="url(#fhnfvxyxh54cm)" height="36.2969" style="stroke: #A80036; stroke-width: 1.5;" width="122" x="201" y="276"/><rect fill="#FEFECE" height="5" style="stroke: #A80036; stroke-width: 1.5;" width="10" x="196" y="281"/><rect fill="#FEFECE" height="5" style="stroke: #A80036; stroke-width: 1.5;" width="10" x="196" y="302.2969"/><text fill="#000000" font-family="sans-serif" font-size="14" lengthAdjust="spacingAndGlyphs" textLength="102" x="211" y="298.9951">SSMTPlatform</text><!--MD5=[410b2332a3d5aec0834b371ad05822f9]
reverse link PlatformAPI to COMPSPlatform--><path d="M169.64,83.297 C156.168,99.986 132.951,131.262 121,162 C105.875,200.905 101.14,250.2816 99.6637,275.8743 " fill="none" id="PlatformAPI&lt;-COMPSPlatform" style="stroke: #A80036; stroke-width: 1.0;"/><polygon fill="#A80036" points="172.842,79.378,164.051,83.8186,169.6793,83.2506,170.2473,88.8789,172.842,79.378" style="stroke: #A80036; stroke-width: 1.0;"/><text fill="#000000" font-family="sans-serif" font-size="13" lengthAdjust="spacingAndGlyphs" textLength="44" x="150.5" y="175.0669">COMPs</text><text fill="#000000" font-family="sans-serif" font-size="13" lengthAdjust="spacingAndGlyphs" textLength="101" x="122" y="190.1997">Implementation</text><!--MD5=[2c3f34f35ca8d0f1612701cb6925240e]
reverse link PlatformAPI to SSMTPlatform--><path d="M187.894,83.665 C198.318,100.85 216.674,132.77 228,162 C243.281,201.437 253.882,250.1801 258.83,275.6456 " fill="none" id="PlatformAPI&lt;-SSMTPlatform" style="stroke: #A80036; stroke-width: 1.0;"/><polygon fill="#A80036" points="185.177,79.223,186.4598,88.988,187.7855,83.4886,193.2848,84.8143,185.177,79.223" style="stroke: #A80036; stroke-width: 1.0;"/><text fill="#000000" font-family="sans-serif" font-size="13" lengthAdjust="spacingAndGlyphs" textLength="34" x="272.5" y="175.0669">SSMT</text><text fill="#000000" font-family="sans-serif" font-size="13" lengthAdjust="spacingAndGlyphs" textLength="101" x="239" y="190.1997">Implementation</text><!--MD5=[e7df343a7d9b6886520d7775e858ca18]
@startuml
package "idmtools-core" as registry {
    () "PlatformAPI" as PlatformAPI
}

package "idmtools-platform-comps" as comps {
    [COMPSPlatform]
    [SSMTPlatform]
}

PlatformAPI <-down- - COMPSPlatform: COMPs\nImplementation
PlatformAPI <- - SSMTPlatform: SSMT\nImplementation
@enduml

PlantUML version 1.2020.12(Sat Jun 06 10:54:15 UTC 2020)
(GPL source distribution)
Java Runtime: Java(TM) SE Runtime Environment
JVM: Java HotSpot(TM) 64-Bit Server VM
Default Encoding: UTF-8
Language: en
Country: US
--></g></svg>