<?xml version="1.0" encoding="UTF-8" standalone="no"?><svg xmlns="http://www.w3.org/2000/svg" xmlns:xlink="http://www.w3.org/1999/xlink" contentScriptType="application/ecmascript" contentStyleType="text/css" height="290px" preserveAspectRatio="none" style="width:168px;height:290px;" version="1.1" viewBox="0 0 168 290" width="168px" zoomAndPan="magnify"><defs><filter height="300%" id="f11m0gk1yiame" width="300%" x="-1" y="-1"><feGaussianBlur result="blurOut" stdDeviation="2.0"/><feColorMatrix in="blurOut" result="blurOut2" type="matrix" values="0 0 0 0 0 0 0 0 0 0 0 0 0 0 0 0 0 0 .4 0"/><feOffset dx="4.0" dy="4.0" in="blurOut2" result="blurOut3"/><feBlend in="SourceGraphic" in2="blurOut3" mode="normal"/></filter></defs><g><!--MD5=[733ae57ad73ddca760861ab983f10ac6]
class IAnalyzer--><rect codeLine="1" fill="#FEFECE" filter="url(#f11m0gk1yiame)" height="48" id="IAnalyzer" style="stroke: #A80036; stroke-width: 1.5;" width="87" x="34.5" y="7"/><ellipse cx="49.5" cy="23" fill="#A9DCDF" rx="11" ry="11" style="stroke: #A80036; stroke-width: 1.0;"/><path d="M51.5781,24.8125 L51.9688,25.7969 L51.5781,25.7969 C51.125,25.7969 51.0156,25.8125 50.8594,25.9219 C50.6094,26.0781 50.4531,26.3594 50.4531,26.6563 C50.4531,26.9219 50.5938,27.1719 50.8125,27.3281 C50.9531,27.4531 51.1563,27.5 51.5781,27.5 L53.9375,27.5 C54.2969,27.5 54.5156,27.4688 54.6563,27.375 C54.9063,27.2344 55.0625,26.9375 55.0625,26.6563 C55.0625,26.375 54.9219,26.125 54.7031,25.9688 C54.5313,25.8281 54.375,25.7969 53.9063,25.7969 L50.5156,17.5938 L46.8438,17.5938 C46.3906,17.5938 46.2656,17.6094 46.1094,17.7031 C45.8594,17.875 45.7031,18.1563 45.7031,18.4375 C45.7031,18.7188 45.8438,18.9688 46.0625,19.1406 C46.2344,19.25 46.4063,19.2813 46.8438,19.2813 L47.9219,19.2813 L45.2813,25.7969 C44.8594,25.7969 44.7031,25.8125 44.5469,25.9219 C44.2969,26.0781 44.1406,26.3594 44.1406,26.6563 C44.1406,27.2188 44.5156,27.5 45.2656,27.5 L47.5313,27.5 C47.8906,27.5 48.1094,27.4688 48.2344,27.375 C48.5,27.2344 48.6406,26.9375 48.6406,26.6563 C48.6406,26.375 48.5156,26.125 48.2969,25.9531 C48.125,25.8281 47.9844,25.7969 47.5313,25.7969 L47.1406,25.7969 L47.5313,24.8125 L51.5781,24.8125 Z M50.875,23.1094 L48.2031,23.1094 L49.5469,19.8438 L50.875,23.1094 Z "/><text fill="#000000" font-family="sans-serif" font-size="12" font-style="italic" lengthAdjust="spacingAndGlyphs" textLength="55" x="63.5" y="27.1543">IAnalyzer</text><line style="stroke: #A80036; stroke-width: 1.5;" x1="35.5" x2="120.5" y1="39" y2="39"/><line style="stroke: #A80036; stroke-width: 1.5;" x1="35.5" x2="120.5" y1="47" y2="47"/><!--MD5=[bed996c03aef9a8595a20ed4cdb545e6]
class BuiltinAnalyzers--><rect fill="#FEFECE" filter="url(#f11m0gk1yiame)" height="48" id="BuiltinAnalyzers" style="stroke: #A80036; stroke-width: 1.5;" width="126" x="15" y="115"/><ellipse cx="30" cy="131" fill="#ADD1B2" rx="11" ry="11" style="stroke: #A80036; stroke-width: 1.0;"/><path d="M32.3438,126.6719 C31.4063,126.2344 30.8125,126.0938 29.9375,126.0938 C27.3125,126.0938 25.3125,128.1719 25.3125,130.8906 L25.3125,132.0156 C25.3125,134.5938 27.4219,136.4844 30.3125,136.4844 C31.5313,136.4844 32.6875,136.1875 33.4375,135.6406 C34.0156,135.2344 34.3438,134.7813 34.3438,134.3906 C34.3438,133.9375 33.9531,133.5469 33.4844,133.5469 C33.2656,133.5469 33.0625,133.625 32.875,133.8125 C32.4219,134.2969 32.4219,134.2969 32.2344,134.3906 C31.8125,134.6563 31.125,134.7813 30.3594,134.7813 C28.3125,134.7813 27.0156,133.6875 27.0156,131.9844 L27.0156,130.8906 C27.0156,129.1094 28.2656,127.7969 30,127.7969 C30.5781,127.7969 31.1875,127.9531 31.6563,128.2031 C32.1406,128.4844 32.3125,128.7031 32.4063,129.1094 C32.4688,129.5156 32.5,129.6406 32.6406,129.7656 C32.7813,129.9063 33.0156,130.0156 33.2344,130.0156 C33.5,130.0156 33.7656,129.875 33.9375,129.6563 C34.0469,129.5 34.0781,129.3125 34.0781,128.8906 L34.0781,127.4688 C34.0781,127.0313 34.0625,126.9063 33.9688,126.75 C33.8125,126.4844 33.5313,126.3438 33.2344,126.3438 C32.9375,126.3438 32.7344,126.4375 32.5156,126.75 L32.3438,126.6719 Z "/><text fill="#000000" font-family="sans-serif" font-size="12" lengthAdjust="spacingAndGlyphs" textLength="94" x="44" y="135.1543">BuiltinAnalyzers</text><line style="stroke: #A80036; stroke-width: 1.5;" x1="16" x2="140" y1="147" y2="147"/><line style="stroke: #A80036; stroke-width: 1.5;" x1="16" x2="140" y1="155" y2="155"/><!--MD5=[e1fc56966ea621ddfc95130853be6b41]
class ExampleAnalyzers--><rect fill="#FEFECE" filter="url(#f11m0gk1yiame)" height="48" id="ExampleAnalyzers" style="stroke: #A80036; stroke-width: 1.5;" width="142" x="7" y="223"/><ellipse cx="22" cy="239" fill="#ADD1B2" rx="11" ry="11" style="stroke: #A80036; stroke-width: 1.0;"/><path d="M24.3438,234.6719 C23.4063,234.2344 22.8125,234.0938 21.9375,234.0938 C19.3125,234.0938 17.3125,236.1719 17.3125,238.8906 L17.3125,240.0156 C17.3125,242.5938 19.4219,244.4844 22.3125,244.4844 C23.5313,244.4844 24.6875,244.1875 25.4375,243.6406 C26.0156,243.2344 26.3438,242.7813 26.3438,242.3906 C26.3438,241.9375 25.9531,241.5469 25.4844,241.5469 C25.2656,241.5469 25.0625,241.625 24.875,241.8125 C24.4219,242.2969 24.4219,242.2969 24.2344,242.3906 C23.8125,242.6563 23.125,242.7813 22.3594,242.7813 C20.3125,242.7813 19.0156,241.6875 19.0156,239.9844 L19.0156,238.8906 C19.0156,237.1094 20.2656,235.7969 22,235.7969 C22.5781,235.7969 23.1875,235.9531 23.6563,236.2031 C24.1406,236.4844 24.3125,236.7031 24.4063,237.1094 C24.4688,237.5156 24.5,237.6406 24.6406,237.7656 C24.7813,237.9063 25.0156,238.0156 25.2344,238.0156 C25.5,238.0156 25.7656,237.875 25.9375,237.6563 C26.0469,237.5 26.0781,237.3125 26.0781,236.8906 L26.0781,235.4688 C26.0781,235.0313 26.0625,234.9063 25.9688,234.75 C25.8125,234.4844 25.5313,234.3438 25.2344,234.3438 C24.9375,234.3438 24.7344,234.4375 24.5156,234.75 L24.3438,234.6719 Z "/><text fill="#000000" font-family="sans-serif" font-size="12" lengthAdjust="spacingAndGlyphs" textLength="110" x="36" y="243.1543">ExampleAnalyzers</text><line style="stroke: #A80036; stroke-width: 1.5;" x1="8" x2="148" y1="255" y2="255"/><line style="stroke: #A80036; stroke-width: 1.5;" x1="8" x2="148" y1="263" y2="263"/><!--MD5=[b11dbf8c00a8983066f1b3f3115e7fa7]
reverse link IAnalyzer to BuiltinAnalyzers--><path codeLine="2" d="M78,75.024 C78,88.579 78,103.038 78,114.678 " fill="none" id="IAnalyzer-backto-BuiltinAnalyzers" style="stroke: #A80036; stroke-width: 1.0;"/><polygon fill="none" points="71.0001,75,78,55,85.0001,75,71.0001,75" style="stroke: #A80036; stroke-width: 1.0;"/><!--MD5=[c84cec34b406476b162ffda16f4ec8cc]
reverse link BuiltinAnalyzers to ExampleAnalyzers--><path codeLine="3" d="M78,183.0236 C78,196.5792 78,211.0381 78,222.6784 " fill="none" id="BuiltinAnalyzers-backto-ExampleAnalyzers" style="stroke: #A80036; stroke-width: 1.0;"/><polygon fill="none" points="71.0001,183.0005,78,163,85.0001,183.0004,71.0001,183.0005" style="stroke: #A80036; stroke-width: 1.0;"/><!--MD5=[139f5d91fe1ccef846b1eb0ac560eb9c]
@startuml
abstract class IAnalyzer        
IAnalyzer <|- - BuiltinAnalyzers
BuiltinAnalyzers <|- - ExampleAnalyzers
@enduml

PlantUML version 1.2020.18beta4(Unknown compile time)
(GPL source distribution)
Java Runtime: Java(TM) SE Runtime Environment
JVM: Java HotSpot(TM) 64-Bit Server VM
Default Encoding: UTF-8
Language: en
Country: US
--></g></svg>