<?xml version="1.0" encoding="UTF-8" standalone="no"?><svg xmlns="http://www.w3.org/2000/svg" xmlns:xlink="http://www.w3.org/1999/xlink" contentScriptType="application/ecmascript" contentStyleType="text/css" height="182px" preserveAspectRatio="none" style="width:122px;height:182px;" version="1.1" viewBox="0 0 122 182" width="122px" zoomAndPan="magnify"><defs><filter height="300%" id="fv442by6vh3yg" width="300%" x="-1" y="-1"><feGaussianBlur result="blurOut" stdDeviation="2.0"/><feColorMatrix in="blurOut" result="blurOut2" type="matrix" values="0 0 0 0 0 0 0 0 0 0 0 0 0 0 0 0 0 0 .4 0"/><feOffset dx="4.0" dy="4.0" in="blurOut2" result="blurOut3"/><feBlend in="SourceGraphic" in2="blurOut3" mode="normal"/></filter></defs><g><!--MD5=[c87df0a587278ec9f4647c2ac9d233af]
class ITask--><rect codeLine="1" fill="#FEFECE" filter="url(#fv442by6vh3yg)" height="48" id="ITask" style="stroke: #A80036; stroke-width: 1.5;" width="63" x="23.5" y="7"/><ellipse cx="38.5" cy="23" fill="#A9DCDF" rx="11" ry="11" style="stroke: #A80036; stroke-width: 1.0;"/><path d="M40.5781,24.8125 L40.9688,25.7969 L40.5781,25.7969 C40.125,25.7969 40.0156,25.8125 39.8594,25.9219 C39.6094,26.0781 39.4531,26.3594 39.4531,26.6563 C39.4531,26.9219 39.5938,27.1719 39.8125,27.3281 C39.9531,27.4531 40.1563,27.5 40.5781,27.5 L42.9375,27.5 C43.2969,27.5 43.5156,27.4688 43.6563,27.375 C43.9063,27.2344 44.0625,26.9375 44.0625,26.6563 C44.0625,26.375 43.9219,26.125 43.7031,25.9688 C43.5313,25.8281 43.375,25.7969 42.9063,25.7969 L39.5156,17.5938 L35.8438,17.5938 C35.3906,17.5938 35.2656,17.6094 35.1094,17.7031 C34.8594,17.875 34.7031,18.1563 34.7031,18.4375 C34.7031,18.7188 34.8438,18.9688 35.0625,19.1406 C35.2344,19.25 35.4063,19.2813 35.8438,19.2813 L36.9219,19.2813 L34.2813,25.7969 C33.8594,25.7969 33.7031,25.8125 33.5469,25.9219 C33.2969,26.0781 33.1406,26.3594 33.1406,26.6563 C33.1406,27.2188 33.5156,27.5 34.2656,27.5 L36.5313,27.5 C36.8906,27.5 37.1094,27.4688 37.2344,27.375 C37.5,27.2344 37.6406,26.9375 37.6406,26.6563 C37.6406,26.375 37.5156,26.125 37.2969,25.9531 C37.125,25.8281 36.9844,25.7969 36.5313,25.7969 L36.1406,25.7969 L36.5313,24.8125 L40.5781,24.8125 Z M39.875,23.1094 L37.2031,23.1094 L38.5469,19.8438 L39.875,23.1094 Z "/><text fill="#000000" font-family="sans-serif" font-size="12" font-style="italic" lengthAdjust="spacingAndGlyphs" textLength="31" x="52.5" y="27.1543">ITask</text><line style="stroke: #A80036; stroke-width: 1.5;" x1="24.5" x2="85.5" y1="39" y2="39"/><line style="stroke: #A80036; stroke-width: 1.5;" x1="24.5" x2="85.5" y1="47" y2="47"/><!--MD5=[f058936ad943780a2af44af6fa98804a]
class EMODTask--><rect fill="#FEFECE" filter="url(#fv442by6vh3yg)" height="48" id="EMODTask" style="stroke: #A80036; stroke-width: 1.5;" width="96" x="7" y="115"/><ellipse cx="22" cy="131" fill="#ADD1B2" rx="11" ry="11" style="stroke: #A80036; stroke-width: 1.0;"/><path d="M24.3438,126.6719 C23.4063,126.2344 22.8125,126.0938 21.9375,126.0938 C19.3125,126.0938 17.3125,128.1719 17.3125,130.8906 L17.3125,132.0156 C17.3125,134.5938 19.4219,136.4844 22.3125,136.4844 C23.5313,136.4844 24.6875,136.1875 25.4375,135.6406 C26.0156,135.2344 26.3438,134.7813 26.3438,134.3906 C26.3438,133.9375 25.9531,133.5469 25.4844,133.5469 C25.2656,133.5469 25.0625,133.625 24.875,133.8125 C24.4219,134.2969 24.4219,134.2969 24.2344,134.3906 C23.8125,134.6563 23.125,134.7813 22.3594,134.7813 C20.3125,134.7813 19.0156,133.6875 19.0156,131.9844 L19.0156,130.8906 C19.0156,129.1094 20.2656,127.7969 22,127.7969 C22.5781,127.7969 23.1875,127.9531 23.6563,128.2031 C24.1406,128.4844 24.3125,128.7031 24.4063,129.1094 C24.4688,129.5156 24.5,129.6406 24.6406,129.7656 C24.7813,129.9063 25.0156,130.0156 25.2344,130.0156 C25.5,130.0156 25.7656,129.875 25.9375,129.6563 C26.0469,129.5 26.0781,129.3125 26.0781,128.8906 L26.0781,127.4688 C26.0781,127.0313 26.0625,126.9063 25.9688,126.75 C25.8125,126.4844 25.5313,126.3438 25.2344,126.3438 C24.9375,126.3438 24.7344,126.4375 24.5156,126.75 L24.3438,126.6719 Z "/><text fill="#000000" font-family="sans-serif" font-size="12" lengthAdjust="spacingAndGlyphs" textLength="64" x="36" y="135.1543">EMODTask</text><line style="stroke: #A80036; stroke-width: 1.5;" x1="8" x2="102" y1="147" y2="147"/><line style="stroke: #A80036; stroke-width: 1.5;" x1="8" x2="102" y1="155" y2="155"/><!--MD5=[67629cf7c9cd86c97b7103b5c7166d8f]
reverse link ITask to EMODTask--><path codeLine="2" d="M55,75.0236 C55,88.5792 55,103.0381 55,114.6784 " fill="none" id="ITask-backto-EMODTask" style="stroke: #A80036; stroke-width: 1.0;"/><polygon fill="none" points="48.0001,75.0005,55,55,62.0001,75.0004,48.0001,75.0005" style="stroke: #A80036; stroke-width: 1.0;"/><!--MD5=[f7e27e7a52714acebc40b6c749be7e62]
@startuml
abstract class ITask
ITask <|- - EMODTask
@enduml

PlantUML version 1.2020.18beta4(Unknown compile time)
(GPL source distribution)
Java Runtime: Java(TM) SE Runtime Environment
JVM: Java HotSpot(TM) 64-Bit Server VM
Default Encoding: UTF-8
Language: en
Country: US
--></g></svg>